{"glyphs":{"0":{"ha":1025,"x_min":83,"x_max":942,"o":"m 512 -13 q 196 117 309 -13 q 83 514 83 247 q 195 911 83 781 q 512 1041 308 1041 q 829 911 716 1041 q 942 514 942 781 q 890 217 942 335 q 741 43 838 99 q 512 -13 645 -13 m 513 150 q 638 184 587 150 q 718 298 690 218 q 746 513 746 378 q 718 729 746 649 q 639 844 690 810 q 513 878 588 878 q 387 844 438 878 q 307 730 335 810 q 279 515 279 650 q 307 299 279 379 q 386 184 335 218 q 513 150 438 150 z "},"1":{"ha":656,"x_min":27,"x_max":531,"o":"m 397 1031 l 531 1031 l 531 0 l 331 0 l 331 793 l 27 577 l 27 767 l 397 1031 z "},"2":{"ha":822,"x_min":32,"x_max":776,"o":"m 776 158 l 776 0 l 44 0 l 44 103 l 377 469 q 487 613 456 555 q 519 726 519 672 q 467 846 519 808 q 299 884 415 884 q 158 872 227 884 q 32 840 88 860 l 32 999 q 162 1029 85 1017 q 312 1041 239 1041 q 617 969 517 1041 q 716 748 716 897 q 699 637 716 690 q 644 527 683 584 q 542 401 606 470 l 315 158 l 776 158 z "},"3":{"ha":828,"x_min":41,"x_max":777,"o":"m 558 533 q 720 450 663 512 q 777 288 777 389 q 670 66 777 145 q 341 -13 563 -13 q 185 -2 262 -13 q 41 28 108 8 l 41 173 q 186 142 110 153 q 332 131 262 131 q 528 174 466 131 q 590 299 590 217 q 534 415 590 376 q 354 453 478 453 l 176 453 l 176 599 l 297 599 q 487 636 426 599 q 548 751 548 674 q 494 859 548 821 q 332 897 440 897 q 198 886 267 897 q 67 856 129 876 l 67 1001 q 201 1030 126 1019 q 349 1041 277 1041 q 641 969 541 1041 q 740 765 740 897 q 691 620 740 681 q 558 533 642 559 z "},"4":{"ha":963,"x_min":31,"x_max":935,"o":"m 935 374 l 935 219 l 784 219 l 784 0 l 602 0 l 602 219 l 31 219 l 31 325 l 448 1028 l 643 1028 l 257 374 l 602 374 l 622 681 l 784 681 l 784 374 l 935 374 z "},"5":{"ha":839,"x_min":58,"x_max":796,"o":"m 316 615 q 596 569 490 606 q 749 467 701 533 q 796 305 796 402 q 687 68 796 150 q 359 -13 578 -13 q 204 -2 281 -13 q 58 31 127 10 l 58 176 q 202 145 126 156 q 350 134 278 134 q 545 176 483 134 q 608 302 608 219 q 578 391 608 356 q 472 445 547 425 q 261 473 397 465 l 98 481 l 137 1028 l 751 1028 l 751 881 l 315 881 l 295 617 l 316 615 z "},"6":{"ha":947,"x_min":88,"x_max":898,"o":"m 536 610 q 802 532 707 610 q 898 300 898 455 q 853 133 898 203 q 723 25 808 63 q 520 -13 638 -13 q 290 40 387 -13 q 141 203 193 94 q 88 478 88 313 q 220 897 88 753 q 608 1041 352 1041 q 843 1006 748 1041 l 843 857 q 736 884 795 875 q 621 894 677 894 q 282 548 290 894 q 401 593 333 576 q 536 610 469 610 m 520 126 q 664 169 612 126 q 717 296 717 213 q 660 427 717 383 q 498 470 604 470 q 386 456 443 470 q 283 415 330 442 q 349 193 289 260 q 520 126 408 126 z "},"7":{"ha":778,"x_min":10,"x_max":737,"o":"m 10 1028 l 737 1028 l 737 924 l 345 0 l 140 0 l 522 869 l 10 869 l 10 1028 z "},"8":{"ha":1025,"x_min":72,"x_max":950,"o":"m 740 537 q 901 433 852 495 q 950 282 950 371 q 903 129 950 196 q 758 25 856 63 q 516 -13 660 -13 q 181 58 290 -13 q 72 255 72 128 q 124 409 72 344 q 274 510 176 475 q 146 615 185 553 q 106 758 106 676 q 153 907 106 843 q 294 1006 200 970 q 525 1041 388 1041 q 737 1010 649 1041 q 870 921 825 979 q 916 783 916 863 q 740 537 916 613 m 519 906 q 350 868 406 906 q 295 765 295 831 q 319 686 295 718 q 404 629 343 654 q 578 581 465 603 l 595 578 q 707 657 672 613 q 741 760 741 701 q 685 868 741 831 q 519 906 628 906 m 517 122 q 703 160 642 122 q 764 269 764 198 q 739 347 764 315 q 653 402 713 378 q 484 446 592 426 q 406 463 448 452 q 296 386 332 433 q 260 282 260 339 q 324 163 260 203 q 517 122 388 122 z "},"9":{"ha":947,"x_min":49,"x_max":858,"o":"m 426 1041 q 657 988 560 1041 q 806 824 753 934 q 858 550 858 715 q 726 131 858 274 q 339 -13 594 -13 q 103 22 199 -13 l 103 171 q 210 143 151 153 q 326 134 269 134 q 665 480 657 134 q 546 435 614 451 q 410 418 478 418 q 144 495 240 418 q 49 728 49 573 q 94 895 49 824 q 224 1003 139 965 q 426 1041 309 1041 m 230 732 q 286 601 230 644 q 449 558 342 558 q 560 572 503 558 q 664 613 617 586 q 598 834 658 767 q 426 901 538 901 q 282 858 335 901 q 230 732 230 815 z "},"\u0000":{"ha":0,"x_min":0,"x_max":0,"o":""},"\r":{"ha":394,"x_min":0,"x_max":0,"o":""}," ":{"ha":394,"x_min":0,"x_max":0,"o":""},"A":{"ha":1121,"x_min":22,"x_max":1099,"o":"m 901 0 l 791 294 l 328 294 l 217 0 l 22 0 l 417 1028 l 703 1028 l 1099 0 l 901 0 m 385 447 l 733 447 l 559 911 l 385 447 z "},"Á":{"ha":1121,"x_min":22,"x_max":1099,"o":"m 901 0 l 791 294 l 328 294 l 217 0 l 22 0 l 417 1028 l 703 1028 l 1099 0 l 901 0 m 385 447 l 733 447 l 559 911 l 385 447 m 468 1111 l 615 1317 l 826 1317 l 649 1111 l 468 1111 z "},"Ă":{"ha":1121,"x_min":22,"x_max":1099,"o":"m 901 0 l 791 294 l 328 294 l 217 0 l 22 0 l 417 1028 l 703 1028 l 1099 0 l 901 0 m 385 447 l 733 447 l 559 911 l 385 447 m 560 1115 q 359 1168 429 1115 q 275 1308 288 1221 l 397 1308 q 560 1212 419 1212 q 674 1237 636 1212 q 722 1308 712 1263 l 844 1308 q 761 1168 831 1221 q 560 1115 692 1115 z "},"Ắ":{"ha":1121,"x_min":22,"x_max":1099,"o":"m 901 0 l 791 294 l 328 294 l 217 0 l 22 0 l 417 1028 l 703 1028 l 1099 0 l 901 0 m 385 447 l 733 447 l 559 911 l 385 447 m 499 1274 l 610 1444 l 756 1444 l 620 1274 l 499 1274 m 560 1115 q 374 1163 439 1115 q 296 1291 308 1210 l 399 1291 q 446 1222 410 1245 q 560 1198 481 1198 q 648 1209 615 1198 q 698 1240 681 1220 q 724 1291 715 1260 l 824 1291 q 746 1162 811 1210 q 560 1115 681 1115 z "},"Ặ":{"ha":1121,"x_min":22,"x_max":1099,"o":"m 901 0 l 791 294 l 328 294 l 217 0 l 22 0 l 417 1028 l 703 1028 l 1099 0 l 901 0 m 385 447 l 733 447 l 559 911 l 385 447 m 560 -273 q 470 -250 500 -273 q 440 -185 440 -226 q 470 -122 440 -145 q 560 -98 500 -98 q 651 -122 621 -98 q 681 -185 681 -145 q 651 -250 681 -226 q 560 -273 621 -273 m 560 1115 q 359 1168 429 1115 q 275 1308 288 1221 l 397 1308 q 560 1212 419 1212 q 674 1237 636 1212 q 722 1308 712 1263 l 844 1308 q 761 1168 831 1221 q 560 1115 692 1115 z "},"Ằ":{"ha":1121,"x_min":22,"x_max":1099,"o":"m 901 0 l 791 294 l 328 294 l 217 0 l 22 0 l 417 1028 l 703 1028 l 1099 0 l 901 0 m 385 447 l 733 447 l 559 911 l 385 447 m 499 1274 l 363 1444 l 509 1444 l 620 1274 l 499 1274 m 559 1115 q 373 1162 438 1115 q 296 1291 308 1210 l 396 1291 q 422 1240 405 1260 q 472 1209 439 1220 q 559 1198 505 1198 q 674 1222 638 1198 q 720 1291 709 1245 l 824 1291 q 746 1163 811 1210 q 559 1115 681 1115 z "},"Ẳ":{"ha":1121,"x_min":22,"x_max":1099,"o":"m 901 0 l 791 294 l 328 294 l 217 0 l 22 0 l 417 1028 l 703 1028 l 1099 0 l 901 0 m 385 447 l 733 447 l 559 911 l 385 447 m 508 1274 q 530 1315 510 1301 q 587 1344 550 1329 q 624 1361 613 1354 q 636 1380 636 1369 q 551 1406 636 1406 q 480 1402 513 1406 q 405 1388 447 1398 l 405 1453 q 479 1467 437 1463 q 564 1472 521 1472 q 696 1451 653 1472 q 739 1390 739 1429 q 728 1357 739 1371 q 703 1334 717 1343 q 663 1315 688 1326 q 624 1294 637 1303 q 610 1274 612 1286 l 508 1274 m 559 1115 q 373 1162 438 1115 q 296 1291 308 1210 l 399 1291 q 445 1222 410 1245 q 559 1198 480 1198 q 674 1221 638 1198 q 724 1291 710 1244 l 824 1291 q 746 1163 811 1210 q 559 1115 681 1115 z "},"Ẵ":{"ha":1121,"x_min":22,"x_max":1099,"o":"m 901 0 l 791 294 l 328 294 l 217 0 l 22 0 l 417 1028 l 703 1028 l 1099 0 l 901 0 m 385 447 l 733 447 l 559 911 l 385 447 m 673 1331 q 613 1337 642 1331 q 546 1355 585 1343 q 490 1370 513 1365 q 445 1375 467 1375 q 374 1364 408 1375 q 296 1328 340 1353 l 296 1413 q 368 1447 333 1438 q 447 1456 403 1456 q 506 1450 478 1456 q 574 1432 535 1444 q 629 1416 606 1422 q 674 1411 652 1411 q 746 1422 712 1411 q 824 1458 780 1433 l 824 1373 q 751 1340 786 1349 q 673 1331 716 1331 m 559 1115 q 373 1162 438 1115 q 296 1291 308 1210 l 399 1291 q 445 1222 410 1245 q 559 1198 480 1198 q 674 1222 638 1198 q 720 1291 709 1245 l 824 1291 q 746 1163 811 1210 q 559 1115 681 1115 z "},"Â":{"ha":1121,"x_min":22,"x_max":1099,"o":"m 901 0 l 791 294 l 328 294 l 217 0 l 22 0 l 417 1028 l 703 1028 l 1099 0 l 901 0 m 385 447 l 733 447 l 559 911 l 385 447 m 859 1111 l 693 1111 l 560 1242 l 426 1111 l 260 1111 l 476 1317 l 644 1317 l 859 1111 z "},"Ấ":{"ha":1121,"x_min":22,"x_max":1099,"o":"m 901 0 l 791 294 l 328 294 l 217 0 l 22 0 l 417 1028 l 703 1028 l 1099 0 l 901 0 m 385 447 l 733 447 l 559 911 l 385 447 m 858 1433 l 1004 1433 l 868 1258 l 748 1258 l 858 1433 m 476 1300 l 644 1300 l 859 1111 l 693 1111 l 560 1233 l 426 1111 l 260 1111 l 476 1300 z "},"Ậ":{"ha":1121,"x_min":22,"x_max":1099,"o":"m 901 0 l 791 294 l 328 294 l 217 0 l 22 0 l 417 1028 l 703 1028 l 1099 0 l 901 0 m 385 447 l 733 447 l 559 911 l 385 447 m 560 -273 q 470 -250 500 -273 q 440 -185 440 -226 q 470 -122 440 -145 q 560 -98 500 -98 q 651 -122 621 -98 q 681 -185 681 -145 q 651 -250 681 -226 q 560 -273 621 -273 m 859 1111 l 693 1111 l 560 1242 l 426 1111 l 260 1111 l 476 1317 l 644 1317 l 859 1111 z "},"Ầ":{"ha":1121,"x_min":22,"x_max":1099,"o":"m 901 0 l 791 294 l 328 294 l 217 0 l 22 0 l 417 1028 l 703 1028 l 1099 0 l 901 0 m 385 447 l 733 447 l 559 911 l 385 447 m 890 1258 l 769 1258 l 633 1433 l 779 1433 l 890 1258 m 476 1300 l 644 1300 l 859 1111 l 693 1111 l 560 1233 l 426 1111 l 260 1111 l 476 1300 z "},"Ẩ":{"ha":1121,"x_min":22,"x_max":1099,"o":"m 901 0 l 791 294 l 328 294 l 217 0 l 22 0 l 417 1028 l 703 1028 l 1099 0 l 901 0 m 385 447 l 733 447 l 559 911 l 385 447 m 803 1456 q 935 1434 892 1456 q 978 1374 978 1413 q 967 1340 978 1354 q 942 1318 956 1326 q 902 1298 927 1309 q 863 1278 876 1286 q 849 1258 851 1269 l 747 1258 q 769 1299 749 1284 q 826 1327 790 1314 q 863 1345 851 1338 q 875 1364 875 1352 q 790 1390 875 1390 q 718 1386 751 1390 q 644 1372 685 1382 l 644 1437 q 718 1451 676 1446 q 803 1456 760 1456 m 476 1300 l 644 1300 l 859 1111 l 693 1111 l 560 1233 l 426 1111 l 260 1111 l 476 1300 z "},"Ẫ":{"ha":1121,"x_min":22,"x_max":1099,"o":"m 901 0 l 791 294 l 328 294 l 217 0 l 22 0 l 417 1028 l 703 1028 l 1099 0 l 901 0 m 385 447 l 733 447 l 559 911 l 385 447 m 696 1411 q 776 1422 738 1411 q 859 1458 813 1433 l 859 1373 q 782 1340 820 1349 q 694 1331 743 1331 q 624 1337 657 1331 q 544 1355 590 1343 q 477 1370 504 1365 q 424 1375 451 1375 q 344 1364 381 1375 q 260 1328 306 1353 l 260 1413 q 338 1447 299 1438 q 425 1456 376 1456 q 496 1450 463 1456 q 576 1432 529 1444 q 641 1416 613 1422 q 696 1411 669 1411 m 476 1300 l 644 1300 l 859 1111 l 693 1111 l 560 1233 l 426 1111 l 260 1111 l 476 1300 z "},"Ȁ":{"ha":1121,"x_min":22,"x_max":1099,"o":"m 901 0 l 791 294 l 328 294 l 217 0 l 22 0 l 417 1028 l 703 1028 l 1099 0 l 901 0 m 385 447 l 733 447 l 559 911 l 385 447 m 346 1111 l 223 1317 l 376 1317 l 489 1111 l 346 1111 m 631 1111 l 508 1317 l 661 1317 l 774 1111 l 631 1111 z "},"Ä":{"ha":1121,"x_min":22,"x_max":1099,"o":"m 901 0 l 791 294 l 328 294 l 217 0 l 22 0 l 417 1028 l 703 1028 l 1099 0 l 901 0 m 385 447 l 733 447 l 559 911 l 385 447 m 366 1128 q 287 1151 313 1128 q 260 1216 260 1174 q 287 1281 260 1258 q 366 1304 313 1304 q 444 1281 418 1304 q 471 1216 471 1258 q 445 1151 471 1174 q 366 1128 419 1128 m 753 1128 q 675 1151 701 1128 q 649 1216 649 1174 q 675 1281 649 1258 q 753 1304 701 1304 q 833 1281 806 1304 q 859 1216 859 1258 q 833 1151 859 1174 q 753 1128 806 1128 z "},"Ạ":{"ha":1121,"x_min":22,"x_max":1099,"o":"m 901 0 l 791 294 l 328 294 l 217 0 l 22 0 l 417 1028 l 703 1028 l 1099 0 l 901 0 m 385 447 l 733 447 l 559 911 l 385 447 m 560 -273 q 470 -250 500 -273 q 440 -185 440 -226 q 470 -122 440 -145 q 560 -98 500 -98 q 651 -122 621 -98 q 681 -185 681 -145 q 651 -250 681 -226 q 560 -273 621 -273 z "},"À":{"ha":1121,"x_min":22,"x_max":1099,"o":"m 901 0 l 791 294 l 328 294 l 217 0 l 22 0 l 417 1028 l 703 1028 l 1099 0 l 901 0 m 385 447 l 733 447 l 559 911 l 385 447 m 469 1111 l 292 1317 l 503 1317 l 650 1111 l 469 1111 z "},"Ả":{"ha":1121,"x_min":22,"x_max":1099,"o":"m 901 0 l 791 294 l 328 294 l 217 0 l 22 0 l 417 1028 l 703 1028 l 1099 0 l 901 0 m 385 447 l 733 447 l 559 911 l 385 447 m 508 1111 q 530 1155 510 1139 q 587 1186 550 1170 q 624 1205 613 1197 q 636 1225 636 1213 q 551 1253 636 1253 q 479 1248 513 1253 q 405 1233 446 1244 l 405 1307 q 480 1322 438 1317 q 564 1327 522 1327 q 696 1303 653 1327 q 739 1237 739 1280 q 728 1200 739 1215 q 702 1176 717 1185 q 663 1154 688 1166 q 624 1133 637 1142 q 610 1111 612 1124 l 508 1111 z "},"Ȃ":{"ha":1121,"x_min":22,"x_max":1099,"o":"m 901 0 l 791 294 l 328 294 l 217 0 l 22 0 l 417 1028 l 703 1028 l 1099 0 l 901 0 m 385 447 l 733 447 l 559 911 l 385 447 m 275 1120 q 358 1260 288 1207 q 559 1313 428 1313 q 761 1259 690 1313 q 844 1120 831 1206 l 722 1120 q 559 1215 701 1215 q 445 1190 483 1215 q 397 1120 408 1165 l 275 1120 z "},"Ā":{"ha":1121,"x_min":22,"x_max":1099,"o":"m 901 0 l 791 294 l 328 294 l 217 0 l 22 0 l 417 1028 l 703 1028 l 1099 0 l 901 0 m 385 447 l 733 447 l 559 911 l 385 447 m 297 1158 l 297 1271 l 822 1271 l 822 1158 l 297 1158 z "},"Ą":{"ha":1121,"x_min":22,"x_max":1156,"o":"m 1045 -222 q 1095 -216 1069 -222 q 1156 -199 1121 -211 l 1156 -276 q 1019 -300 1092 -300 q 874 -263 924 -300 q 824 -161 824 -226 q 851 -73 824 -113 q 939 0 878 -33 l 901 0 l 791 294 l 328 294 l 217 0 l 22 0 l 417 1028 l 703 1028 l 1099 0 q 974 -69 1010 -35 q 938 -147 938 -104 q 965 -202 938 -182 q 1045 -222 992 -222 m 385 447 l 733 447 l 559 911 l 385 447 z "},"Å":{"ha":1121,"x_min":22,"x_max":1099,"o":"m 901 0 l 791 294 l 328 294 l 217 0 l 22 0 l 417 1028 l 703 1028 l 1099 0 l 901 0 m 385 447 l 733 447 l 559 911 l 385 447 m 560 1103 q 486 1122 519 1103 q 434 1173 453 1140 q 415 1245 415 1205 q 434 1318 415 1285 q 486 1368 453 1350 q 560 1386 519 1386 q 634 1368 601 1386 q 685 1318 667 1350 q 704 1245 704 1285 q 685 1173 704 1205 q 634 1122 667 1140 q 560 1103 601 1103 m 560 1172 q 611 1192 592 1172 q 631 1245 631 1212 q 611 1298 631 1278 q 560 1318 591 1318 q 509 1298 528 1318 q 489 1245 489 1278 q 508 1192 489 1212 q 560 1172 528 1172 z "},"Ǻ":{"ha":1121,"x_min":22,"x_max":1099,"o":"m 901 0 l 791 294 l 328 294 l 217 0 l 22 0 l 417 1028 l 703 1028 l 1099 0 l 901 0 m 385 447 l 733 447 l 559 911 l 385 447 m 683 1322 q 704 1245 704 1288 q 685 1173 704 1205 q 634 1122 667 1140 q 560 1103 601 1103 q 486 1122 519 1103 q 434 1173 453 1140 q 415 1245 415 1205 q 434 1318 415 1285 q 486 1368 453 1350 q 560 1386 519 1386 q 605 1380 584 1386 l 681 1468 l 818 1468 l 683 1322 m 560 1172 q 611 1192 592 1172 q 631 1245 631 1212 q 611 1298 631 1278 q 560 1318 591 1318 q 509 1298 528 1318 q 489 1245 489 1278 q 508 1192 489 1212 q 560 1172 528 1172 z "},"Ã":{"ha":1121,"x_min":22,"x_max":1099,"o":"m 901 0 l 791 294 l 328 294 l 217 0 l 22 0 l 417 1028 l 703 1028 l 1099 0 l 901 0 m 385 447 l 733 447 l 559 911 l 385 447 m 685 1137 q 623 1143 651 1137 q 549 1163 594 1149 q 484 1181 511 1175 q 430 1188 458 1188 q 353 1177 386 1188 q 286 1142 320 1166 l 286 1250 q 350 1286 315 1275 q 434 1298 385 1298 q 498 1291 469 1298 q 571 1271 528 1284 q 635 1253 608 1259 q 690 1247 662 1247 q 767 1258 733 1247 q 833 1293 800 1269 l 833 1184 q 769 1148 805 1160 q 685 1137 734 1137 z "},"Æ":{"ha":1521,"x_min":22,"x_max":1454,"o":"m 931 152 l 1454 152 l 1454 0 l 744 0 l 719 294 l 329 294 l 217 0 l 22 0 l 421 1028 l 1447 1028 l 1447 876 l 865 876 l 890 602 l 1376 602 l 1376 450 l 904 450 l 931 152 m 388 447 l 706 447 l 669 876 l 551 876 l 388 447 z "},"Ǽ":{"ha":1521,"x_min":22,"x_max":1454,"o":"m 931 152 l 1454 152 l 1454 0 l 744 0 l 719 294 l 329 294 l 217 0 l 22 0 l 421 1028 l 1447 1028 l 1447 876 l 865 876 l 890 602 l 1376 602 l 1376 450 l 904 450 l 931 152 m 388 447 l 706 447 l 669 876 l 551 876 l 388 447 m 669 1111 l 816 1317 l 1026 1317 l 849 1111 l 669 1111 z "},"B":{"ha":999,"x_min":118,"x_max":950,"o":"m 747 530 q 898 450 845 512 q 950 289 950 388 q 900 125 950 191 q 734 24 849 59 q 426 -10 618 -10 q 273 -5 354 -10 q 118 10 192 0 l 118 1001 q 288 1030 197 1019 q 469 1040 379 1040 q 814 968 706 1040 q 922 755 922 897 q 876 611 922 670 q 747 530 831 551 m 490 899 q 314 883 395 899 l 314 598 l 516 598 q 682 634 629 598 q 734 747 734 670 q 710 834 734 801 q 633 883 686 867 q 490 899 579 899 m 476 131 q 651 149 587 131 q 741 203 715 167 q 767 296 767 239 q 712 417 767 379 q 535 455 658 455 l 314 455 l 314 140 q 476 131 384 131 z "},"C":{"ha":965,"x_min":76,"x_max":920,"o":"m 656 -13 q 225 116 374 -13 q 76 512 76 244 q 144 802 76 683 q 345 981 213 920 q 666 1041 477 1041 q 920 1012 797 1041 l 920 849 q 680 877 805 877 q 383 789 481 877 q 285 515 285 701 q 381 238 285 324 q 668 151 477 151 q 920 185 797 151 l 920 23 q 656 -13 798 -13 z "},"Ć":{"ha":965,"x_min":76,"x_max":920,"o":"m 656 -13 q 225 116 374 -13 q 76 512 76 244 q 144 802 76 683 q 345 981 213 920 q 666 1041 477 1041 q 920 1012 797 1041 l 920 849 q 680 877 805 877 q 383 789 481 877 q 285 515 285 701 q 381 238 285 324 q 668 151 477 151 q 920 185 797 151 l 920 23 q 656 -13 798 -13 m 481 1111 l 628 1317 l 839 1317 l 662 1111 l 481 1111 z "},"Č":{"ha":965,"x_min":76,"x_max":920,"o":"m 656 -13 q 225 116 374 -13 q 76 512 76 244 q 144 802 76 683 q 345 981 213 920 q 666 1041 477 1041 q 920 1012 797 1041 l 920 849 q 680 877 805 877 q 383 789 481 877 q 285 515 285 701 q 381 238 285 324 q 668 151 477 151 q 920 185 797 151 l 920 23 q 656 -13 798 -13 m 706 1317 l 872 1317 l 657 1111 l 489 1111 l 274 1317 l 440 1317 l 573 1186 l 706 1317 z "},"Ç":{"ha":965,"x_min":76,"x_max":920,"o":"m 680 877 q 383 789 481 877 q 285 515 285 701 q 381 238 285 324 q 668 151 477 151 q 920 185 797 151 l 920 23 q 656 -13 798 -13 q 616 -12 629 -13 l 616 -62 q 717 -99 683 -69 q 751 -179 751 -128 q 703 -269 751 -237 q 566 -300 656 -300 q 416 -276 483 -300 l 416 -200 q 558 -225 486 -225 q 626 -213 603 -225 q 649 -174 649 -201 q 626 -134 649 -147 q 558 -122 603 -122 l 522 -122 l 522 -5 q 190 151 304 24 q 76 512 76 278 q 144 802 76 683 q 345 981 213 920 q 666 1041 477 1041 q 920 1012 797 1041 l 920 849 q 680 877 805 877 z "},"Ḉ":{"ha":965,"x_min":76,"x_max":920,"o":"m 839 1317 l 662 1111 l 481 1111 l 628 1317 l 839 1317 m 680 877 q 383 789 481 877 q 285 515 285 701 q 381 238 285 324 q 668 151 477 151 q 920 185 797 151 l 920 23 q 656 -13 798 -13 q 616 -12 629 -13 l 616 -62 q 717 -99 683 -69 q 751 -179 751 -128 q 703 -269 751 -237 q 566 -300 656 -300 q 416 -276 483 -300 l 416 -200 q 558 -225 486 -225 q 626 -213 603 -225 q 649 -174 649 -201 q 626 -134 649 -147 q 558 -122 603 -122 l 522 -122 l 522 -5 q 190 151 304 24 q 76 512 76 278 q 144 802 76 683 q 345 981 213 920 q 666 1041 477 1041 q 920 1012 797 1041 l 920 849 q 680 877 805 877 z "},"Ĉ":{"ha":965,"x_min":76,"x_max":920,"o":"m 656 -13 q 225 116 374 -13 q 76 512 76 244 q 144 802 76 683 q 345 981 213 920 q 666 1041 477 1041 q 920 1012 797 1041 l 920 849 q 680 877 805 877 q 383 789 481 877 q 285 515 285 701 q 381 238 285 324 q 668 151 477 151 q 920 185 797 151 l 920 23 q 656 -13 798 -13 m 872 1111 l 706 1111 l 573 1242 l 440 1111 l 274 1111 l 489 1317 l 657 1317 l 872 1111 z "},"Ċ":{"ha":965,"x_min":76,"x_max":920,"o":"m 656 -13 q 225 116 374 -13 q 76 512 76 244 q 144 802 76 683 q 345 981 213 920 q 666 1041 477 1041 q 920 1012 797 1041 l 920 849 q 680 877 805 877 q 383 789 481 877 q 285 515 285 701 q 381 238 285 324 q 668 151 477 151 q 920 185 797 151 l 920 23 q 656 -13 798 -13 m 573 1128 q 483 1152 513 1128 q 453 1216 453 1175 q 483 1281 453 1257 q 573 1304 513 1304 q 663 1281 633 1304 q 693 1216 693 1257 q 663 1152 693 1175 q 573 1128 633 1128 z "},"D":{"ha":1164,"x_min":118,"x_max":1088,"o":"m 429 -8 q 118 10 265 -8 l 118 1001 q 290 1028 194 1019 q 474 1038 386 1038 q 1088 514 1088 1038 q 1016 217 1088 333 q 798 47 943 102 q 429 -8 652 -8 m 478 151 q 785 239 686 151 q 883 515 883 327 q 784 790 883 701 q 481 878 684 878 q 318 864 406 878 l 318 160 q 478 151 385 151 z "},"Ǳ":{"ha":2081,"x_min":118,"x_max":2027,"o":"m 429 -8 q 118 10 265 -8 l 118 1001 q 290 1028 194 1019 q 474 1038 386 1038 q 1088 514 1088 1038 q 1016 217 1088 333 q 798 47 943 102 q 429 -8 652 -8 m 478 151 q 785 239 686 151 q 883 515 883 327 q 784 790 883 701 q 481 878 684 878 q 318 864 406 878 l 318 160 q 478 151 385 151 m 1438 158 l 2027 158 l 2027 0 l 1178 0 l 1178 108 l 1758 869 l 1185 869 l 1185 1028 l 2019 1028 l 2019 919 l 1438 158 z "},"Ǆ":{"ha":2081,"x_min":118,"x_max":2027,"o":"m 429 -8 q 118 10 265 -8 l 118 1001 q 290 1028 194 1019 q 474 1038 386 1038 q 1088 514 1088 1038 q 1016 217 1088 333 q 798 47 943 102 q 429 -8 652 -8 m 478 151 q 785 239 686 151 q 883 515 883 327 q 784 790 883 701 q 481 878 684 878 q 318 864 406 878 l 318 160 q 478 151 385 151 m 1438 158 l 2027 158 l 2027 0 l 1178 0 l 1178 108 l 1758 869 l 1185 869 l 1185 1028 l 2019 1028 l 2019 919 l 1438 158 m 1736 1317 l 1902 1317 l 1687 1111 l 1519 1111 l 1303 1317 l 1469 1317 l 1603 1186 l 1736 1317 z "},"Ð":{"ha":1164,"x_min":6,"x_max":1088,"o":"m 474 1038 q 1088 514 1088 1038 q 1016 217 1088 333 q 798 47 943 102 q 429 -8 652 -8 q 118 10 265 -8 l 118 467 l 6 467 l 6 591 l 118 591 l 118 1001 q 290 1028 194 1019 q 474 1038 386 1038 m 478 151 q 785 239 686 151 q 883 515 883 327 q 784 790 883 701 q 481 878 684 878 q 318 864 406 878 l 318 591 l 558 591 l 558 467 l 318 467 l 318 160 q 478 151 385 151 z "},"Ď":{"ha":1164,"x_min":118,"x_max":1088,"o":"m 429 -8 q 118 10 265 -8 l 118 1001 q 290 1028 194 1019 q 474 1038 386 1038 q 1088 514 1088 1038 q 1016 217 1088 333 q 798 47 943 102 q 429 -8 652 -8 m 478 151 q 785 239 686 151 q 883 515 883 327 q 784 790 883 701 q 481 878 684 878 q 318 864 406 878 l 318 160 q 478 151 385 151 m 649 1317 l 815 1317 l 600 1111 l 432 1111 l 217 1317 l 383 1317 l 516 1186 l 649 1317 z "},"Đ":{"ha":1164,"x_min":6,"x_max":1088,"o":"m 474 1038 q 1088 514 1088 1038 q 1016 217 1088 333 q 798 47 943 102 q 429 -8 652 -8 q 118 10 265 -8 l 118 467 l 6 467 l 6 591 l 118 591 l 118 1001 q 290 1028 194 1019 q 474 1038 386 1038 m 478 151 q 785 239 686 151 q 883 515 883 327 q 784 790 883 701 q 481 878 684 878 q 318 864 406 878 l 318 591 l 558 591 l 558 467 l 318 467 l 318 160 q 478 151 385 151 z "},"Ḍ":{"ha":1164,"x_min":118,"x_max":1088,"o":"m 429 -8 q 118 10 265 -8 l 118 1001 q 290 1028 194 1019 q 474 1038 386 1038 q 1088 514 1088 1038 q 1016 217 1088 333 q 798 47 943 102 q 429 -8 652 -8 m 478 151 q 785 239 686 151 q 883 515 883 327 q 784 790 883 701 q 481 878 684 878 q 318 864 406 878 l 318 160 q 478 151 385 151 m 524 -273 q 433 -250 463 -273 q 403 -185 403 -226 q 433 -122 403 -145 q 524 -98 463 -98 q 614 -122 584 -98 q 644 -185 644 -145 q 614 -250 644 -226 q 524 -273 584 -273 z "},"Ḏ":{"ha":1164,"x_min":118,"x_max":1088,"o":"m 429 -8 q 118 10 265 -8 l 118 1001 q 290 1028 194 1019 q 474 1038 386 1038 q 1088 514 1088 1038 q 1016 217 1088 333 q 798 47 943 102 q 429 -8 652 -8 m 478 151 q 785 239 686 151 q 883 515 883 327 q 784 790 883 701 q 481 878 684 878 q 318 864 406 878 l 318 160 q 478 151 385 151 m 261 -239 l 261 -126 l 786 -126 l 786 -239 l 261 -239 z "},"ǲ":{"ha":1958,"x_min":118,"x_max":1911,"o":"m 429 -8 q 118 10 265 -8 l 118 1001 q 290 1028 194 1019 q 474 1038 386 1038 q 1088 514 1088 1038 q 1016 217 1088 333 q 798 47 943 102 q 429 -8 652 -8 m 478 151 q 785 239 686 151 q 883 515 883 327 q 784 790 883 701 q 481 878 684 878 q 318 864 406 878 l 318 160 q 478 151 385 151 m 1482 156 l 1911 156 l 1911 0 l 1220 0 l 1220 126 l 1642 602 l 1228 602 l 1228 758 l 1903 758 l 1903 632 l 1482 156 z "},"ǅ":{"ha":1958,"x_min":118,"x_max":1911,"o":"m 429 -8 q 118 10 265 -8 l 118 1001 q 290 1028 194 1019 q 474 1038 386 1038 q 1088 514 1088 1038 q 1016 217 1088 333 q 798 47 943 102 q 429 -8 652 -8 m 478 151 q 785 239 686 151 q 883 515 883 327 q 784 790 883 701 q 481 878 684 878 q 318 864 406 878 l 318 160 q 478 151 385 151 m 1482 156 l 1911 156 l 1911 0 l 1220 0 l 1220 126 l 1642 602 l 1228 602 l 1228 758 l 1903 758 l 1903 632 l 1482 156 m 1699 1094 l 1865 1094 l 1650 889 l 1482 889 l 1267 1094 l 1433 1094 l 1566 964 l 1699 1094 z "},"E":{"ha":972,"x_min":118,"x_max":906,"o":"m 316 152 l 906 152 l 906 0 l 118 0 l 118 1028 l 899 1028 l 899 876 l 316 876 l 316 602 l 826 602 l 826 450 l 316 450 l 316 152 z "},"É":{"ha":972,"x_min":118,"x_max":906,"o":"m 316 152 l 906 152 l 906 0 l 118 0 l 118 1028 l 899 1028 l 899 876 l 316 876 l 316 602 l 826 602 l 826 450 l 316 450 l 316 152 m 431 1111 l 578 1317 l 789 1317 l 612 1111 l 431 1111 z "},"Ĕ":{"ha":972,"x_min":118,"x_max":906,"o":"m 316 152 l 906 152 l 906 0 l 118 0 l 118 1028 l 899 1028 l 899 876 l 316 876 l 316 602 l 826 602 l 826 450 l 316 450 l 316 152 m 524 1115 q 322 1168 392 1115 q 238 1308 251 1221 l 360 1308 q 524 1212 382 1212 q 637 1237 599 1212 q 685 1308 675 1263 l 808 1308 q 725 1168 794 1221 q 524 1115 655 1115 z "},"Ě":{"ha":972,"x_min":118,"x_max":906,"o":"m 316 152 l 906 152 l 906 0 l 118 0 l 118 1028 l 899 1028 l 899 876 l 316 876 l 316 602 l 826 602 l 826 450 l 316 450 l 316 152 m 656 1317 l 822 1317 l 607 1111 l 439 1111 l 224 1317 l 390 1317 l 523 1186 l 656 1317 z "},"Ḝ":{"ha":972,"x_min":118,"x_max":906,"o":"m 524 1115 q 322 1168 392 1115 q 238 1308 251 1221 l 360 1308 q 524 1212 382 1212 q 637 1237 599 1212 q 685 1308 675 1263 l 808 1308 q 725 1168 794 1221 q 524 1115 655 1115 m 561 0 l 561 -62 q 662 -99 628 -69 q 696 -179 696 -128 q 648 -269 696 -237 q 511 -300 601 -300 q 361 -276 428 -300 l 361 -200 q 503 -225 431 -225 q 571 -213 548 -225 q 594 -174 594 -201 q 571 -134 594 -147 q 503 -122 549 -122 l 467 -122 l 467 0 l 118 0 l 118 1028 l 899 1028 l 899 876 l 316 876 l 316 602 l 826 602 l 826 450 l 316 450 l 316 152 l 906 152 l 906 0 l 561 0 z "},"Ê":{"ha":972,"x_min":118,"x_max":906,"o":"m 316 152 l 906 152 l 906 0 l 118 0 l 118 1028 l 899 1028 l 899 876 l 316 876 l 316 602 l 826 602 l 826 450 l 316 450 l 316 152 m 822 1111 l 656 1111 l 523 1242 l 390 1111 l 224 1111 l 439 1317 l 607 1317 l 822 1111 z "},"Ế":{"ha":972,"x_min":118,"x_max":967,"o":"m 316 152 l 906 152 l 906 0 l 118 0 l 118 1028 l 899 1028 l 899 876 l 316 876 l 316 602 l 826 602 l 826 450 l 316 450 l 316 152 m 822 1433 l 967 1433 l 831 1258 l 711 1258 l 822 1433 m 439 1300 l 607 1300 l 822 1111 l 656 1111 l 523 1233 l 390 1111 l 224 1111 l 439 1300 z "},"Ệ":{"ha":972,"x_min":118,"x_max":906,"o":"m 316 152 l 906 152 l 906 0 l 118 0 l 118 1028 l 899 1028 l 899 876 l 316 876 l 316 602 l 826 602 l 826 450 l 316 450 l 316 152 m 524 -273 q 434 -250 464 -273 q 404 -185 404 -226 q 434 -122 404 -145 q 524 -98 464 -98 q 615 -122 585 -98 q 644 -185 644 -145 q 615 -250 644 -226 q 524 -273 585 -273 m 822 1111 l 656 1111 l 523 1242 l 390 1111 l 224 1111 l 439 1317 l 607 1317 l 822 1111 z "},"Ề":{"ha":972,"x_min":118,"x_max":906,"o":"m 316 152 l 906 152 l 906 0 l 118 0 l 118 1028 l 899 1028 l 899 876 l 316 876 l 316 602 l 826 602 l 826 450 l 316 450 l 316 152 m 853 1258 l 732 1258 l 596 1433 l 742 1433 l 853 1258 m 439 1300 l 607 1300 l 822 1111 l 656 1111 l 523 1233 l 390 1111 l 224 1111 l 439 1300 z "},"Ể":{"ha":972,"x_min":118,"x_max":941,"o":"m 316 152 l 906 152 l 906 0 l 118 0 l 118 1028 l 899 1028 l 899 876 l 316 876 l 316 602 l 826 602 l 826 450 l 316 450 l 316 152 m 766 1456 q 898 1434 855 1456 q 941 1374 941 1413 q 930 1340 941 1354 q 905 1318 919 1326 q 865 1298 890 1309 q 826 1278 839 1286 q 813 1258 814 1269 l 710 1258 q 732 1299 712 1284 q 789 1327 753 1314 q 826 1345 815 1338 q 838 1364 838 1352 q 753 1390 838 1390 q 681 1386 715 1390 q 607 1372 648 1382 l 607 1437 q 682 1451 640 1446 q 766 1456 724 1456 m 439 1300 l 607 1300 l 822 1111 l 656 1111 l 523 1233 l 390 1111 l 224 1111 l 439 1300 z "},"Ễ":{"ha":972,"x_min":118,"x_max":906,"o":"m 316 152 l 906 152 l 906 0 l 118 0 l 118 1028 l 899 1028 l 899 876 l 316 876 l 316 602 l 826 602 l 826 450 l 316 450 l 316 152 m 659 1411 q 739 1422 701 1411 q 822 1458 776 1433 l 822 1373 q 745 1340 783 1349 q 658 1331 706 1331 q 587 1337 620 1331 q 507 1355 553 1343 q 441 1370 467 1365 q 387 1375 414 1375 q 307 1364 344 1375 q 224 1328 269 1353 l 224 1413 q 301 1447 263 1438 q 388 1456 340 1456 q 459 1450 426 1456 q 539 1432 492 1444 q 604 1416 576 1422 q 659 1411 632 1411 m 439 1300 l 607 1300 l 822 1111 l 656 1111 l 523 1233 l 390 1111 l 224 1111 l 439 1300 z "},"Ȅ":{"ha":972,"x_min":118,"x_max":906,"o":"m 316 152 l 906 152 l 906 0 l 118 0 l 118 1028 l 899 1028 l 899 876 l 316 876 l 316 602 l 826 602 l 826 450 l 316 450 l 316 152 m 309 1111 l 186 1317 l 340 1317 l 452 1111 l 309 1111 m 594 1111 l 471 1317 l 624 1317 l 737 1111 l 594 1111 z "},"Ë":{"ha":972,"x_min":118,"x_max":906,"o":"m 316 152 l 906 152 l 906 0 l 118 0 l 118 1028 l 899 1028 l 899 876 l 316 876 l 316 602 l 826 602 l 826 450 l 316 450 l 316 152 m 329 1128 q 250 1151 276 1128 q 224 1216 224 1174 q 250 1281 224 1258 q 329 1304 276 1304 q 408 1281 381 1304 q 434 1216 434 1258 q 408 1151 434 1174 q 329 1128 382 1128 m 717 1128 q 638 1151 664 1128 q 612 1216 612 1174 q 638 1281 612 1258 q 717 1304 665 1304 q 796 1281 769 1304 q 822 1216 822 1258 q 796 1151 822 1174 q 717 1128 769 1128 z "},"Ė":{"ha":972,"x_min":118,"x_max":906,"o":"m 316 152 l 906 152 l 906 0 l 118 0 l 118 1028 l 899 1028 l 899 876 l 316 876 l 316 602 l 826 602 l 826 450 l 316 450 l 316 152 m 523 1128 q 433 1152 463 1128 q 403 1216 403 1175 q 433 1281 403 1257 q 523 1304 463 1304 q 613 1281 583 1304 q 643 1216 643 1257 q 613 1152 643 1175 q 523 1128 583 1128 z "},"Ẹ":{"ha":972,"x_min":118,"x_max":906,"o":"m 316 152 l 906 152 l 906 0 l 118 0 l 118 1028 l 899 1028 l 899 876 l 316 876 l 316 602 l 826 602 l 826 450 l 316 450 l 316 152 m 524 -273 q 434 -250 464 -273 q 404 -185 404 -226 q 434 -122 404 -145 q 524 -98 464 -98 q 615 -122 585 -98 q 644 -185 644 -145 q 615 -250 644 -226 q 524 -273 585 -273 z "},"È":{"ha":972,"x_min":118,"x_max":906,"o":"m 316 152 l 906 152 l 906 0 l 118 0 l 118 1028 l 899 1028 l 899 876 l 316 876 l 316 602 l 826 602 l 826 450 l 316 450 l 316 152 m 433 1111 l 256 1317 l 466 1317 l 613 1111 l 433 1111 z "},"Ẻ":{"ha":972,"x_min":118,"x_max":906,"o":"m 316 152 l 906 152 l 906 0 l 118 0 l 118 1028 l 899 1028 l 899 876 l 316 876 l 316 602 l 826 602 l 826 450 l 316 450 l 316 152 m 472 1111 q 493 1155 473 1139 q 550 1186 513 1170 q 588 1205 576 1197 q 599 1225 599 1213 q 515 1253 599 1253 q 442 1248 476 1253 q 368 1233 409 1244 l 368 1307 q 443 1322 401 1317 q 527 1327 485 1327 q 659 1303 616 1327 q 702 1237 702 1280 q 691 1200 702 1215 q 666 1176 681 1185 q 626 1154 651 1166 q 588 1133 600 1142 q 574 1111 575 1124 l 472 1111 z "},"Ȇ":{"ha":972,"x_min":118,"x_max":906,"o":"m 316 152 l 906 152 l 906 0 l 118 0 l 118 1028 l 899 1028 l 899 876 l 316 876 l 316 602 l 826 602 l 826 450 l 316 450 l 316 152 m 238 1120 q 321 1260 251 1207 q 522 1313 391 1313 q 724 1259 653 1313 q 808 1120 794 1206 l 685 1120 q 522 1215 664 1215 q 409 1190 447 1215 q 360 1120 371 1165 l 238 1120 z "},"Ē":{"ha":972,"x_min":118,"x_max":906,"o":"m 316 152 l 906 152 l 906 0 l 118 0 l 118 1028 l 899 1028 l 899 876 l 316 876 l 316 602 l 826 602 l 826 450 l 316 450 l 316 152 m 260 1158 l 260 1271 l 785 1271 l 785 1158 l 260 1158 z "},"Ḗ":{"ha":972,"x_min":118,"x_max":906,"o":"m 316 152 l 906 152 l 906 0 l 118 0 l 118 1028 l 899 1028 l 899 876 l 316 876 l 316 602 l 826 602 l 826 450 l 316 450 l 316 152 m 422 1347 l 568 1508 l 802 1508 l 625 1347 l 422 1347 m 260 1158 l 260 1271 l 785 1271 l 785 1158 l 260 1158 z "},"Ḕ":{"ha":972,"x_min":118,"x_max":906,"o":"m 316 152 l 906 152 l 906 0 l 118 0 l 118 1028 l 899 1028 l 899 876 l 316 876 l 316 602 l 826 602 l 826 450 l 316 450 l 316 152 m 422 1347 l 244 1508 l 477 1508 l 624 1347 l 422 1347 m 260 1158 l 260 1271 l 785 1271 l 785 1158 l 260 1158 z "},"Ę":{"ha":972,"x_min":118,"x_max":906,"o":"m 842 0 q 717 -69 753 -35 q 681 -147 681 -104 q 708 -202 681 -182 q 788 -222 735 -222 q 838 -216 812 -222 q 899 -199 864 -211 l 899 -276 q 763 -300 835 -300 q 617 -263 667 -300 q 567 -161 567 -226 q 594 -73 567 -113 q 682 0 621 -33 l 118 0 l 118 1028 l 899 1028 l 899 876 l 316 876 l 316 602 l 826 602 l 826 450 l 316 450 l 316 152 l 906 152 l 906 0 l 842 0 z "},"Ẽ":{"ha":972,"x_min":118,"x_max":906,"o":"m 316 152 l 906 152 l 906 0 l 118 0 l 118 1028 l 899 1028 l 899 876 l 316 876 l 316 602 l 826 602 l 826 450 l 316 450 l 316 152 m 649 1137 q 586 1143 615 1137 q 512 1163 557 1149 q 448 1181 474 1175 q 393 1188 421 1188 q 316 1177 349 1188 q 249 1142 283 1166 l 249 1250 q 313 1286 278 1275 q 397 1298 348 1298 q 461 1291 432 1298 q 534 1271 491 1284 q 598 1253 572 1259 q 653 1247 625 1247 q 730 1258 697 1247 q 797 1293 763 1269 l 797 1184 q 733 1148 768 1160 q 649 1137 697 1137 z "},"F":{"ha":949,"x_min":118,"x_max":895,"o":"m 895 872 l 318 872 l 318 586 l 821 586 l 821 430 l 318 430 l 318 0 l 118 0 l 118 1028 l 895 1028 l 895 872 z "},"G":{"ha":1107,"x_min":76,"x_max":991,"o":"m 991 500 l 991 14 q 845 -5 913 1 q 706 -10 777 -10 q 234 120 391 -10 q 76 510 76 251 q 149 801 76 683 q 361 981 222 920 q 698 1041 500 1041 q 956 1012 825 1041 l 956 849 q 713 877 837 877 q 392 787 499 876 q 284 510 284 698 q 695 151 284 151 q 803 156 751 151 l 803 500 l 991 500 z "},"Ǵ":{"ha":1107,"x_min":76,"x_max":991,"o":"m 991 500 l 991 14 q 845 -5 913 1 q 706 -10 777 -10 q 234 120 391 -10 q 76 510 76 251 q 149 801 76 683 q 361 981 222 920 q 698 1041 500 1041 q 956 1012 825 1041 l 956 849 q 713 877 837 877 q 392 787 499 876 q 284 510 284 698 q 695 151 284 151 q 803 156 751 151 l 803 500 l 991 500 m 517 1111 l 664 1317 l 874 1317 l 697 1111 l 517 1111 z "},"Ğ":{"ha":1107,"x_min":76,"x_max":991,"o":"m 991 500 l 991 14 q 845 -5 913 1 q 706 -10 777 -10 q 234 120 391 -10 q 76 510 76 251 q 149 801 76 683 q 361 981 222 920 q 698 1041 500 1041 q 956 1012 825 1041 l 956 849 q 713 877 837 877 q 392 787 499 876 q 284 510 284 698 q 695 151 284 151 q 803 156 751 151 l 803 500 l 991 500 m 609 1115 q 407 1168 478 1115 q 324 1308 337 1221 l 446 1308 q 609 1212 467 1212 q 723 1237 685 1212 q 771 1308 760 1263 l 893 1308 q 810 1168 880 1221 q 609 1115 740 1115 z "},"Ǧ":{"ha":1107,"x_min":76,"x_max":991,"o":"m 991 500 l 991 14 q 845 -5 913 1 q 706 -10 777 -10 q 234 120 391 -10 q 76 510 76 251 q 149 801 76 683 q 361 981 222 920 q 698 1041 500 1041 q 956 1012 825 1041 l 956 849 q 713 877 837 877 q 392 787 499 876 q 284 510 284 698 q 695 151 284 151 q 803 156 751 151 l 803 500 l 991 500 m 742 1317 l 908 1317 l 692 1111 l 524 1111 l 309 1317 l 475 1317 l 608 1186 l 742 1317 z "},"Ĝ":{"ha":1107,"x_min":76,"x_max":991,"o":"m 991 500 l 991 14 q 845 -5 913 1 q 706 -10 777 -10 q 234 120 391 -10 q 76 510 76 251 q 149 801 76 683 q 361 981 222 920 q 698 1041 500 1041 q 956 1012 825 1041 l 956 849 q 713 877 837 877 q 392 787 499 876 q 284 510 284 698 q 695 151 284 151 q 803 156 751 151 l 803 500 l 991 500 m 908 1111 l 742 1111 l 608 1242 l 475 1111 l 309 1111 l 524 1317 l 692 1317 l 908 1111 z "},"Ģ":{"ha":1107,"x_min":76,"x_max":991,"o":"m 991 500 l 991 14 q 845 -5 913 1 q 706 -10 777 -10 q 234 120 391 -10 q 76 510 76 251 q 149 801 76 683 q 361 981 222 920 q 698 1041 500 1041 q 956 1012 825 1041 l 956 849 q 713 877 837 877 q 392 787 499 876 q 284 510 284 698 q 695 151 284 151 q 803 156 751 151 l 803 500 l 991 500 m 607 -98 q 722 -192 722 -98 q 708 -267 722 -227 q 671 -338 694 -307 l 552 -338 q 587 -239 581 -281 q 495 -169 495 -232 q 523 -116 495 -135 q 607 -98 551 -98 z "},"Ġ":{"ha":1107,"x_min":76,"x_max":991,"o":"m 991 500 l 991 14 q 845 -5 913 1 q 706 -10 777 -10 q 234 120 391 -10 q 76 510 76 251 q 149 801 76 683 q 361 981 222 920 q 698 1041 500 1041 q 956 1012 825 1041 l 956 849 q 713 877 837 877 q 392 787 499 876 q 284 510 284 698 q 695 151 284 151 q 803 156 751 151 l 803 500 l 991 500 m 608 1128 q 518 1152 548 1128 q 488 1216 488 1175 q 518 1281 488 1257 q 608 1304 548 1304 q 699 1281 669 1304 q 728 1216 728 1257 q 699 1152 728 1175 q 608 1128 669 1128 z "},"Ḡ":{"ha":1107,"x_min":76,"x_max":991,"o":"m 991 500 l 991 14 q 845 -5 913 1 q 706 -10 777 -10 q 234 120 391 -10 q 76 510 76 251 q 149 801 76 683 q 361 981 222 920 q 698 1041 500 1041 q 956 1012 825 1041 l 956 849 q 713 877 837 877 q 392 787 499 876 q 284 510 284 698 q 695 151 284 151 q 803 156 751 151 l 803 500 l 991 500 m 346 1158 l 346 1271 l 871 1271 l 871 1158 l 346 1158 z "},"H":{"ha":1176,"x_min":118,"x_max":1058,"o":"m 118 0 l 118 1028 l 318 1028 l 318 613 l 858 613 l 858 1028 l 1058 1028 l 1058 0 l 858 0 l 858 440 l 318 440 l 318 0 l 118 0 z "},"Ħ":{"ha":1176,"x_min":6,"x_max":1171,"o":"m 1171 884 l 1171 760 l 1058 760 l 1058 0 l 858 0 l 858 440 l 318 440 l 318 0 l 118 0 l 118 760 l 6 760 l 6 884 l 118 884 l 118 1028 l 318 1028 l 318 884 l 858 884 l 858 1028 l 1058 1028 l 1058 884 l 1171 884 m 858 613 l 858 760 l 318 760 l 318 613 l 858 613 z "},"Ḫ":{"ha":1176,"x_min":118,"x_max":1058,"o":"m 118 0 l 118 1028 l 318 1028 l 318 613 l 858 613 l 858 1028 l 1058 1028 l 1058 0 l 858 0 l 858 440 l 318 440 l 318 0 l 118 0 m 589 -297 q 384 -243 455 -297 q 303 -102 314 -190 l 426 -102 q 589 -200 442 -200 q 751 -102 734 -200 l 873 -102 q 793 -244 863 -190 q 589 -297 723 -297 z "},"Ĥ":{"ha":1176,"x_min":118,"x_max":1058,"o":"m 118 0 l 118 1028 l 318 1028 l 318 613 l 858 613 l 858 1028 l 1058 1028 l 1058 0 l 858 0 l 858 440 l 318 440 l 318 0 l 118 0 m 888 1111 l 722 1111 l 588 1242 l 455 1111 l 289 1111 l 504 1317 l 672 1317 l 888 1111 z "},"Ḥ":{"ha":1176,"x_min":118,"x_max":1058,"o":"m 118 0 l 118 1028 l 318 1028 l 318 613 l 858 613 l 858 1028 l 1058 1028 l 1058 0 l 858 0 l 858 440 l 318 440 l 318 0 l 118 0 m 588 -273 q 498 -250 528 -273 q 468 -185 468 -226 q 498 -122 468 -145 q 588 -98 528 -98 q 678 -122 649 -98 q 708 -185 708 -145 q 678 -250 708 -226 q 588 -273 649 -273 z "},"I":{"ha":436,"x_min":118,"x_max":318,"o":"m 118 0 l 118 1028 l 318 1028 l 318 0 l 118 0 z "},"Í":{"ha":436,"x_min":118,"x_max":484,"o":"m 118 0 l 118 1028 l 318 1028 l 318 0 l 118 0 m 126 1111 l 274 1317 l 484 1317 l 307 1111 l 126 1111 z "},"Ĭ":{"ha":436,"x_min":-67,"x_max":503,"o":"m 118 0 l 118 1028 l 318 1028 l 318 0 l 118 0 m 219 1115 q 17 1168 88 1115 q -67 1308 -53 1221 l 56 1308 q 219 1212 77 1212 q 332 1237 294 1212 q 381 1308 370 1263 l 503 1308 q 420 1168 490 1221 q 219 1115 350 1115 z "},"Î":{"ha":436,"x_min":-81,"x_max":517,"o":"m 118 0 l 118 1028 l 318 1028 l 318 0 l 118 0 m 517 1111 l 351 1111 l 218 1242 l 85 1111 l -81 1111 l 134 1317 l 302 1317 l 517 1111 z "},"Ȉ":{"ha":436,"x_min":-119,"x_max":432,"o":"m 118 0 l 118 1028 l 318 1028 l 318 0 l 118 0 m 4 1111 l -119 1317 l 35 1317 l 147 1111 l 4 1111 m 289 1111 l 166 1317 l 319 1317 l 432 1111 l 289 1111 z "},"Ï":{"ha":436,"x_min":-81,"x_max":517,"o":"m 118 0 l 118 1028 l 318 1028 l 318 0 l 118 0 m 24 1128 q -55 1151 -28 1128 q -81 1216 -81 1174 q -55 1281 -81 1258 q 24 1304 -28 1304 q 103 1281 76 1304 q 129 1216 129 1258 q 103 1151 129 1174 q 24 1128 77 1128 m 412 1128 q 333 1151 359 1128 q 307 1216 307 1174 q 333 1281 307 1258 q 412 1304 360 1304 q 491 1281 465 1304 q 517 1216 517 1258 q 491 1151 517 1174 q 412 1128 465 1128 z "},"Ḯ":{"ha":436,"x_min":-81,"x_max":517,"o":"m 118 0 l 118 1028 l 318 1028 l 318 0 l 118 0 m 117 1347 l 263 1508 l 497 1508 l 320 1347 l 117 1347 m 24 1128 q -55 1151 -28 1128 q -81 1216 -81 1174 q -55 1281 -81 1258 q 24 1304 -28 1304 q 103 1281 76 1304 q 129 1216 129 1258 q 103 1151 129 1174 q 24 1128 77 1128 m 412 1128 q 333 1151 359 1128 q 307 1216 307 1174 q 333 1281 307 1258 q 412 1304 360 1304 q 491 1281 465 1304 q 517 1216 517 1258 q 491 1151 517 1174 q 412 1128 465 1128 z "},"İ":{"ha":436,"x_min":98,"x_max":338,"o":"m 118 0 l 118 1028 l 318 1028 l 318 0 l 118 0 m 218 1128 q 128 1152 158 1128 q 98 1216 98 1175 q 128 1281 98 1257 q 218 1304 158 1304 q 308 1281 278 1304 q 338 1216 338 1257 q 308 1152 338 1175 q 218 1128 278 1128 z "},"Ị":{"ha":436,"x_min":97,"x_max":338,"o":"m 118 0 l 118 1028 l 318 1028 l 318 0 l 118 0 m 217 -273 q 127 -250 157 -273 q 97 -185 97 -226 q 127 -122 97 -145 q 217 -98 157 -98 q 308 -122 278 -98 q 338 -185 338 -145 q 308 -250 338 -226 q 217 -273 278 -273 z "},"Ì":{"ha":436,"x_min":-49,"x_max":318,"o":"m 118 0 l 118 1028 l 318 1028 l 318 0 l 118 0 m 128 1111 l -49 1317 l 161 1317 l 308 1111 l 128 1111 z "},"Ỉ":{"ha":436,"x_min":63,"x_max":397,"o":"m 118 0 l 118 1028 l 318 1028 l 318 0 l 118 0 m 167 1111 q 188 1155 168 1139 q 245 1186 208 1170 q 283 1205 271 1197 q 294 1225 294 1213 q 210 1253 294 1253 q 138 1248 171 1253 q 63 1233 104 1244 l 63 1307 q 138 1322 96 1317 q 222 1327 180 1327 q 354 1303 311 1327 q 397 1237 397 1280 q 386 1200 397 1215 q 361 1176 376 1185 q 321 1154 346 1166 q 283 1133 295 1142 q 269 1111 270 1124 l 167 1111 z "},"Ȋ":{"ha":436,"x_min":-67,"x_max":503,"o":"m 118 0 l 118 1028 l 318 1028 l 318 0 l 118 0 m -67 1120 q 16 1260 -53 1207 q 217 1313 86 1313 q 419 1259 349 1313 q 503 1120 490 1206 l 381 1120 q 217 1215 359 1215 q 104 1190 142 1215 q 56 1120 66 1165 l -67 1120 z "},"Ī":{"ha":436,"x_min":-44,"x_max":481,"o":"m 118 0 l 118 1028 l 318 1028 l 318 0 l 118 0 m -44 1158 l -44 1271 l 481 1271 l 481 1158 l -44 1158 z "},"Į":{"ha":436,"x_min":43,"x_max":374,"o":"m 264 -222 q 314 -216 288 -222 q 374 -199 340 -211 l 374 -276 q 238 -300 311 -300 q 93 -263 142 -300 q 43 -161 43 -226 q 70 -73 43 -113 q 158 0 97 -33 l 118 0 l 118 1028 l 318 1028 l 318 0 q 193 -69 229 -35 q 157 -147 157 -104 q 184 -202 157 -182 q 264 -222 211 -222 z "},"Ĩ":{"ha":436,"x_min":-56,"x_max":492,"o":"m 118 0 l 118 1028 l 318 1028 l 318 0 l 118 0 m 344 1137 q 281 1143 310 1137 q 207 1163 252 1149 q 143 1181 169 1175 q 88 1188 116 1188 q 11 1177 44 1188 q -56 1142 -22 1166 l -56 1250 q 8 1286 -27 1275 q 92 1298 43 1298 q 157 1291 127 1298 q 229 1271 186 1284 q 293 1253 267 1259 q 348 1247 320 1247 q 425 1258 392 1247 q 492 1293 458 1269 l 492 1184 q 428 1148 463 1160 q 344 1137 392 1137 z "},"J":{"ha":436,"x_min":-3,"x_max":318,"o":"m -3 -158 q 91 6 63 -79 q 119 205 119 91 l 119 1028 l 318 1028 l 318 199 q 270 -35 315 69 q 122 -243 226 -139 l -3 -158 z "},"Ĵ":{"ha":436,"x_min":-81,"x_max":518,"o":"m -3 -158 q 91 6 63 -79 q 119 205 119 91 l 119 1028 l 318 1028 l 318 199 q 270 -35 315 69 q 122 -243 226 -139 l -3 -158 m 518 1111 l 352 1111 l 219 1242 l 85 1111 l -81 1111 l 135 1317 l 303 1317 l 518 1111 z "},"K":{"ha":1003,"x_min":118,"x_max":1017,"o":"m 795 0 l 459 440 l 318 440 l 318 0 l 118 0 l 118 1028 l 318 1028 l 318 613 l 460 613 l 771 1028 l 985 1028 l 613 531 l 1017 0 l 795 0 z "},"Ķ":{"ha":1003,"x_min":118,"x_max":1017,"o":"m 795 0 l 459 440 l 318 440 l 318 0 l 118 0 l 118 1028 l 318 1028 l 318 613 l 460 613 l 771 1028 l 985 1028 l 613 531 l 1017 0 l 795 0 m 521 -98 q 635 -192 635 -98 q 622 -267 635 -227 q 585 -338 608 -307 l 466 -338 q 501 -239 494 -281 q 409 -169 409 -232 q 437 -116 409 -135 q 521 -98 465 -98 z "},"L":{"ha":883,"x_min":118,"x_max":871,"o":"m 118 0 l 118 1028 l 318 1028 l 318 159 l 871 159 l 871 0 l 118 0 z "},"Ǉ":{"ha":1319,"x_min":118,"x_max":1201,"o":"m 118 0 l 118 1028 l 318 1028 l 318 159 l 871 159 l 871 0 l 118 0 m 879 -158 q 974 6 945 -79 q 1002 205 1002 91 l 1002 1028 l 1201 1028 l 1201 199 q 1153 -35 1197 69 q 1004 -243 1108 -139 l 879 -158 z "},"Ĺ":{"ha":883,"x_min":118,"x_max":871,"o":"m 118 0 l 118 1028 l 318 1028 l 318 159 l 871 159 l 871 0 l 118 0 m 126 1111 l 274 1317 l 484 1317 l 307 1111 l 126 1111 z "},"Ľ":{"ha":883,"x_min":118,"x_max":871,"o":"m 118 0 l 118 1028 l 318 1028 l 318 159 l 871 159 l 871 0 l 118 0 m 567 792 q 581 941 577 865 q 585 1122 585 1018 l 715 1122 q 672 792 715 932 l 567 792 z "},"Ļ":{"ha":883,"x_min":118,"x_max":871,"o":"m 118 0 l 118 1028 l 318 1028 l 318 159 l 871 159 l 871 0 l 118 0 m 493 -98 q 608 -192 608 -98 q 594 -267 608 -227 q 557 -338 581 -307 l 438 -338 q 473 -239 467 -281 q 381 -169 381 -232 q 409 -116 381 -135 q 493 -98 437 -98 z "},"Ŀ":{"ha":883,"x_min":118,"x_max":871,"o":"m 118 0 l 118 1028 l 318 1028 l 318 159 l 871 159 l 871 0 l 118 0 m 649 496 q 557 521 588 496 q 526 595 526 547 q 557 669 526 644 q 649 695 588 695 q 741 669 710 695 q 772 595 772 644 q 741 521 772 547 q 649 496 710 496 z "},"Ḷ":{"ha":883,"x_min":118,"x_max":871,"o":"m 118 0 l 118 1028 l 318 1028 l 318 159 l 871 159 l 871 0 l 118 0 m 494 -273 q 404 -250 434 -273 q 374 -185 374 -226 q 404 -122 374 -145 q 494 -98 434 -98 q 585 -122 555 -98 q 615 -185 615 -145 q 585 -250 615 -226 q 494 -273 555 -273 z "},"ǈ":{"ha":1291,"x_min":118,"x_max":1206,"o":"m 118 0 l 118 1028 l 318 1028 l 318 159 l 871 159 l 871 0 l 118 0 m 866 -242 q 960 -78 932 -163 q 989 121 989 7 l 989 758 l 1185 758 l 1185 128 q 1139 -112 1185 -4 q 990 -326 1094 -220 l 866 -242 m 1083 891 q 991 916 1022 891 q 960 990 960 942 q 991 1065 960 1039 q 1083 1090 1022 1090 q 1175 1065 1144 1090 q 1206 990 1206 1039 q 1175 916 1206 942 q 1083 891 1144 891 z "},"Ḻ":{"ha":883,"x_min":118,"x_max":871,"o":"m 118 0 l 118 1028 l 318 1028 l 318 159 l 871 159 l 871 0 l 118 0 m 232 -239 l 232 -126 l 757 -126 l 757 -239 l 232 -239 z "},"Ł":{"ha":883,"x_min":-22,"x_max":871,"o":"m 318 159 l 871 159 l 871 0 l 118 0 l 118 436 l 36 388 l -22 497 l 118 579 l 118 1028 l 318 1028 l 318 695 l 529 818 l 588 709 l 318 552 l 318 159 z "},"M":{"ha":1413,"x_min":121,"x_max":1292,"o":"m 1052 1028 l 1292 1028 l 1292 0 l 1105 0 l 1105 774 l 792 147 l 621 147 l 308 758 l 308 0 l 121 0 l 121 1028 l 361 1028 l 710 335 l 1052 1028 z "},"Ṃ":{"ha":1413,"x_min":121,"x_max":1292,"o":"m 1052 1028 l 1292 1028 l 1292 0 l 1105 0 l 1105 774 l 792 147 l 621 147 l 308 758 l 308 0 l 121 0 l 121 1028 l 361 1028 l 710 335 l 1052 1028 m 719 -273 q 628 -250 658 -273 q 599 -185 599 -226 q 628 -122 599 -145 q 719 -98 658 -98 q 809 -122 779 -98 q 839 -185 839 -145 q 809 -250 839 -226 q 719 -273 779 -273 z "},"N":{"ha":1190,"x_min":118,"x_max":1072,"o":"m 883 1028 l 1072 1028 l 1072 0 l 869 0 l 307 753 l 307 0 l 118 0 l 118 1028 l 320 1028 l 883 274 l 883 1028 z "},"Ǌ":{"ha":1626,"x_min":118,"x_max":1508,"o":"m 883 1028 l 1072 1028 l 1072 0 l 869 0 l 307 753 l 307 0 l 118 0 l 118 1028 l 320 1028 l 883 274 l 883 1028 m 1186 -158 q 1281 6 1252 -79 q 1309 205 1309 91 l 1309 1028 l 1508 1028 l 1508 199 q 1460 -35 1504 69 q 1311 -243 1415 -139 l 1186 -158 z "},"Ń":{"ha":1190,"x_min":118,"x_max":1072,"o":"m 883 1028 l 1072 1028 l 1072 0 l 869 0 l 307 753 l 307 0 l 118 0 l 118 1028 l 320 1028 l 883 274 l 883 1028 m 503 1111 l 651 1317 l 861 1317 l 684 1111 l 503 1111 z "},"Ň":{"ha":1190,"x_min":118,"x_max":1072,"o":"m 883 1028 l 1072 1028 l 1072 0 l 869 0 l 307 753 l 307 0 l 118 0 l 118 1028 l 320 1028 l 883 274 l 883 1028 m 728 1317 l 894 1317 l 679 1111 l 511 1111 l 296 1317 l 462 1317 l 595 1186 l 728 1317 z "},"Ņ":{"ha":1190,"x_min":118,"x_max":1072,"o":"m 883 1028 l 1072 1028 l 1072 0 l 869 0 l 307 753 l 307 0 l 118 0 l 118 1028 l 320 1028 l 883 274 l 883 1028 m 594 -98 q 708 -192 708 -98 q 695 -267 708 -227 q 658 -338 681 -307 l 539 -338 q 574 -239 567 -281 q 482 -169 482 -232 q 510 -116 482 -135 q 594 -98 538 -98 z "},"Ṅ":{"ha":1190,"x_min":118,"x_max":1072,"o":"m 883 1028 l 1072 1028 l 1072 0 l 869 0 l 307 753 l 307 0 l 118 0 l 118 1028 l 320 1028 l 883 274 l 883 1028 m 595 1128 q 505 1152 535 1128 q 475 1216 475 1175 q 505 1281 475 1257 q 595 1304 535 1304 q 685 1281 656 1304 q 715 1216 715 1257 q 685 1152 715 1175 q 595 1128 656 1128 z "},"Ṇ":{"ha":1190,"x_min":118,"x_max":1072,"o":"m 883 1028 l 1072 1028 l 1072 0 l 869 0 l 307 753 l 307 0 l 118 0 l 118 1028 l 320 1028 l 883 274 l 883 1028 m 595 -273 q 505 -250 535 -273 q 475 -185 475 -226 q 505 -122 475 -145 q 595 -98 535 -98 q 685 -122 656 -98 q 715 -185 715 -145 q 685 -250 715 -226 q 595 -273 656 -273 z "},"Ŋ":{"ha":1190,"x_min":118,"x_max":1072,"o":"m 1072 1028 l 1072 143 q 1027 -110 1072 0 q 877 -326 982 -219 l 753 -242 q 830 -127 801 -185 q 872 -2 858 -69 l 307 753 l 307 0 l 118 0 l 118 1028 l 320 1028 l 883 275 l 883 1028 l 1072 1028 z "},"ǋ":{"ha":1598,"x_min":118,"x_max":1513,"o":"m 883 1028 l 1072 1028 l 1072 0 l 869 0 l 307 753 l 307 0 l 118 0 l 118 1028 l 320 1028 l 883 274 l 883 1028 m 1173 -242 q 1267 -78 1239 -163 q 1296 121 1296 7 l 1296 758 l 1492 758 l 1492 128 q 1446 -112 1492 -4 q 1297 -326 1401 -220 l 1173 -242 m 1390 891 q 1298 916 1328 891 q 1267 990 1267 942 q 1298 1065 1267 1039 q 1390 1090 1328 1090 q 1482 1065 1451 1090 q 1513 990 1513 1039 q 1482 916 1513 942 q 1390 891 1451 891 z "},"Ṉ":{"ha":1190,"x_min":118,"x_max":1072,"o":"m 883 1028 l 1072 1028 l 1072 0 l 869 0 l 307 753 l 307 0 l 118 0 l 118 1028 l 320 1028 l 883 274 l 883 1028 m 333 -239 l 333 -126 l 858 -126 l 858 -239 l 333 -239 z "},"Ñ":{"ha":1190,"x_min":118,"x_max":1072,"o":"m 883 1028 l 1072 1028 l 1072 0 l 869 0 l 307 753 l 307 0 l 118 0 l 118 1028 l 320 1028 l 883 274 l 883 1028 m 721 1137 q 658 1143 687 1137 q 584 1163 629 1149 q 520 1181 547 1175 q 465 1188 493 1188 q 389 1177 422 1188 q 322 1142 356 1166 l 322 1250 q 385 1286 350 1275 q 469 1298 420 1298 q 534 1291 504 1298 q 606 1271 563 1284 q 670 1253 644 1259 q 725 1247 697 1247 q 802 1258 769 1247 q 869 1293 835 1269 l 869 1184 q 805 1148 840 1160 q 721 1137 769 1137 z "},"O":{"ha":1212,"x_min":76,"x_max":1136,"o":"m 606 -13 q 324 47 443 -13 q 140 225 205 107 q 76 514 76 344 q 141 802 76 684 q 325 981 206 921 q 606 1041 444 1041 q 888 981 768 1041 q 1072 802 1007 920 q 1136 514 1136 683 q 1071 226 1136 344 q 886 47 1006 108 q 606 -13 767 -13 m 606 147 q 846 237 761 147 q 931 510 931 327 q 845 790 931 698 q 606 881 760 881 q 366 791 451 881 q 280 518 280 701 q 365 238 280 328 q 606 147 450 147 z "},"Ó":{"ha":1212,"x_min":76,"x_max":1136,"o":"m 606 -13 q 324 47 443 -13 q 140 225 205 107 q 76 514 76 344 q 141 802 76 684 q 325 981 206 921 q 606 1041 444 1041 q 888 981 768 1041 q 1072 802 1007 920 q 1136 514 1136 683 q 1071 226 1136 344 q 886 47 1006 108 q 606 -13 767 -13 m 606 147 q 846 237 761 147 q 931 510 931 327 q 845 790 931 698 q 606 881 760 881 q 366 791 451 881 q 280 518 280 701 q 365 238 280 328 q 606 147 450 147 m 514 1111 l 661 1317 l 872 1317 l 694 1111 l 514 1111 z "},"Ŏ":{"ha":1212,"x_min":76,"x_max":1136,"o":"m 606 -13 q 324 47 443 -13 q 140 225 205 107 q 76 514 76 344 q 141 802 76 684 q 325 981 206 921 q 606 1041 444 1041 q 888 981 768 1041 q 1072 802 1007 920 q 1136 514 1136 683 q 1071 226 1136 344 q 886 47 1006 108 q 606 -13 767 -13 m 606 147 q 846 237 761 147 q 931 510 931 327 q 845 790 931 698 q 606 881 760 881 q 366 791 451 881 q 280 518 280 701 q 365 238 280 328 q 606 147 450 147 m 606 1115 q 405 1168 475 1115 q 321 1308 334 1221 l 443 1308 q 606 1212 465 1212 q 720 1237 682 1212 q 768 1308 758 1263 l 890 1308 q 807 1168 877 1221 q 606 1115 738 1115 z "},"Ô":{"ha":1212,"x_min":76,"x_max":1136,"o":"m 606 -13 q 324 47 443 -13 q 140 225 205 107 q 76 514 76 344 q 141 802 76 684 q 325 981 206 921 q 606 1041 444 1041 q 888 981 768 1041 q 1072 802 1007 920 q 1136 514 1136 683 q 1071 226 1136 344 q 886 47 1006 108 q 606 -13 767 -13 m 606 147 q 846 237 761 147 q 931 510 931 327 q 845 790 931 698 q 606 881 760 881 q 366 791 451 881 q 280 518 280 701 q 365 238 280 328 q 606 147 450 147 m 905 1111 l 739 1111 l 606 1242 l 472 1111 l 306 1111 l 522 1317 l 690 1317 l 905 1111 z "},"Ố":{"ha":1212,"x_min":76,"x_max":1136,"o":"m 606 -13 q 324 47 443 -13 q 140 225 205 107 q 76 514 76 344 q 141 802 76 684 q 325 981 206 921 q 606 1041 444 1041 q 888 981 768 1041 q 1072 802 1007 920 q 1136 514 1136 683 q 1071 226 1136 344 q 886 47 1006 108 q 606 -13 767 -13 m 606 147 q 846 237 761 147 q 931 510 931 327 q 845 790 931 698 q 606 881 760 881 q 366 791 451 881 q 280 518 280 701 q 365 238 280 328 q 606 147 450 147 m 904 1433 l 1050 1433 l 914 1258 l 794 1258 l 904 1433 m 522 1300 l 690 1300 l 905 1111 l 739 1111 l 606 1233 l 472 1111 l 306 1111 l 522 1300 z "},"Ộ":{"ha":1212,"x_min":76,"x_max":1136,"o":"m 606 -13 q 324 47 443 -13 q 140 225 205 107 q 76 514 76 344 q 141 802 76 684 q 325 981 206 921 q 606 1041 444 1041 q 888 981 768 1041 q 1072 802 1007 920 q 1136 514 1136 683 q 1071 226 1136 344 q 886 47 1006 108 q 606 -13 767 -13 m 606 147 q 846 237 761 147 q 931 510 931 327 q 845 790 931 698 q 606 881 760 881 q 366 791 451 881 q 280 518 280 701 q 365 238 280 328 q 606 147 450 147 m 606 -273 q 515 -250 545 -273 q 485 -185 485 -226 q 515 -122 485 -145 q 606 -98 545 -98 q 696 -122 666 -98 q 726 -185 726 -145 q 696 -250 726 -226 q 606 -273 666 -273 m 905 1111 l 739 1111 l 606 1242 l 472 1111 l 306 1111 l 522 1317 l 690 1317 l 905 1111 z "},"Ồ":{"ha":1212,"x_min":76,"x_max":1136,"o":"m 606 -13 q 324 47 443 -13 q 140 225 205 107 q 76 514 76 344 q 141 802 76 684 q 325 981 206 921 q 606 1041 444 1041 q 888 981 768 1041 q 1072 802 1007 920 q 1136 514 1136 683 q 1071 226 1136 344 q 886 47 1006 108 q 606 -13 767 -13 m 606 147 q 846 237 761 147 q 931 510 931 327 q 845 790 931 698 q 606 881 760 881 q 366 791 451 881 q 280 518 280 701 q 365 238 280 328 q 606 147 450 147 m 935 1258 l 815 1258 l 678 1433 l 825 1433 l 935 1258 m 522 1300 l 690 1300 l 905 1111 l 739 1111 l 606 1233 l 472 1111 l 306 1111 l 522 1300 z "},"Ổ":{"ha":1212,"x_min":76,"x_max":1136,"o":"m 606 -13 q 324 47 443 -13 q 140 225 205 107 q 76 514 76 344 q 141 802 76 684 q 325 981 206 921 q 606 1041 444 1041 q 888 981 768 1041 q 1072 802 1007 920 q 1136 514 1136 683 q 1071 226 1136 344 q 886 47 1006 108 q 606 -13 767 -13 m 606 147 q 846 237 761 147 q 931 510 931 327 q 845 790 931 698 q 606 881 760 881 q 366 791 451 881 q 280 518 280 701 q 365 238 280 328 q 606 147 450 147 m 849 1456 q 981 1434 938 1456 q 1024 1374 1024 1413 q 1013 1340 1024 1354 q 988 1318 1002 1326 q 948 1298 973 1309 q 909 1278 922 1286 q 895 1258 897 1269 l 793 1258 q 815 1299 794 1284 q 872 1327 835 1314 q 909 1345 897 1338 q 921 1364 921 1352 q 836 1390 921 1390 q 764 1386 797 1390 q 690 1372 731 1382 l 690 1437 q 764 1451 722 1446 q 849 1456 806 1456 m 522 1300 l 690 1300 l 905 1111 l 739 1111 l 606 1233 l 472 1111 l 306 1111 l 522 1300 z "},"Ỗ":{"ha":1212,"x_min":76,"x_max":1136,"o":"m 606 -13 q 324 47 443 -13 q 140 225 205 107 q 76 514 76 344 q 141 802 76 684 q 325 981 206 921 q 606 1041 444 1041 q 888 981 768 1041 q 1072 802 1007 920 q 1136 514 1136 683 q 1071 226 1136 344 q 886 47 1006 108 q 606 -13 767 -13 m 606 147 q 846 237 761 147 q 931 510 931 327 q 845 790 931 698 q 606 881 760 881 q 366 791 451 881 q 280 518 280 701 q 365 238 280 328 q 606 147 450 147 m 742 1411 q 822 1422 784 1411 q 905 1458 859 1433 l 905 1373 q 827 1340 866 1349 q 740 1331 789 1331 q 669 1337 703 1331 q 590 1355 636 1343 q 523 1370 550 1365 q 469 1375 497 1375 q 390 1364 427 1375 q 306 1328 352 1353 l 306 1413 q 384 1447 345 1438 q 471 1456 422 1456 q 542 1450 508 1456 q 622 1432 575 1444 q 687 1416 659 1422 q 742 1411 715 1411 m 522 1300 l 690 1300 l 905 1111 l 739 1111 l 606 1233 l 472 1111 l 306 1111 l 522 1300 z "},"Ȍ":{"ha":1212,"x_min":76,"x_max":1136,"o":"m 606 -13 q 324 47 443 -13 q 140 225 205 107 q 76 514 76 344 q 141 802 76 684 q 325 981 206 921 q 606 1041 444 1041 q 888 981 768 1041 q 1072 802 1007 920 q 1136 514 1136 683 q 1071 226 1136 344 q 886 47 1006 108 q 606 -13 767 -13 m 606 147 q 846 237 761 147 q 931 510 931 327 q 845 790 931 698 q 606 881 760 881 q 366 791 451 881 q 280 518 280 701 q 365 238 280 328 q 606 147 450 147 m 392 1111 l 269 1317 l 422 1317 l 535 1111 l 392 1111 m 676 1111 l 553 1317 l 707 1317 l 819 1111 l 676 1111 z "},"Ö":{"ha":1212,"x_min":76,"x_max":1136,"o":"m 606 -13 q 324 47 443 -13 q 140 225 205 107 q 76 514 76 344 q 141 802 76 684 q 325 981 206 921 q 606 1041 444 1041 q 888 981 768 1041 q 1072 802 1007 920 q 1136 514 1136 683 q 1071 226 1136 344 q 886 47 1006 108 q 606 -13 767 -13 m 606 147 q 846 237 761 147 q 931 510 931 327 q 845 790 931 698 q 606 881 760 881 q 366 791 451 881 q 280 518 280 701 q 365 238 280 328 q 606 147 450 147 m 412 1128 q 333 1151 359 1128 q 306 1216 306 1174 q 333 1281 306 1258 q 412 1304 359 1304 q 490 1281 464 1304 q 517 1216 517 1258 q 491 1151 517 1174 q 412 1128 465 1128 m 799 1128 q 720 1151 747 1128 q 694 1216 694 1174 q 721 1281 694 1258 q 799 1304 747 1304 q 878 1281 852 1304 q 905 1216 905 1258 q 878 1151 905 1174 q 799 1128 852 1128 z "},"Ȫ":{"ha":1212,"x_min":76,"x_max":1136,"o":"m 606 -13 q 324 47 443 -13 q 140 225 205 107 q 76 514 76 344 q 141 802 76 684 q 325 981 206 921 q 606 1041 444 1041 q 888 981 768 1041 q 1072 802 1007 920 q 1136 514 1136 683 q 1071 226 1136 344 q 886 47 1006 108 q 606 -13 767 -13 m 606 147 q 846 237 761 147 q 931 510 931 327 q 845 790 931 698 q 606 881 760 881 q 366 791 451 881 q 280 518 280 701 q 365 238 280 328 q 606 147 450 147 m 412 1128 q 333 1151 359 1128 q 306 1216 306 1174 q 333 1281 306 1258 q 412 1304 359 1304 q 490 1281 464 1304 q 517 1216 517 1258 q 491 1151 517 1174 q 412 1128 465 1128 m 799 1128 q 720 1151 747 1128 q 694 1216 694 1174 q 721 1281 694 1258 q 799 1304 747 1304 q 878 1281 852 1304 q 905 1216 905 1258 q 878 1151 905 1174 q 799 1128 852 1128 m 343 1393 l 343 1506 l 868 1506 l 868 1393 l 343 1393 z "},"Ȱ":{"ha":1212,"x_min":76,"x_max":1136,"o":"m 606 -13 q 324 47 443 -13 q 140 225 205 107 q 76 514 76 344 q 141 802 76 684 q 325 981 206 921 q 606 1041 444 1041 q 888 981 768 1041 q 1072 802 1007 920 q 1136 514 1136 683 q 1071 226 1136 344 q 886 47 1006 108 q 606 -13 767 -13 m 606 147 q 846 237 761 147 q 931 510 931 327 q 845 790 931 698 q 606 881 760 881 q 366 791 451 881 q 280 518 280 701 q 365 238 280 328 q 606 147 450 147 m 606 1128 q 515 1152 545 1128 q 485 1216 485 1175 q 515 1281 485 1257 q 606 1304 545 1304 q 696 1281 666 1304 q 726 1216 726 1257 q 696 1152 726 1175 q 606 1128 666 1128 m 343 1393 l 343 1506 l 868 1506 l 868 1393 l 343 1393 z "},"Ọ":{"ha":1212,"x_min":76,"x_max":1136,"o":"m 606 -13 q 324 47 443 -13 q 140 225 205 107 q 76 514 76 344 q 141 802 76 684 q 325 981 206 921 q 606 1041 444 1041 q 888 981 768 1041 q 1072 802 1007 920 q 1136 514 1136 683 q 1071 226 1136 344 q 886 47 1006 108 q 606 -13 767 -13 m 606 147 q 846 237 761 147 q 931 510 931 327 q 845 790 931 698 q 606 881 760 881 q 366 791 451 881 q 280 518 280 701 q 365 238 280 328 q 606 147 450 147 m 606 -273 q 515 -250 545 -273 q 485 -185 485 -226 q 515 -122 485 -145 q 606 -98 545 -98 q 696 -122 666 -98 q 726 -185 726 -145 q 696 -250 726 -226 q 606 -273 666 -273 z "},"Ò":{"ha":1212,"x_min":76,"x_max":1136,"o":"m 606 -13 q 324 47 443 -13 q 140 225 205 107 q 76 514 76 344 q 141 802 76 684 q 325 981 206 921 q 606 1041 444 1041 q 888 981 768 1041 q 1072 802 1007 920 q 1136 514 1136 683 q 1071 226 1136 344 q 886 47 1006 108 q 606 -13 767 -13 m 606 147 q 846 237 761 147 q 931 510 931 327 q 845 790 931 698 q 606 881 760 881 q 366 791 451 881 q 280 518 280 701 q 365 238 280 328 q 606 147 450 147 m 515 1111 l 338 1317 l 549 1317 l 696 1111 l 515 1111 z "},"Ỏ":{"ha":1212,"x_min":76,"x_max":1136,"o":"m 606 -13 q 324 47 443 -13 q 140 225 205 107 q 76 514 76 344 q 141 802 76 684 q 325 981 206 921 q 606 1041 444 1041 q 888 981 768 1041 q 1072 802 1007 920 q 1136 514 1136 683 q 1071 226 1136 344 q 886 47 1006 108 q 606 -13 767 -13 m 606 147 q 846 237 761 147 q 931 510 931 327 q 845 790 931 698 q 606 881 760 881 q 366 791 451 881 q 280 518 280 701 q 365 238 280 328 q 606 147 450 147 m 554 1111 q 576 1155 556 1139 q 633 1186 596 1170 q 670 1205 658 1197 q 682 1225 682 1213 q 597 1253 682 1253 q 525 1248 558 1253 q 451 1233 492 1244 l 451 1307 q 525 1322 483 1317 q 610 1327 567 1327 q 742 1303 699 1327 q 785 1237 785 1280 q 774 1200 785 1215 q 748 1176 763 1185 q 708 1154 733 1166 q 670 1133 683 1142 q 656 1111 658 1124 l 554 1111 z "},"Ơ":{"ha":1212,"x_min":76,"x_max":1142,"o":"m 964 933 q 1092 761 1047 867 q 1136 514 1136 656 q 1072 224 1136 342 q 888 47 1007 106 q 606 -13 769 -13 q 324 47 443 -13 q 140 225 205 107 q 76 514 76 344 q 141 802 76 684 q 325 981 206 921 q 606 1041 444 1041 q 680 1038 640 1041 q 728 1033 720 1034 q 858 1025 815 1025 q 973 1051 935 1025 q 1010 1135 1010 1078 q 997 1233 1010 1178 l 1127 1233 q 1139 1181 1135 1205 q 1142 1131 1142 1158 q 1096 994 1142 1045 q 964 933 1049 944 m 606 147 q 846 237 761 147 q 931 510 931 327 q 845 790 931 698 q 606 881 760 881 q 366 791 451 881 q 280 518 280 701 q 365 238 280 328 q 606 147 450 147 z "},"Ớ":{"ha":1212,"x_min":76,"x_max":1142,"o":"m 964 933 q 1092 761 1047 867 q 1136 514 1136 656 q 1072 224 1136 342 q 888 47 1007 106 q 606 -13 769 -13 q 324 47 443 -13 q 140 225 205 107 q 76 514 76 344 q 141 802 76 684 q 325 981 206 921 q 606 1041 444 1041 q 680 1038 640 1041 q 728 1033 720 1034 q 858 1025 815 1025 q 973 1051 935 1025 q 1010 1135 1010 1078 q 997 1233 1010 1178 l 1127 1233 q 1139 1181 1135 1205 q 1142 1131 1142 1158 q 1096 994 1142 1045 q 964 933 1049 944 m 606 147 q 846 237 761 147 q 931 510 931 327 q 845 790 931 698 q 606 881 760 881 q 366 791 451 881 q 280 518 280 701 q 365 238 280 328 q 606 147 450 147 m 514 1111 l 661 1317 l 872 1317 l 694 1111 l 514 1111 z "},"Ợ":{"ha":1212,"x_min":76,"x_max":1142,"o":"m 964 933 q 1092 761 1047 867 q 1136 514 1136 656 q 1072 224 1136 342 q 888 47 1007 106 q 606 -13 769 -13 q 324 47 443 -13 q 140 225 205 107 q 76 514 76 344 q 141 802 76 684 q 325 981 206 921 q 606 1041 444 1041 q 680 1038 640 1041 q 728 1033 720 1034 q 858 1025 815 1025 q 973 1051 935 1025 q 1010 1135 1010 1078 q 997 1233 1010 1178 l 1127 1233 q 1139 1181 1135 1205 q 1142 1131 1142 1158 q 1096 994 1142 1045 q 964 933 1049 944 m 606 147 q 846 237 761 147 q 931 510 931 327 q 845 790 931 698 q 606 881 760 881 q 366 791 451 881 q 280 518 280 701 q 365 238 280 328 q 606 147 450 147 m 606 -273 q 515 -250 545 -273 q 485 -185 485 -226 q 515 -122 485 -145 q 606 -98 545 -98 q 696 -122 666 -98 q 726 -185 726 -145 q 696 -250 726 -226 q 606 -273 666 -273 z "},"Ờ":{"ha":1212,"x_min":76,"x_max":1142,"o":"m 964 933 q 1092 761 1047 867 q 1136 514 1136 656 q 1072 224 1136 342 q 888 47 1007 106 q 606 -13 769 -13 q 324 47 443 -13 q 140 225 205 107 q 76 514 76 344 q 141 802 76 684 q 325 981 206 921 q 606 1041 444 1041 q 680 1038 640 1041 q 728 1033 720 1034 q 858 1025 815 1025 q 973 1051 935 1025 q 1010 1135 1010 1078 q 997 1233 1010 1178 l 1127 1233 q 1139 1181 1135 1205 q 1142 1131 1142 1158 q 1096 994 1142 1045 q 964 933 1049 944 m 606 147 q 846 237 761 147 q 931 510 931 327 q 845 790 931 698 q 606 881 760 881 q 366 791 451 881 q 280 518 280 701 q 365 238 280 328 q 606 147 450 147 m 515 1111 l 338 1317 l 549 1317 l 696 1111 l 515 1111 z "},"Ở":{"ha":1212,"x_min":76,"x_max":1142,"o":"m 964 933 q 1092 761 1047 867 q 1136 514 1136 656 q 1072 224 1136 342 q 888 47 1007 106 q 606 -13 769 -13 q 324 47 443 -13 q 140 225 205 107 q 76 514 76 344 q 141 802 76 684 q 325 981 206 921 q 606 1041 444 1041 q 680 1038 640 1041 q 728 1033 720 1034 q 858 1025 815 1025 q 973 1051 935 1025 q 1010 1135 1010 1078 q 997 1233 1010 1178 l 1127 1233 q 1139 1181 1135 1205 q 1142 1131 1142 1158 q 1096 994 1142 1045 q 964 933 1049 944 m 606 147 q 846 237 761 147 q 931 510 931 327 q 845 790 931 698 q 606 881 760 881 q 366 791 451 881 q 280 518 280 701 q 365 238 280 328 q 606 147 450 147 m 554 1111 q 576 1155 556 1139 q 633 1186 596 1170 q 670 1205 658 1197 q 682 1225 682 1213 q 597 1253 682 1253 q 525 1248 558 1253 q 451 1233 492 1244 l 451 1307 q 525 1322 483 1317 q 610 1327 567 1327 q 742 1303 699 1327 q 785 1237 785 1280 q 774 1200 785 1215 q 748 1176 763 1185 q 708 1154 733 1166 q 670 1133 683 1142 q 656 1111 658 1124 l 554 1111 z "},"Ỡ":{"ha":1212,"x_min":76,"x_max":1142,"o":"m 731 1137 q 667 1143 697 1137 q 594 1163 636 1150 q 530 1181 557 1175 q 476 1188 503 1188 q 399 1177 433 1188 q 332 1142 365 1166 l 332 1250 q 396 1286 360 1275 q 481 1298 431 1298 q 545 1291 515 1298 q 617 1271 575 1284 q 681 1252 655 1258 q 735 1247 708 1247 q 813 1258 779 1247 q 880 1293 847 1269 l 880 1184 q 816 1148 851 1160 q 731 1137 780 1137 m 964 933 q 1092 761 1047 867 q 1136 514 1136 656 q 1072 224 1136 342 q 888 47 1007 106 q 606 -13 769 -13 q 324 47 443 -13 q 140 225 205 107 q 76 514 76 344 q 141 802 76 684 q 325 981 206 921 q 606 1041 444 1041 q 680 1038 640 1041 q 728 1033 720 1034 q 858 1025 815 1025 q 973 1051 935 1025 q 1010 1135 1010 1078 q 997 1233 1010 1178 l 1127 1233 q 1139 1181 1135 1205 q 1142 1131 1142 1158 q 1096 994 1142 1045 q 964 933 1049 944 m 606 147 q 846 237 761 147 q 931 510 931 327 q 845 790 931 698 q 606 881 760 881 q 366 791 451 881 q 280 518 280 701 q 365 238 280 328 q 606 147 450 147 z "},"Ő":{"ha":1212,"x_min":76,"x_max":1136,"o":"m 606 -13 q 324 47 443 -13 q 140 225 205 107 q 76 514 76 344 q 141 802 76 684 q 325 981 206 921 q 606 1041 444 1041 q 888 981 768 1041 q 1072 802 1007 920 q 1136 514 1136 683 q 1071 226 1136 344 q 886 47 1006 108 q 606 -13 767 -13 m 606 147 q 846 237 761 147 q 931 510 931 327 q 845 790 931 698 q 606 881 760 881 q 366 791 451 881 q 280 518 280 701 q 365 238 280 328 q 606 147 450 147 m 392 1111 l 504 1317 l 658 1317 l 535 1111 l 392 1111 m 676 1111 l 789 1317 l 942 1317 l 819 1111 l 676 1111 z "},"Ȏ":{"ha":1212,"x_min":76,"x_max":1136,"o":"m 606 -13 q 324 47 443 -13 q 140 225 205 107 q 76 514 76 344 q 141 802 76 684 q 325 981 206 921 q 606 1041 444 1041 q 888 981 768 1041 q 1072 802 1007 920 q 1136 514 1136 683 q 1071 226 1136 344 q 886 47 1006 108 q 606 -13 767 -13 m 606 147 q 846 237 761 147 q 931 510 931 327 q 845 790 931 698 q 606 881 760 881 q 366 791 451 881 q 280 518 280 701 q 365 238 280 328 q 606 147 450 147 m 321 1120 q 404 1260 334 1207 q 605 1313 474 1313 q 807 1259 736 1313 q 890 1120 877 1206 l 768 1120 q 605 1215 747 1215 q 491 1190 529 1215 q 443 1120 453 1165 l 321 1120 z "},"Ō":{"ha":1212,"x_min":76,"x_max":1136,"o":"m 606 -13 q 324 47 443 -13 q 140 225 205 107 q 76 514 76 344 q 141 802 76 684 q 325 981 206 921 q 606 1041 444 1041 q 888 981 768 1041 q 1072 802 1007 920 q 1136 514 1136 683 q 1071 226 1136 344 q 886 47 1006 108 q 606 -13 767 -13 m 606 147 q 846 237 761 147 q 931 510 931 327 q 845 790 931 698 q 606 881 760 881 q 366 791 451 881 q 280 518 280 701 q 365 238 280 328 q 606 147 450 147 m 343 1158 l 343 1271 l 868 1271 l 868 1158 l 343 1158 z "},"Ṓ":{"ha":1212,"x_min":76,"x_max":1136,"o":"m 606 -13 q 324 47 443 -13 q 140 225 205 107 q 76 514 76 344 q 141 802 76 684 q 325 981 206 921 q 606 1041 444 1041 q 888 981 768 1041 q 1072 802 1007 920 q 1136 514 1136 683 q 1071 226 1136 344 q 886 47 1006 108 q 606 -13 767 -13 m 606 147 q 846 237 761 147 q 931 510 931 327 q 845 790 931 698 q 606 881 760 881 q 366 791 451 881 q 280 518 280 701 q 365 238 280 328 q 606 147 450 147 m 504 1347 l 651 1508 l 885 1508 l 708 1347 l 504 1347 m 343 1158 l 343 1271 l 868 1271 l 868 1158 l 343 1158 z "},"Ṑ":{"ha":1212,"x_min":76,"x_max":1136,"o":"m 606 -13 q 324 47 443 -13 q 140 225 205 107 q 76 514 76 344 q 141 802 76 684 q 325 981 206 921 q 606 1041 444 1041 q 888 981 768 1041 q 1072 802 1007 920 q 1136 514 1136 683 q 1071 226 1136 344 q 886 47 1006 108 q 606 -13 767 -13 m 606 147 q 846 237 761 147 q 931 510 931 327 q 845 790 931 698 q 606 881 760 881 q 366 791 451 881 q 280 518 280 701 q 365 238 280 328 q 606 147 450 147 m 504 1347 l 326 1508 l 560 1508 l 707 1347 l 504 1347 m 343 1158 l 343 1271 l 868 1271 l 868 1158 l 343 1158 z "},"Ǫ":{"ha":1212,"x_min":76,"x_max":1136,"o":"m 784 8 q 629 -61 673 -22 q 585 -147 585 -100 q 612 -202 585 -182 q 692 -222 639 -222 q 803 -199 736 -222 l 803 -276 q 666 -300 738 -300 q 521 -263 571 -300 q 471 -161 471 -226 q 565 -12 471 -68 q 304 58 414 -5 q 135 235 194 120 q 76 514 76 351 q 141 802 76 684 q 325 981 206 921 q 606 1041 444 1041 q 887 981 768 1041 q 1071 803 1006 922 q 1136 514 1136 685 q 1090 266 1136 370 q 965 98 1044 161 q 784 8 885 35 m 280 518 q 365 238 280 328 q 606 147 450 147 q 846 237 761 147 q 931 510 931 327 q 845 790 931 698 q 606 881 760 881 q 366 791 451 881 q 280 518 280 701 z "},"Ø":{"ha":1212,"x_min":76,"x_max":1136,"o":"m 1010 888 q 1104 726 1072 820 q 1136 514 1136 633 q 1071 226 1136 344 q 886 47 1006 108 q 606 -13 767 -13 q 281 72 411 -13 l 192 -28 l 113 42 l 201 140 q 108 301 140 207 q 76 514 76 395 q 141 802 76 684 q 325 981 206 921 q 606 1041 444 1041 q 930 956 800 1041 l 1019 1056 l 1098 985 l 1010 888 m 280 518 q 331 285 280 375 l 810 822 q 606 881 731 881 q 366 791 451 881 q 280 518 280 701 m 606 147 q 846 237 761 147 q 931 510 931 327 q 880 742 931 653 l 401 205 q 606 147 479 147 z "},"Ǿ":{"ha":1212,"x_min":76,"x_max":1136,"o":"m 1010 888 q 1104 726 1072 820 q 1136 514 1136 633 q 1071 226 1136 344 q 886 47 1006 108 q 606 -13 767 -13 q 281 72 411 -13 l 192 -28 l 113 42 l 201 140 q 108 301 140 207 q 76 514 76 395 q 141 802 76 684 q 325 981 206 921 q 606 1041 444 1041 q 930 956 800 1041 l 1019 1056 l 1098 985 l 1010 888 m 280 518 q 331 285 280 375 l 810 822 q 606 881 731 881 q 366 791 451 881 q 280 518 280 701 m 606 147 q 846 237 761 147 q 931 510 931 327 q 880 742 931 653 l 401 205 q 606 147 479 147 m 510 1111 l 657 1317 l 867 1317 l 690 1111 l 510 1111 z "},"Õ":{"ha":1212,"x_min":76,"x_max":1136,"o":"m 606 -13 q 324 47 443 -13 q 140 225 205 107 q 76 514 76 344 q 141 802 76 684 q 325 981 206 921 q 606 1041 444 1041 q 888 981 768 1041 q 1072 802 1007 920 q 1136 514 1136 683 q 1071 226 1136 344 q 886 47 1006 108 q 606 -13 767 -13 m 606 147 q 846 237 761 147 q 931 510 931 327 q 845 790 931 698 q 606 881 760 881 q 366 791 451 881 q 280 518 280 701 q 365 238 280 328 q 606 147 450 147 m 731 1137 q 668 1143 697 1137 q 594 1163 640 1149 q 530 1181 557 1175 q 476 1188 503 1188 q 399 1177 432 1188 q 332 1142 366 1166 l 332 1250 q 395 1286 360 1275 q 480 1298 431 1298 q 544 1291 515 1298 q 617 1271 574 1284 q 681 1253 654 1259 q 735 1247 708 1247 q 813 1258 779 1247 q 879 1293 846 1269 l 879 1184 q 815 1148 851 1160 q 731 1137 780 1137 z "},"Ṍ":{"ha":1212,"x_min":76,"x_max":1136,"o":"m 606 -13 q 324 47 443 -13 q 140 225 205 107 q 76 514 76 344 q 141 802 76 684 q 325 981 206 921 q 606 1041 444 1041 q 888 981 768 1041 q 1072 802 1007 920 q 1136 514 1136 683 q 1071 226 1136 344 q 886 47 1006 108 q 606 -13 767 -13 m 606 147 q 846 237 761 147 q 931 510 931 327 q 845 790 931 698 q 606 881 760 881 q 366 791 451 881 q 280 518 280 701 q 365 238 280 328 q 606 147 450 147 m 504 1347 l 651 1508 l 885 1508 l 708 1347 l 504 1347 m 731 1137 q 668 1143 697 1137 q 594 1163 640 1149 q 530 1181 557 1175 q 476 1188 503 1188 q 399 1177 432 1188 q 332 1142 366 1166 l 332 1250 q 395 1286 360 1275 q 480 1298 431 1298 q 544 1291 515 1298 q 617 1271 574 1284 q 681 1253 654 1259 q 735 1247 708 1247 q 813 1258 779 1247 q 879 1293 846 1269 l 879 1184 q 815 1148 851 1160 q 731 1137 780 1137 z "},"Ṏ":{"ha":1212,"x_min":76,"x_max":1136,"o":"m 606 -13 q 324 47 443 -13 q 140 225 205 107 q 76 514 76 344 q 141 802 76 684 q 325 981 206 921 q 606 1041 444 1041 q 888 981 768 1041 q 1072 802 1007 920 q 1136 514 1136 683 q 1071 226 1136 344 q 886 47 1006 108 q 606 -13 767 -13 m 606 147 q 846 237 761 147 q 931 510 931 327 q 845 790 931 698 q 606 881 760 881 q 366 791 451 881 q 280 518 280 701 q 365 238 280 328 q 606 147 450 147 m 731 1137 q 668 1143 697 1137 q 594 1163 640 1149 q 530 1181 557 1175 q 476 1188 503 1188 q 399 1177 432 1188 q 332 1142 366 1166 l 332 1250 q 395 1286 360 1275 q 480 1298 431 1298 q 544 1291 515 1298 q 617 1271 574 1284 q 681 1253 654 1259 q 735 1247 708 1247 q 813 1258 779 1247 q 879 1293 846 1269 l 879 1184 q 815 1148 851 1160 q 731 1137 780 1137 m 412 1364 q 333 1387 359 1364 q 306 1451 306 1410 q 333 1516 306 1493 q 412 1540 359 1540 q 490 1516 464 1540 q 517 1451 517 1493 q 491 1387 517 1410 q 412 1364 465 1364 m 799 1364 q 720 1387 747 1364 q 694 1451 694 1410 q 721 1516 694 1493 q 799 1540 747 1540 q 878 1516 852 1540 q 905 1451 905 1493 q 878 1387 905 1410 q 799 1364 852 1364 z "},"Ȭ":{"ha":1212,"x_min":76,"x_max":1136,"o":"m 606 -13 q 324 47 443 -13 q 140 225 205 107 q 76 514 76 344 q 141 802 76 684 q 325 981 206 921 q 606 1041 444 1041 q 888 981 768 1041 q 1072 802 1007 920 q 1136 514 1136 683 q 1071 226 1136 344 q 886 47 1006 108 q 606 -13 767 -13 m 606 147 q 846 237 761 147 q 931 510 931 327 q 845 790 931 698 q 606 881 760 881 q 366 791 451 881 q 280 518 280 701 q 365 238 280 328 q 606 147 450 147 m 731 1137 q 668 1143 697 1137 q 594 1163 640 1149 q 530 1181 557 1175 q 476 1188 503 1188 q 399 1177 432 1188 q 332 1142 366 1166 l 332 1250 q 395 1286 360 1275 q 480 1298 431 1298 q 544 1291 515 1298 q 617 1271 574 1284 q 681 1253 654 1259 q 735 1247 708 1247 q 813 1258 779 1247 q 879 1293 846 1269 l 879 1184 q 815 1148 851 1160 q 731 1137 780 1137 m 343 1393 l 343 1506 l 868 1506 l 868 1393 l 343 1393 z "},"Œ":{"ha":1653,"x_min":76,"x_max":1587,"o":"m 1587 152 l 1587 0 l 976 0 q 845 -4 935 0 q 722 -8 758 -8 q 359 47 502 -8 q 146 217 217 101 q 76 514 76 333 q 235 908 76 779 q 712 1038 395 1038 q 838 1033 761 1038 q 893 1030 851 1032 q 970 1028 936 1028 l 1580 1028 l 1580 876 l 1025 876 l 1025 602 l 1508 602 l 1508 450 l 1025 450 l 1025 152 l 1587 152 m 827 870 q 673 877 757 877 q 377 788 474 877 q 279 513 279 699 q 377 240 279 328 q 673 152 474 152 q 827 158 775 152 l 827 870 z "},"P":{"ha":993,"x_min":118,"x_max":930,"o":"m 118 1008 q 280 1032 200 1024 q 449 1040 360 1040 q 810 951 690 1040 q 930 676 930 863 q 451 311 930 311 q 318 316 399 311 l 318 0 l 118 0 l 118 1008 m 453 454 q 615 478 553 454 q 706 550 677 501 q 735 676 735 599 q 669 843 735 790 q 466 897 603 897 q 318 885 388 897 l 318 463 q 453 454 382 454 z "},"Þ":{"ha":1000,"x_min":118,"x_max":930,"o":"m 118 1028 l 318 1028 l 318 883 q 452 892 392 892 q 811 804 692 892 q 930 529 930 716 q 811 256 930 349 q 453 163 693 163 q 318 169 392 163 l 318 0 l 118 0 l 118 1028 m 453 307 q 615 330 553 307 q 706 402 677 353 q 735 528 735 451 q 669 696 735 643 q 466 749 603 749 q 318 737 382 749 l 318 315 q 453 307 388 307 z "},"Q":{"ha":1212,"x_min":76,"x_max":1136,"o":"m 1136 514 q 1036 169 1136 301 q 739 8 935 37 q 1123 -53 903 -31 l 1094 -206 q 480 -64 703 -158 q 166 169 257 31 q 76 506 76 308 q 141 800 76 680 q 325 980 206 919 q 606 1041 444 1041 q 887 981 768 1041 q 1071 803 1006 922 q 1136 514 1136 685 m 280 518 q 364 237 280 327 q 606 147 449 147 q 846 237 761 147 q 931 510 931 327 q 845 790 931 698 q 606 881 760 881 q 366 791 451 881 q 280 518 280 701 z "},"R":{"ha":1042,"x_min":118,"x_max":1013,"o":"m 790 0 l 483 392 l 459 392 q 315 398 394 392 l 315 0 l 118 0 l 118 1001 q 283 1029 193 1019 q 460 1040 374 1040 q 810 962 695 1040 q 925 718 925 885 q 863 528 925 603 q 683 419 801 453 l 1013 0 l 790 0 m 315 544 q 467 536 394 536 q 673 580 608 536 q 738 717 738 623 q 711 822 738 782 q 626 879 683 861 q 476 897 569 897 q 315 882 396 897 l 315 544 z "},"Ŕ":{"ha":1042,"x_min":118,"x_max":1013,"o":"m 790 0 l 483 392 l 459 392 q 315 398 394 392 l 315 0 l 118 0 l 118 1001 q 283 1029 193 1019 q 460 1040 374 1040 q 810 962 695 1040 q 925 718 925 885 q 863 528 925 603 q 683 419 801 453 l 1013 0 l 790 0 m 315 544 q 467 536 394 536 q 673 580 608 536 q 738 717 738 623 q 711 822 738 782 q 626 879 683 861 q 476 897 569 897 q 315 882 396 897 l 315 544 m 424 1111 l 571 1317 l 781 1317 l 604 1111 l 424 1111 z "},"Ř":{"ha":1042,"x_min":118,"x_max":1013,"o":"m 790 0 l 483 392 l 459 392 q 315 398 394 392 l 315 0 l 118 0 l 118 1001 q 283 1029 193 1019 q 460 1040 374 1040 q 810 962 695 1040 q 925 718 925 885 q 863 528 925 603 q 683 419 801 453 l 1013 0 l 790 0 m 315 544 q 467 536 394 536 q 673 580 608 536 q 738 717 738 623 q 711 822 738 782 q 626 879 683 861 q 476 897 569 897 q 315 882 396 897 l 315 544 m 649 1317 l 815 1317 l 599 1111 l 431 1111 l 216 1317 l 382 1317 l 515 1186 l 649 1317 z "},"Ŗ":{"ha":1042,"x_min":118,"x_max":1013,"o":"m 790 0 l 483 392 l 459 392 q 315 398 394 392 l 315 0 l 118 0 l 118 1001 q 283 1029 193 1019 q 460 1040 374 1040 q 810 962 695 1040 q 925 718 925 885 q 863 528 925 603 q 683 419 801 453 l 1013 0 l 790 0 m 315 544 q 467 536 394 536 q 673 580 608 536 q 738 717 738 623 q 711 822 738 782 q 626 879 683 861 q 476 897 569 897 q 315 882 396 897 l 315 544 m 537 -98 q 651 -192 651 -98 q 638 -267 651 -227 q 601 -338 624 -307 l 482 -338 q 517 -239 510 -281 q 425 -169 425 -232 q 453 -116 425 -135 q 537 -98 481 -98 z "},"Ȑ":{"ha":1042,"x_min":118,"x_max":1013,"o":"m 790 0 l 483 392 l 459 392 q 315 398 394 392 l 315 0 l 118 0 l 118 1001 q 283 1029 193 1019 q 460 1040 374 1040 q 810 962 695 1040 q 925 718 925 885 q 863 528 925 603 q 683 419 801 453 l 1013 0 l 790 0 m 315 544 q 467 536 394 536 q 673 580 608 536 q 738 717 738 623 q 711 822 738 782 q 626 879 683 861 q 476 897 569 897 q 315 882 396 897 l 315 544 m 301 1111 l 178 1317 l 332 1317 l 444 1111 l 301 1111 m 586 1111 l 463 1317 l 617 1317 l 729 1111 l 586 1111 z "},"Ṛ":{"ha":1042,"x_min":118,"x_max":1013,"o":"m 790 0 l 483 392 l 459 392 q 315 398 394 392 l 315 0 l 118 0 l 118 1001 q 283 1029 193 1019 q 460 1040 374 1040 q 810 962 695 1040 q 925 718 925 885 q 863 528 925 603 q 683 419 801 453 l 1013 0 l 790 0 m 315 544 q 467 536 394 536 q 673 580 608 536 q 738 717 738 623 q 711 822 738 782 q 626 879 683 861 q 476 897 569 897 q 315 882 396 897 l 315 544 m 538 -273 q 448 -250 478 -273 q 418 -185 418 -226 q 448 -122 418 -145 q 538 -98 478 -98 q 628 -122 599 -98 q 658 -185 658 -145 q 628 -250 658 -226 q 538 -273 599 -273 z "},"Ȓ":{"ha":1042,"x_min":118,"x_max":1013,"o":"m 790 0 l 483 392 l 459 392 q 315 398 394 392 l 315 0 l 118 0 l 118 1001 q 283 1029 193 1019 q 460 1040 374 1040 q 810 962 695 1040 q 925 718 925 885 q 863 528 925 603 q 683 419 801 453 l 1013 0 l 790 0 m 315 544 q 467 536 394 536 q 673 580 608 536 q 738 717 738 623 q 711 822 738 782 q 626 879 683 861 q 476 897 569 897 q 315 882 396 897 l 315 544 m 231 1120 q 314 1260 244 1207 q 515 1313 383 1313 q 716 1259 646 1313 q 800 1120 787 1206 l 678 1120 q 515 1215 656 1215 q 401 1190 439 1215 q 353 1120 363 1165 l 231 1120 z "},"Ṟ":{"ha":1042,"x_min":118,"x_max":1013,"o":"m 790 0 l 483 392 l 459 392 q 315 398 394 392 l 315 0 l 118 0 l 118 1001 q 283 1029 193 1019 q 460 1040 374 1040 q 810 962 695 1040 q 925 718 925 885 q 863 528 925 603 q 683 419 801 453 l 1013 0 l 790 0 m 315 544 q 467 536 394 536 q 673 580 608 536 q 738 717 738 623 q 711 822 738 782 q 626 879 683 861 q 476 897 569 897 q 315 882 396 897 l 315 544 m 276 -239 l 276 -126 l 801 -126 l 801 -239 l 276 -239 z "},"S":{"ha":885,"x_min":56,"x_max":829,"o":"m 394 -13 q 78 33 225 -13 l 78 193 q 235 157 149 169 q 397 144 322 144 q 576 180 520 144 q 631 288 631 217 q 614 353 631 327 q 556 397 596 379 q 445 428 516 414 l 368 442 q 131 545 205 474 q 56 735 56 617 q 169 961 56 881 q 503 1041 283 1041 q 777 1006 654 1041 l 777 847 q 648 874 719 865 q 507 884 578 884 q 314 848 374 884 q 254 742 254 811 q 269 678 254 704 q 320 635 285 653 q 419 606 356 618 l 497 591 q 689 528 616 567 q 796 432 763 489 q 829 297 829 375 q 777 130 829 200 q 628 24 726 60 q 394 -13 530 -13 z "},"Ś":{"ha":885,"x_min":56,"x_max":829,"o":"m 394 -13 q 78 33 225 -13 l 78 193 q 235 157 149 169 q 397 144 322 144 q 576 180 520 144 q 631 288 631 217 q 614 353 631 327 q 556 397 596 379 q 445 428 516 414 l 368 442 q 131 545 205 474 q 56 735 56 617 q 169 961 56 881 q 503 1041 283 1041 q 777 1006 654 1041 l 777 847 q 648 874 719 865 q 507 884 578 884 q 314 848 374 884 q 254 742 254 811 q 269 678 254 704 q 320 635 285 653 q 419 606 356 618 l 497 591 q 689 528 616 567 q 796 432 763 489 q 829 297 829 375 q 777 130 829 200 q 628 24 726 60 q 394 -13 530 -13 m 359 1111 l 506 1317 l 717 1317 l 540 1111 l 359 1111 z "},"Ṥ":{"ha":885,"x_min":56,"x_max":829,"o":"m 394 -13 q 78 33 225 -13 l 78 193 q 235 157 149 169 q 397 144 322 144 q 576 180 520 144 q 631 288 631 217 q 614 353 631 327 q 556 397 596 379 q 445 428 516 414 l 368 442 q 131 545 205 474 q 56 735 56 617 q 169 961 56 881 q 503 1041 283 1041 q 777 1006 654 1041 l 777 847 q 648 874 719 865 q 507 884 578 884 q 314 848 374 884 q 254 742 254 811 q 269 678 254 704 q 320 635 285 653 q 419 606 356 618 l 497 591 q 689 528 616 567 q 796 432 763 489 q 829 297 829 375 q 777 130 829 200 q 628 24 726 60 q 394 -13 530 -13 m 325 1289 q 250 1309 275 1289 q 225 1363 225 1328 q 250 1417 225 1397 q 325 1437 275 1437 q 400 1417 375 1437 q 426 1363 426 1397 q 401 1309 426 1328 q 325 1289 376 1289 m 359 1111 l 506 1317 l 717 1317 l 540 1111 l 359 1111 z "},"Š":{"ha":885,"x_min":56,"x_max":829,"o":"m 394 -13 q 78 33 225 -13 l 78 193 q 235 157 149 169 q 397 144 322 144 q 576 180 520 144 q 631 288 631 217 q 614 353 631 327 q 556 397 596 379 q 445 428 516 414 l 368 442 q 131 545 205 474 q 56 735 56 617 q 169 961 56 881 q 503 1041 283 1041 q 777 1006 654 1041 l 777 847 q 648 874 719 865 q 507 884 578 884 q 314 848 374 884 q 254 742 254 811 q 269 678 254 704 q 320 635 285 653 q 419 606 356 618 l 497 591 q 689 528 616 567 q 796 432 763 489 q 829 297 829 375 q 777 130 829 200 q 628 24 726 60 q 394 -13 530 -13 m 584 1317 l 750 1317 l 535 1111 l 367 1111 l 151 1317 l 317 1317 l 451 1186 l 584 1317 z "},"Ṧ":{"ha":885,"x_min":56,"x_max":829,"o":"m 394 -13 q 78 33 225 -13 l 78 193 q 235 157 149 169 q 397 144 322 144 q 576 180 520 144 q 631 288 631 217 q 614 353 631 327 q 556 397 596 379 q 445 428 516 414 l 368 442 q 131 545 205 474 q 56 735 56 617 q 169 961 56 881 q 503 1041 283 1041 q 777 1006 654 1041 l 777 847 q 648 874 719 865 q 507 884 578 884 q 314 848 374 884 q 254 742 254 811 q 269 678 254 704 q 320 635 285 653 q 419 606 356 618 l 497 591 q 689 528 616 567 q 796 432 763 489 q 829 297 829 375 q 777 130 829 200 q 628 24 726 60 q 394 -13 530 -13 m 451 1331 q 376 1351 401 1331 q 351 1405 351 1371 q 376 1460 351 1440 q 451 1480 401 1480 q 526 1460 501 1480 q 551 1405 551 1440 q 526 1351 551 1371 q 451 1331 501 1331 m 584 1317 l 750 1317 l 535 1111 l 367 1111 l 151 1317 l 317 1317 l 451 1186 l 584 1317 z "},"Ş":{"ha":885,"x_min":56,"x_max":829,"o":"m 829 297 q 789 147 829 212 q 672 43 749 83 q 488 -8 595 3 l 488 -62 q 589 -99 555 -69 q 622 -179 622 -128 q 575 -269 622 -237 q 438 -300 527 -300 q 288 -276 354 -300 l 288 -200 q 429 -225 358 -225 q 497 -213 474 -225 q 520 -174 520 -201 q 498 -134 520 -147 q 429 -122 475 -122 l 394 -122 l 394 -13 q 78 33 225 -13 l 78 193 q 235 157 149 169 q 397 144 322 144 q 576 180 520 144 q 631 288 631 217 q 614 353 631 327 q 556 397 596 379 q 445 428 516 414 l 368 442 q 131 545 205 474 q 56 735 56 617 q 169 961 56 881 q 503 1041 283 1041 q 777 1006 654 1041 l 777 847 q 648 874 719 865 q 507 884 578 884 q 314 848 374 884 q 254 742 254 811 q 269 678 254 704 q 320 635 285 653 q 419 606 356 618 l 497 591 q 689 528 616 567 q 796 432 763 489 q 829 297 829 375 z "},"Ŝ":{"ha":885,"x_min":56,"x_max":829,"o":"m 394 -13 q 78 33 225 -13 l 78 193 q 235 157 149 169 q 397 144 322 144 q 576 180 520 144 q 631 288 631 217 q 614 353 631 327 q 556 397 596 379 q 445 428 516 414 l 368 442 q 131 545 205 474 q 56 735 56 617 q 169 961 56 881 q 503 1041 283 1041 q 777 1006 654 1041 l 777 847 q 648 874 719 865 q 507 884 578 884 q 314 848 374 884 q 254 742 254 811 q 269 678 254 704 q 320 635 285 653 q 419 606 356 618 l 497 591 q 689 528 616 567 q 796 432 763 489 q 829 297 829 375 q 777 130 829 200 q 628 24 726 60 q 394 -13 530 -13 m 750 1111 l 584 1111 l 451 1242 l 317 1111 l 151 1111 l 367 1317 l 535 1317 l 750 1111 z "},"Ș":{"ha":885,"x_min":56,"x_max":829,"o":"m 394 -13 q 78 33 225 -13 l 78 193 q 235 157 149 169 q 397 144 322 144 q 576 180 520 144 q 631 288 631 217 q 614 353 631 327 q 556 397 596 379 q 445 428 516 414 l 368 442 q 131 545 205 474 q 56 735 56 617 q 169 961 56 881 q 503 1041 283 1041 q 777 1006 654 1041 l 777 847 q 648 874 719 865 q 507 884 578 884 q 314 848 374 884 q 254 742 254 811 q 269 678 254 704 q 320 635 285 653 q 419 606 356 618 l 497 591 q 689 528 616 567 q 796 432 763 489 q 829 297 829 375 q 777 130 829 200 q 628 24 726 60 q 394 -13 530 -13 m 449 -98 q 564 -192 564 -98 q 550 -267 564 -227 q 513 -338 537 -307 l 394 -338 q 429 -239 423 -281 q 338 -169 338 -232 q 365 -116 338 -135 q 449 -98 393 -98 z "},"Ṡ":{"ha":885,"x_min":56,"x_max":829,"o":"m 394 -13 q 78 33 225 -13 l 78 193 q 235 157 149 169 q 397 144 322 144 q 576 180 520 144 q 631 288 631 217 q 614 353 631 327 q 556 397 596 379 q 445 428 516 414 l 368 442 q 131 545 205 474 q 56 735 56 617 q 169 961 56 881 q 503 1041 283 1041 q 777 1006 654 1041 l 777 847 q 648 874 719 865 q 507 884 578 884 q 314 848 374 884 q 254 742 254 811 q 269 678 254 704 q 320 635 285 653 q 419 606 356 618 l 497 591 q 689 528 616 567 q 796 432 763 489 q 829 297 829 375 q 777 130 829 200 q 628 24 726 60 q 394 -13 530 -13 m 451 1128 q 360 1152 390 1128 q 331 1216 331 1175 q 360 1281 331 1257 q 451 1304 390 1304 q 541 1281 511 1304 q 571 1216 571 1257 q 541 1152 571 1175 q 451 1128 511 1128 z "},"Ṣ":{"ha":885,"x_min":56,"x_max":829,"o":"m 394 -13 q 78 33 225 -13 l 78 193 q 235 157 149 169 q 397 144 322 144 q 576 180 520 144 q 631 288 631 217 q 614 353 631 327 q 556 397 596 379 q 445 428 516 414 l 368 442 q 131 545 205 474 q 56 735 56 617 q 169 961 56 881 q 503 1041 283 1041 q 777 1006 654 1041 l 777 847 q 648 874 719 865 q 507 884 578 884 q 314 848 374 884 q 254 742 254 811 q 269 678 254 704 q 320 635 285 653 q 419 606 356 618 l 497 591 q 689 528 616 567 q 796 432 763 489 q 829 297 829 375 q 777 130 829 200 q 628 24 726 60 q 394 -13 530 -13 m 451 -273 q 360 -250 390 -273 q 331 -185 331 -226 q 360 -122 331 -145 q 451 -98 390 -98 q 541 -122 511 -98 q 571 -185 571 -145 q 541 -250 571 -226 q 451 -273 511 -273 z "},"Ṩ":{"ha":885,"x_min":56,"x_max":829,"o":"m 394 -13 q 78 33 225 -13 l 78 193 q 235 157 149 169 q 397 144 322 144 q 576 180 520 144 q 631 288 631 217 q 614 353 631 327 q 556 397 596 379 q 445 428 516 414 l 368 442 q 131 545 205 474 q 56 735 56 617 q 169 961 56 881 q 503 1041 283 1041 q 777 1006 654 1041 l 777 847 q 648 874 719 865 q 507 884 578 884 q 314 848 374 884 q 254 742 254 811 q 269 678 254 704 q 320 635 285 653 q 419 606 356 618 l 497 591 q 689 528 616 567 q 796 432 763 489 q 829 297 829 375 q 777 130 829 200 q 628 24 726 60 q 394 -13 530 -13 m 451 -273 q 360 -250 390 -273 q 331 -185 331 -226 q 360 -122 331 -145 q 451 -98 390 -98 q 541 -122 511 -98 q 571 -185 571 -145 q 541 -250 571 -226 q 451 -273 511 -273 m 451 1128 q 360 1152 390 1128 q 331 1216 331 1175 q 360 1281 331 1257 q 451 1304 390 1304 q 541 1281 511 1304 q 571 1216 571 1257 q 541 1152 571 1175 q 451 1128 511 1128 z "},"ẞ":{"ha":1394,"x_min":118,"x_max":1338,"o":"m 1015 591 q 1202 528 1131 567 q 1306 432 1274 488 q 1338 297 1338 375 q 1288 130 1338 200 q 1141 24 1237 60 q 912 -13 1045 -13 q 609 31 752 -13 l 609 191 q 761 156 677 168 q 911 144 844 144 q 1088 180 1033 144 q 1143 288 1143 216 q 1126 353 1143 327 q 1071 397 1109 379 q 965 428 1033 415 l 891 442 q 660 546 732 475 q 588 735 588 617 q 622 878 588 817 q 560 883 590 883 q 378 822 438 883 q 318 633 318 760 l 318 0 l 118 0 l 118 609 q 227 932 118 823 q 560 1041 336 1041 q 776 1003 683 1041 q 1025 1041 876 1041 q 1288 1008 1167 1041 l 1288 848 q 1164 875 1231 865 q 1032 884 1096 884 q 842 848 901 884 q 783 742 783 811 q 798 678 783 704 q 847 635 813 652 q 941 606 881 617 l 1015 591 z "},"Ə":{"ha":1199,"x_min":69,"x_max":1124,"o":"m 469 1041 q 959 910 793 1041 q 1124 506 1124 779 q 1061 222 1124 338 q 882 46 999 105 q 606 -13 766 -13 q 320 46 441 -13 q 134 222 199 105 q 69 508 69 338 l 69 576 l 923 576 q 784 810 901 738 q 456 883 667 883 q 296 874 380 883 q 140 848 213 865 l 140 1008 q 469 1041 292 1041 m 608 138 q 830 208 749 138 q 925 434 911 278 l 274 434 q 373 208 289 279 q 608 138 456 138 z "},"T":{"ha":972,"x_min":15,"x_max":958,"o":"m 386 0 l 386 869 l 15 869 l 15 1028 l 958 1028 l 958 869 l 586 869 l 586 0 l 386 0 z "},"Ŧ":{"ha":972,"x_min":15,"x_max":958,"o":"m 958 869 l 586 869 l 586 580 l 829 580 l 829 456 l 586 456 l 586 0 l 386 0 l 386 456 l 143 456 l 143 580 l 386 580 l 386 869 l 15 869 l 15 1028 l 958 1028 l 958 869 z "},"Ť":{"ha":972,"x_min":15,"x_max":958,"o":"m 386 0 l 386 869 l 15 869 l 15 1028 l 958 1028 l 958 869 l 586 869 l 586 0 l 386 0 m 619 1317 l 785 1317 l 570 1111 l 402 1111 l 187 1317 l 353 1317 l 486 1186 l 619 1317 z "},"Ţ":{"ha":972,"x_min":15,"x_max":958,"o":"m 523 0 l 523 -62 q 624 -99 590 -69 q 658 -179 658 -128 q 610 -269 658 -237 q 473 -300 563 -300 q 323 -276 390 -300 l 323 -200 q 465 -225 393 -225 q 533 -213 510 -225 q 556 -174 556 -201 q 533 -134 556 -147 q 465 -122 510 -122 l 429 -122 l 429 0 l 386 0 l 386 869 l 15 869 l 15 1028 l 958 1028 l 958 869 l 586 869 l 586 0 l 523 0 z "},"Ț":{"ha":972,"x_min":15,"x_max":958,"o":"m 386 0 l 386 869 l 15 869 l 15 1028 l 958 1028 l 958 869 l 586 869 l 586 0 l 386 0 m 485 -98 q 599 -192 599 -98 q 586 -267 599 -227 q 549 -338 572 -307 l 430 -338 q 465 -239 458 -281 q 373 -169 373 -232 q 401 -116 373 -135 q 485 -98 428 -98 z "},"Ṭ":{"ha":972,"x_min":15,"x_max":958,"o":"m 386 0 l 386 869 l 15 869 l 15 1028 l 958 1028 l 958 869 l 586 869 l 586 0 l 386 0 m 486 -273 q 396 -250 426 -273 q 366 -185 366 -226 q 396 -122 366 -145 q 486 -98 426 -98 q 576 -122 547 -98 q 606 -185 606 -145 q 576 -250 606 -226 q 486 -273 547 -273 z "},"Ṯ":{"ha":972,"x_min":15,"x_max":958,"o":"m 386 0 l 386 869 l 15 869 l 15 1028 l 958 1028 l 958 869 l 586 869 l 586 0 l 386 0 m 224 -239 l 224 -126 l 749 -126 l 749 -239 l 224 -239 z "},"U":{"ha":1152,"x_min":113,"x_max":1040,"o":"m 578 -13 q 225 100 338 -13 q 113 441 113 213 l 113 1028 l 313 1028 l 313 424 q 378 215 313 281 q 578 149 443 149 q 778 215 713 149 q 843 424 843 281 l 843 1028 l 1040 1028 l 1040 441 q 928 100 1040 213 q 578 -13 816 -13 z "},"Ú":{"ha":1152,"x_min":113,"x_max":1040,"o":"m 578 -13 q 225 100 338 -13 q 113 441 113 213 l 113 1028 l 313 1028 l 313 424 q 378 215 313 281 q 578 149 443 149 q 778 215 713 149 q 843 424 843 281 l 843 1028 l 1040 1028 l 1040 441 q 928 100 1040 213 q 578 -13 816 -13 m 486 1111 l 633 1317 l 844 1317 l 667 1111 l 486 1111 z "},"Ŭ":{"ha":1152,"x_min":113,"x_max":1040,"o":"m 578 -13 q 225 100 338 -13 q 113 441 113 213 l 113 1028 l 313 1028 l 313 424 q 378 215 313 281 q 578 149 443 149 q 778 215 713 149 q 843 424 843 281 l 843 1028 l 1040 1028 l 1040 441 q 928 100 1040 213 q 578 -13 816 -13 m 578 1115 q 377 1168 447 1115 q 293 1308 306 1221 l 415 1308 q 578 1212 437 1212 q 692 1237 654 1212 q 740 1308 730 1263 l 863 1308 q 780 1168 849 1221 q 578 1115 710 1115 z "},"Û":{"ha":1152,"x_min":113,"x_max":1040,"o":"m 578 -13 q 225 100 338 -13 q 113 441 113 213 l 113 1028 l 313 1028 l 313 424 q 378 215 313 281 q 578 149 443 149 q 778 215 713 149 q 843 424 843 281 l 843 1028 l 1040 1028 l 1040 441 q 928 100 1040 213 q 578 -13 816 -13 m 877 1111 l 711 1111 l 578 1242 l 444 1111 l 278 1111 l 494 1317 l 662 1317 l 877 1111 z "},"Ȕ":{"ha":1152,"x_min":113,"x_max":1040,"o":"m 578 -13 q 225 100 338 -13 q 113 441 113 213 l 113 1028 l 313 1028 l 313 424 q 378 215 313 281 q 578 149 443 149 q 778 215 713 149 q 843 424 843 281 l 843 1028 l 1040 1028 l 1040 441 q 928 100 1040 213 q 578 -13 816 -13 m 364 1111 l 241 1317 l 394 1317 l 507 1111 l 364 1111 m 649 1111 l 526 1317 l 679 1317 l 792 1111 l 649 1111 z "},"Ü":{"ha":1152,"x_min":113,"x_max":1040,"o":"m 578 -13 q 225 100 338 -13 q 113 441 113 213 l 113 1028 l 313 1028 l 313 424 q 378 215 313 281 q 578 149 443 149 q 778 215 713 149 q 843 424 843 281 l 843 1028 l 1040 1028 l 1040 441 q 928 100 1040 213 q 578 -13 816 -13 m 384 1128 q 305 1151 331 1128 q 278 1216 278 1174 q 305 1281 278 1258 q 384 1304 331 1304 q 463 1281 436 1304 q 489 1216 489 1258 q 463 1151 489 1174 q 384 1128 437 1128 m 772 1128 q 693 1151 719 1128 q 667 1216 667 1174 q 693 1281 667 1258 q 772 1304 719 1304 q 851 1281 824 1304 q 877 1216 877 1258 q 851 1151 877 1174 q 772 1128 824 1128 z "},"Ụ":{"ha":1152,"x_min":113,"x_max":1040,"o":"m 578 -13 q 225 100 338 -13 q 113 441 113 213 l 113 1028 l 313 1028 l 313 424 q 378 215 313 281 q 578 149 443 149 q 778 215 713 149 q 843 424 843 281 l 843 1028 l 1040 1028 l 1040 441 q 928 100 1040 213 q 578 -13 816 -13 m 578 -273 q 488 -250 517 -273 q 458 -185 458 -226 q 488 -122 458 -145 q 578 -98 517 -98 q 668 -122 638 -98 q 698 -185 698 -145 q 668 -250 698 -226 q 578 -273 638 -273 z "},"Ù":{"ha":1152,"x_min":113,"x_max":1040,"o":"m 578 -13 q 225 100 338 -13 q 113 441 113 213 l 113 1028 l 313 1028 l 313 424 q 378 215 313 281 q 578 149 443 149 q 778 215 713 149 q 843 424 843 281 l 843 1028 l 1040 1028 l 1040 441 q 928 100 1040 213 q 578 -13 816 -13 m 488 1111 l 310 1317 l 521 1317 l 668 1111 l 488 1111 z "},"Ủ":{"ha":1152,"x_min":113,"x_max":1040,"o":"m 578 -13 q 225 100 338 -13 q 113 441 113 213 l 113 1028 l 313 1028 l 313 424 q 378 215 313 281 q 578 149 443 149 q 778 215 713 149 q 843 424 843 281 l 843 1028 l 1040 1028 l 1040 441 q 928 100 1040 213 q 578 -13 816 -13 m 526 1111 q 548 1155 528 1139 q 605 1186 568 1170 q 642 1205 631 1197 q 654 1225 654 1213 q 569 1253 654 1253 q 497 1248 531 1253 q 423 1233 464 1244 l 423 1307 q 498 1322 456 1317 q 582 1327 540 1327 q 714 1303 671 1327 q 757 1237 757 1280 q 746 1200 757 1215 q 720 1176 735 1185 q 681 1154 706 1166 q 642 1133 655 1142 q 628 1111 630 1124 l 526 1111 z "},"Ư":{"ha":1152,"x_min":113,"x_max":1189,"o":"m 578 -13 q 225 100 338 -13 q 113 441 113 213 l 113 1028 l 313 1028 l 313 424 q 378 215 313 281 q 578 149 443 149 q 778 215 713 149 q 843 424 843 281 l 843 1028 l 905 1028 q 1020 1053 983 1028 q 1057 1135 1057 1078 q 1054 1181 1057 1158 q 1044 1233 1051 1203 l 1174 1233 q 1185 1181 1182 1205 q 1189 1131 1189 1158 q 1150 1007 1189 1055 q 1040 944 1112 959 l 1040 441 q 928 100 1040 213 q 578 -13 816 -13 z "},"Ứ":{"ha":1152,"x_min":113,"x_max":1189,"o":"m 578 -13 q 225 100 338 -13 q 113 441 113 213 l 113 1028 l 313 1028 l 313 424 q 378 215 313 281 q 578 149 443 149 q 778 215 713 149 q 843 424 843 281 l 843 1028 l 905 1028 q 1020 1053 983 1028 q 1057 1135 1057 1078 q 1054 1181 1057 1158 q 1044 1233 1051 1203 l 1174 1233 q 1185 1181 1182 1205 q 1189 1131 1189 1158 q 1150 1007 1189 1055 q 1040 944 1112 959 l 1040 441 q 928 100 1040 213 q 578 -13 816 -13 m 485 1111 l 632 1317 l 842 1317 l 665 1111 l 485 1111 z "},"Ự":{"ha":1152,"x_min":113,"x_max":1189,"o":"m 578 -13 q 225 100 338 -13 q 113 441 113 213 l 113 1028 l 313 1028 l 313 424 q 378 215 313 281 q 578 149 443 149 q 778 215 713 149 q 843 424 843 281 l 843 1028 l 905 1028 q 1020 1053 983 1028 q 1057 1135 1057 1078 q 1054 1181 1057 1158 q 1044 1233 1051 1203 l 1174 1233 q 1185 1181 1182 1205 q 1189 1131 1189 1158 q 1150 1007 1189 1055 q 1040 944 1112 959 l 1040 441 q 928 100 1040 213 q 578 -13 816 -13 m 576 -273 q 486 -250 516 -273 q 456 -185 456 -226 q 486 -122 456 -145 q 576 -98 516 -98 q 667 -122 637 -98 q 697 -185 697 -145 q 667 -250 697 -226 q 576 -273 637 -273 z "},"Ừ":{"ha":1152,"x_min":113,"x_max":1189,"o":"m 578 -13 q 225 100 338 -13 q 113 441 113 213 l 113 1028 l 313 1028 l 313 424 q 378 215 313 281 q 578 149 443 149 q 778 215 713 149 q 843 424 843 281 l 843 1028 l 905 1028 q 1020 1053 983 1028 q 1057 1135 1057 1078 q 1054 1181 1057 1158 q 1044 1233 1051 1203 l 1174 1233 q 1185 1181 1182 1205 q 1189 1131 1189 1158 q 1150 1007 1189 1055 q 1040 944 1112 959 l 1040 441 q 928 100 1040 213 q 578 -13 816 -13 m 486 1111 l 309 1317 l 519 1317 l 667 1111 l 486 1111 z "},"Ử":{"ha":1152,"x_min":113,"x_max":1189,"o":"m 578 -13 q 225 100 338 -13 q 113 441 113 213 l 113 1028 l 313 1028 l 313 424 q 378 215 313 281 q 578 149 443 149 q 778 215 713 149 q 843 424 843 281 l 843 1028 l 905 1028 q 1020 1053 983 1028 q 1057 1135 1057 1078 q 1054 1181 1057 1158 q 1044 1233 1051 1203 l 1174 1233 q 1185 1181 1182 1205 q 1189 1131 1189 1158 q 1150 1007 1189 1055 q 1040 944 1112 959 l 1040 441 q 928 100 1040 213 q 578 -13 816 -13 m 525 1111 q 547 1155 526 1139 q 603 1186 567 1170 q 641 1205 629 1197 q 653 1225 653 1213 q 568 1253 653 1253 q 496 1248 529 1253 q 422 1233 463 1244 l 422 1307 q 496 1322 454 1317 q 581 1327 538 1327 q 713 1303 669 1327 q 756 1237 756 1280 q 745 1200 756 1215 q 719 1176 734 1185 q 679 1154 704 1166 q 641 1133 653 1142 q 627 1111 628 1124 l 525 1111 z "},"Ữ":{"ha":1152,"x_min":113,"x_max":1189,"o":"m 578 -13 q 225 100 338 -13 q 113 441 113 213 l 113 1028 l 313 1028 l 313 424 q 378 215 313 281 q 578 149 443 149 q 778 215 713 149 q 843 424 843 281 l 843 1028 l 905 1028 q 1020 1053 983 1028 q 1057 1135 1057 1078 q 1054 1181 1057 1158 q 1044 1233 1051 1203 l 1174 1233 q 1185 1181 1182 1205 q 1189 1131 1189 1158 q 1150 1007 1189 1055 q 1040 944 1112 959 l 1040 441 q 928 100 1040 213 q 578 -13 816 -13 m 702 1137 q 639 1143 668 1137 q 565 1163 610 1149 q 501 1181 528 1175 q 447 1188 474 1188 q 370 1177 403 1188 q 303 1142 337 1166 l 303 1250 q 366 1286 331 1275 q 451 1298 401 1298 q 515 1291 485 1298 q 588 1271 544 1284 q 652 1253 625 1259 q 706 1247 678 1247 q 783 1258 750 1247 q 850 1293 817 1269 l 850 1184 q 786 1148 822 1160 q 702 1137 751 1137 z "},"Ű":{"ha":1152,"x_min":113,"x_max":1040,"o":"m 578 -13 q 225 100 338 -13 q 113 441 113 213 l 113 1028 l 313 1028 l 313 424 q 378 215 313 281 q 578 149 443 149 q 778 215 713 149 q 843 424 843 281 l 843 1028 l 1040 1028 l 1040 441 q 928 100 1040 213 q 578 -13 816 -13 m 364 1111 l 476 1317 l 630 1317 l 507 1111 l 364 1111 m 649 1111 l 761 1317 l 915 1317 l 792 1111 l 649 1111 z "},"Ȗ":{"ha":1152,"x_min":113,"x_max":1040,"o":"m 578 -13 q 225 100 338 -13 q 113 441 113 213 l 113 1028 l 313 1028 l 313 424 q 378 215 313 281 q 578 149 443 149 q 778 215 713 149 q 843 424 843 281 l 843 1028 l 1040 1028 l 1040 441 q 928 100 1040 213 q 578 -13 816 -13 m 293 1120 q 376 1260 306 1207 q 577 1313 446 1313 q 779 1259 708 1313 q 863 1120 849 1206 l 740 1120 q 577 1215 719 1215 q 464 1190 501 1215 q 415 1120 426 1165 l 293 1120 z "},"Ū":{"ha":1152,"x_min":113,"x_max":1040,"o":"m 578 -13 q 225 100 338 -13 q 113 441 113 213 l 113 1028 l 313 1028 l 313 424 q 378 215 313 281 q 578 149 443 149 q 778 215 713 149 q 843 424 843 281 l 843 1028 l 1040 1028 l 1040 441 q 928 100 1040 213 q 578 -13 816 -13 m 315 1158 l 315 1271 l 840 1271 l 840 1158 l 315 1158 z "},"Ṻ":{"ha":1152,"x_min":113,"x_max":1040,"o":"m 578 -13 q 225 100 338 -13 q 113 441 113 213 l 113 1028 l 313 1028 l 313 424 q 378 215 313 281 q 578 149 443 149 q 778 215 713 149 q 843 424 843 281 l 843 1028 l 1040 1028 l 1040 441 q 928 100 1040 213 q 578 -13 816 -13 m 315 1158 l 315 1271 l 840 1271 l 840 1158 l 315 1158 m 384 1364 q 305 1387 331 1364 q 278 1451 278 1410 q 305 1516 278 1493 q 384 1540 331 1540 q 463 1516 436 1540 q 489 1451 489 1493 q 463 1387 489 1410 q 384 1364 437 1364 m 772 1364 q 693 1387 719 1364 q 667 1451 667 1410 q 693 1516 667 1493 q 772 1540 719 1540 q 851 1516 824 1540 q 877 1451 877 1493 q 851 1387 877 1410 q 772 1364 824 1364 z "},"Ų":{"ha":1152,"x_min":113,"x_max":1040,"o":"m 1040 1028 l 1040 441 q 973 157 1040 264 q 766 10 906 49 q 609 -59 656 -22 q 563 -144 563 -97 q 589 -200 563 -181 q 669 -220 616 -220 q 719 -215 693 -220 q 780 -198 745 -210 l 780 -275 q 644 -299 715 -299 q 498 -262 547 -299 q 449 -158 449 -225 q 543 -12 449 -67 q 217 109 322 -4 q 113 441 113 222 l 113 1028 l 313 1028 l 313 424 q 378 215 313 281 q 578 149 443 149 q 778 215 713 149 q 843 424 843 281 l 843 1028 l 1040 1028 z "},"Ů":{"ha":1152,"x_min":113,"x_max":1040,"o":"m 578 -13 q 225 100 338 -13 q 113 441 113 213 l 113 1028 l 313 1028 l 313 424 q 378 215 313 281 q 578 149 443 149 q 778 215 713 149 q 843 424 843 281 l 843 1028 l 1040 1028 l 1040 441 q 928 100 1040 213 q 578 -13 816 -13 m 578 1103 q 504 1122 537 1103 q 452 1173 471 1140 q 433 1245 433 1205 q 452 1318 433 1285 q 504 1368 471 1350 q 578 1386 537 1386 q 652 1368 619 1386 q 703 1318 685 1350 q 722 1245 722 1285 q 703 1173 722 1205 q 652 1122 685 1140 q 578 1103 619 1103 m 578 1172 q 629 1192 610 1172 q 649 1245 649 1212 q 629 1298 649 1278 q 578 1318 609 1318 q 527 1298 547 1318 q 507 1245 507 1278 q 526 1192 507 1212 q 578 1172 546 1172 z "},"Ũ":{"ha":1152,"x_min":113,"x_max":1040,"o":"m 578 -13 q 225 100 338 -13 q 113 441 113 213 l 113 1028 l 313 1028 l 313 424 q 378 215 313 281 q 578 149 443 149 q 778 215 713 149 q 843 424 843 281 l 843 1028 l 1040 1028 l 1040 441 q 928 100 1040 213 q 578 -13 816 -13 m 703 1137 q 641 1143 669 1137 q 567 1163 612 1149 q 502 1181 529 1175 q 448 1188 476 1188 q 371 1177 404 1188 q 304 1142 338 1166 l 304 1250 q 368 1286 333 1275 q 452 1298 403 1298 q 516 1291 487 1298 q 589 1271 546 1284 q 653 1253 626 1259 q 708 1247 680 1247 q 785 1258 751 1247 q 851 1293 818 1269 l 851 1184 q 788 1148 823 1160 q 703 1137 752 1137 z "},"Ṹ":{"ha":1152,"x_min":113,"x_max":1040,"o":"m 578 -13 q 225 100 338 -13 q 113 441 113 213 l 113 1028 l 313 1028 l 313 424 q 378 215 313 281 q 578 149 443 149 q 778 215 713 149 q 843 424 843 281 l 843 1028 l 1040 1028 l 1040 441 q 928 100 1040 213 q 578 -13 816 -13 m 476 1347 l 623 1508 l 857 1508 l 680 1347 l 476 1347 m 703 1137 q 641 1143 669 1137 q 567 1163 612 1149 q 502 1181 529 1175 q 448 1188 476 1188 q 371 1177 404 1188 q 304 1142 338 1166 l 304 1250 q 368 1286 333 1275 q 452 1298 403 1298 q 516 1291 487 1298 q 589 1271 546 1284 q 653 1253 626 1259 q 708 1247 680 1247 q 785 1258 751 1247 q 851 1293 818 1269 l 851 1184 q 788 1148 823 1160 q 703 1137 752 1137 z "},"V":{"ha":1098,"x_min":10,"x_max":1088,"o":"m 890 1028 l 1088 1028 l 693 0 l 405 0 l 10 1028 l 222 1028 l 554 149 l 890 1028 z "},"W":{"ha":1756,"x_min":35,"x_max":1720,"o":"m 1528 1028 l 1720 1028 l 1399 0 l 1144 0 l 880 835 l 612 0 l 357 0 l 35 1028 l 239 1028 l 497 174 l 770 1028 l 995 1028 l 1264 165 l 1528 1028 z "},"Ẃ":{"ha":1756,"x_min":35,"x_max":1720,"o":"m 1528 1028 l 1720 1028 l 1399 0 l 1144 0 l 880 835 l 612 0 l 357 0 l 35 1028 l 239 1028 l 497 174 l 770 1028 l 995 1028 l 1264 165 l 1528 1028 m 787 1111 l 934 1317 l 1144 1317 l 967 1111 l 787 1111 z "},"Ŵ":{"ha":1756,"x_min":35,"x_max":1720,"o":"m 1528 1028 l 1720 1028 l 1399 0 l 1144 0 l 880 835 l 612 0 l 357 0 l 35 1028 l 239 1028 l 497 174 l 770 1028 l 995 1028 l 1264 165 l 1528 1028 m 1178 1111 l 1012 1111 l 878 1242 l 745 1111 l 579 1111 l 794 1317 l 963 1317 l 1178 1111 z "},"Ẅ":{"ha":1756,"x_min":35,"x_max":1720,"o":"m 1528 1028 l 1720 1028 l 1399 0 l 1144 0 l 880 835 l 612 0 l 357 0 l 35 1028 l 239 1028 l 497 174 l 770 1028 l 995 1028 l 1264 165 l 1528 1028 m 685 1128 q 606 1151 632 1128 q 579 1216 579 1174 q 606 1281 579 1258 q 685 1304 632 1304 q 763 1281 737 1304 q 790 1216 790 1258 q 764 1151 790 1174 q 685 1128 738 1128 m 1072 1128 q 993 1151 1019 1128 q 967 1216 967 1174 q 994 1281 967 1258 q 1072 1304 1020 1304 q 1151 1281 1125 1304 q 1178 1216 1178 1258 q 1151 1151 1178 1174 q 1072 1128 1125 1128 z "},"Ẁ":{"ha":1756,"x_min":35,"x_max":1720,"o":"m 1528 1028 l 1720 1028 l 1399 0 l 1144 0 l 880 835 l 612 0 l 357 0 l 35 1028 l 239 1028 l 497 174 l 770 1028 l 995 1028 l 1264 165 l 1528 1028 m 788 1111 l 611 1317 l 822 1317 l 969 1111 l 788 1111 z "},"X":{"ha":1034,"x_min":-13,"x_max":1047,"o":"m 634 532 l 1047 0 l 821 0 l 513 397 l 207 0 l -13 0 l 397 528 l 7 1028 l 234 1028 l 518 663 l 801 1028 l 1020 1028 l 634 532 z "},"Y":{"ha":972,"x_min":-28,"x_max":990,"o":"m 990 1028 l 588 442 l 588 0 l 388 0 l 388 440 l -28 1028 l 189 1028 l 491 600 l 787 1028 l 990 1028 z "},"Ý":{"ha":972,"x_min":-28,"x_max":990,"o":"m 990 1028 l 588 442 l 588 0 l 388 0 l 388 440 l -28 1028 l 189 1028 l 491 600 l 787 1028 l 990 1028 m 394 1111 l 541 1317 l 751 1317 l 574 1111 l 394 1111 z "},"Ŷ":{"ha":972,"x_min":-28,"x_max":990,"o":"m 990 1028 l 588 442 l 588 0 l 388 0 l 388 440 l -28 1028 l 189 1028 l 491 600 l 787 1028 l 990 1028 m 785 1111 l 619 1111 l 485 1242 l 352 1111 l 186 1111 l 401 1317 l 569 1317 l 785 1111 z "},"Ÿ":{"ha":972,"x_min":-28,"x_max":990,"o":"m 990 1028 l 588 442 l 588 0 l 388 0 l 388 440 l -28 1028 l 189 1028 l 491 600 l 787 1028 l 990 1028 m 292 1128 q 213 1151 239 1128 q 186 1216 186 1174 q 213 1281 186 1258 q 292 1304 239 1304 q 370 1281 344 1304 q 397 1216 397 1258 q 370 1151 397 1174 q 292 1128 344 1128 m 679 1128 q 600 1151 626 1128 q 574 1216 574 1174 q 601 1281 574 1258 q 679 1304 627 1304 q 758 1281 732 1304 q 785 1216 785 1258 q 758 1151 785 1174 q 679 1128 732 1128 z "},"Ẏ":{"ha":972,"x_min":-28,"x_max":990,"o":"m 990 1028 l 588 442 l 588 0 l 388 0 l 388 440 l -28 1028 l 189 1028 l 491 600 l 787 1028 l 990 1028 m 485 1128 q 395 1152 425 1128 q 365 1216 365 1175 q 395 1281 365 1257 q 485 1304 425 1304 q 576 1281 546 1304 q 606 1216 606 1257 q 576 1152 606 1175 q 485 1128 546 1128 z "},"Ỵ":{"ha":972,"x_min":-28,"x_max":990,"o":"m 990 1028 l 588 442 l 588 0 l 388 0 l 388 440 l -28 1028 l 189 1028 l 491 600 l 787 1028 l 990 1028 m 485 -273 q 395 -250 425 -273 q 365 -185 365 -226 q 395 -122 365 -145 q 485 -98 425 -98 q 576 -122 546 -98 q 606 -185 606 -145 q 576 -250 606 -226 q 485 -273 546 -273 z "},"Ỳ":{"ha":972,"x_min":-28,"x_max":990,"o":"m 990 1028 l 588 442 l 588 0 l 388 0 l 388 440 l -28 1028 l 189 1028 l 491 600 l 787 1028 l 990 1028 m 395 1111 l 218 1317 l 428 1317 l 576 1111 l 395 1111 z "},"Ỷ":{"ha":972,"x_min":-28,"x_max":990,"o":"m 990 1028 l 588 442 l 588 0 l 388 0 l 388 440 l -28 1028 l 189 1028 l 491 600 l 787 1028 l 990 1028 m 434 1111 q 456 1155 435 1139 q 513 1186 476 1170 q 550 1205 538 1197 q 562 1225 562 1213 q 477 1253 562 1253 q 405 1248 438 1253 q 331 1233 372 1244 l 331 1307 q 405 1322 363 1317 q 490 1327 447 1327 q 622 1303 578 1327 q 665 1237 665 1280 q 654 1200 665 1215 q 628 1176 643 1185 q 588 1154 613 1166 q 550 1133 563 1142 q 536 1111 538 1124 l 434 1111 z "},"Ȳ":{"ha":972,"x_min":-28,"x_max":990,"o":"m 990 1028 l 588 442 l 588 0 l 388 0 l 388 440 l -28 1028 l 189 1028 l 491 600 l 787 1028 l 990 1028 m 223 1158 l 223 1271 l 748 1271 l 748 1158 l 223 1158 z "},"Ỹ":{"ha":972,"x_min":-28,"x_max":990,"o":"m 990 1028 l 588 442 l 588 0 l 388 0 l 388 440 l -28 1028 l 189 1028 l 491 600 l 787 1028 l 990 1028 m 611 1137 q 548 1143 577 1137 q 474 1163 519 1149 q 410 1181 437 1175 q 356 1188 383 1188 q 279 1177 312 1188 q 212 1142 246 1166 l 212 1250 q 275 1286 240 1275 q 360 1298 310 1298 q 424 1291 394 1298 q 497 1271 453 1284 q 561 1253 534 1259 q 615 1247 588 1247 q 692 1258 659 1247 q 759 1293 726 1269 l 759 1184 q 695 1148 731 1160 q 611 1137 660 1137 z "},"Z":{"ha":957,"x_min":54,"x_max":903,"o":"m 315 158 l 903 158 l 903 0 l 54 0 l 54 108 l 634 869 l 62 869 l 62 1028 l 895 1028 l 895 919 l 315 158 z "},"Ź":{"ha":957,"x_min":54,"x_max":903,"o":"m 315 158 l 903 158 l 903 0 l 54 0 l 54 108 l 634 869 l 62 869 l 62 1028 l 895 1028 l 895 919 l 315 158 m 388 1111 l 535 1317 l 745 1317 l 568 1111 l 388 1111 z "},"Ž":{"ha":957,"x_min":54,"x_max":903,"o":"m 315 158 l 903 158 l 903 0 l 54 0 l 54 108 l 634 869 l 62 869 l 62 1028 l 895 1028 l 895 919 l 315 158 m 613 1317 l 778 1317 l 563 1111 l 395 1111 l 180 1317 l 346 1317 l 479 1186 l 613 1317 z "},"Ż":{"ha":957,"x_min":54,"x_max":903,"o":"m 315 158 l 903 158 l 903 0 l 54 0 l 54 108 l 634 869 l 62 869 l 62 1028 l 895 1028 l 895 919 l 315 158 m 479 1128 q 389 1152 419 1128 q 359 1216 359 1175 q 389 1281 359 1257 q 479 1304 419 1304 q 569 1281 540 1304 q 599 1216 599 1257 q 569 1152 599 1175 q 479 1128 540 1128 z "},"Ẓ":{"ha":957,"x_min":54,"x_max":903,"o":"m 315 158 l 903 158 l 903 0 l 54 0 l 54 108 l 634 869 l 62 869 l 62 1028 l 895 1028 l 895 919 l 315 158 m 479 -273 q 389 -250 419 -273 q 359 -185 359 -226 q 389 -122 359 -145 q 479 -98 419 -98 q 569 -122 540 -98 q 599 -185 599 -145 q 569 -250 599 -226 q 479 -273 540 -273 z "},"a":{"ha":858,"x_min":65,"x_max":760,"o":"m 391 769 q 601 740 521 769 q 720 640 681 710 q 760 451 760 571 l 760 0 l 597 0 l 583 76 l 574 76 q 469 10 532 33 q 335 -13 407 -13 q 188 14 249 -13 q 96 90 127 41 q 65 203 65 138 q 144 364 65 307 q 397 434 224 422 l 568 450 l 568 465 q 547 561 568 527 q 480 610 525 596 q 360 625 435 625 q 245 616 307 625 q 127 590 183 608 l 127 733 q 256 760 185 751 q 391 769 326 769 m 393 118 q 486 134 441 118 q 568 182 531 150 l 568 340 l 413 326 q 295 291 331 317 q 260 218 260 265 q 293 144 260 171 q 393 118 326 118 z "},"á":{"ha":858,"x_min":65,"x_max":760,"o":"m 391 769 q 601 740 521 769 q 720 640 681 710 q 760 451 760 571 l 760 0 l 597 0 l 583 76 l 574 76 q 469 10 532 33 q 335 -13 407 -13 q 188 14 249 -13 q 96 90 127 41 q 65 203 65 138 q 144 364 65 307 q 397 434 224 422 l 568 450 l 568 465 q 547 561 568 527 q 480 610 525 596 q 360 625 435 625 q 245 616 307 625 q 127 590 183 608 l 127 733 q 256 760 185 751 q 391 769 326 769 m 393 118 q 486 134 441 118 q 568 182 531 150 l 568 340 l 413 326 q 295 291 331 317 q 260 218 260 265 q 293 144 260 171 q 393 118 326 118 m 333 861 l 515 1122 l 732 1122 l 520 861 l 333 861 z "},"ă":{"ha":858,"x_min":65,"x_max":760,"o":"m 391 769 q 601 740 521 769 q 720 640 681 710 q 760 451 760 571 l 760 0 l 597 0 l 583 76 l 574 76 q 469 10 532 33 q 335 -13 407 -13 q 188 14 249 -13 q 96 90 127 41 q 65 203 65 138 q 144 364 65 307 q 397 434 224 422 l 568 450 l 568 465 q 547 561 568 527 q 480 610 525 596 q 360 625 435 625 q 245 616 307 625 q 127 590 183 608 l 127 733 q 256 760 185 751 q 391 769 326 769 m 393 118 q 486 134 441 118 q 568 182 531 150 l 568 340 l 413 326 q 295 291 331 317 q 260 218 260 265 q 293 144 260 171 q 393 118 326 118 m 427 867 q 233 931 302 867 q 158 1106 163 995 l 278 1106 q 427 967 290 967 q 575 1106 563 967 l 695 1106 q 621 931 690 994 q 427 867 552 867 z "},"ắ":{"ha":858,"x_min":65,"x_max":760,"o":"m 391 769 q 601 740 521 769 q 720 640 681 710 q 760 451 760 571 l 760 0 l 597 0 l 583 76 l 574 76 q 469 10 532 33 q 335 -13 407 -13 q 188 14 249 -13 q 96 90 127 41 q 65 203 65 138 q 144 364 65 307 q 397 434 224 422 l 568 450 l 568 465 q 547 561 568 527 q 480 610 525 596 q 360 625 435 625 q 245 616 307 625 q 127 590 183 608 l 127 733 q 256 760 185 751 q 391 769 326 769 m 393 118 q 486 134 441 118 q 568 182 531 150 l 568 340 l 413 326 q 295 291 331 317 q 260 218 260 265 q 293 144 260 171 q 393 118 326 118 m 353 1109 l 501 1297 l 674 1297 l 497 1109 l 353 1109 m 427 869 q 230 930 299 869 q 149 1088 160 990 l 270 1088 q 317 999 279 1031 q 427 966 355 966 q 536 999 499 966 q 583 1088 574 1031 l 704 1088 q 624 929 693 989 q 427 869 555 869 z "},"ặ":{"ha":858,"x_min":65,"x_max":760,"o":"m 391 769 q 601 740 521 769 q 720 640 681 710 q 760 451 760 571 l 760 0 l 597 0 l 583 76 l 574 76 q 469 10 532 33 q 335 -13 407 -13 q 188 14 249 -13 q 96 90 127 41 q 65 203 65 138 q 144 364 65 307 q 397 434 224 422 l 568 450 l 568 465 q 547 561 568 527 q 480 610 525 596 q 360 625 435 625 q 245 616 307 625 q 127 590 183 608 l 127 733 q 256 760 185 751 q 391 769 326 769 m 393 118 q 486 134 441 118 q 568 182 531 150 l 568 340 l 413 326 q 295 291 331 317 q 260 218 260 265 q 293 144 260 171 q 393 118 326 118 m 434 -287 q 354 -261 381 -287 q 326 -192 326 -236 q 354 -123 326 -149 q 434 -98 381 -98 q 514 -123 487 -98 q 542 -192 542 -149 q 514 -261 542 -236 q 434 -287 487 -287 m 427 867 q 233 931 302 867 q 158 1106 163 995 l 278 1106 q 427 967 290 967 q 575 1106 563 967 l 695 1106 q 621 931 690 994 q 427 867 552 867 z "},"ằ":{"ha":858,"x_min":65,"x_max":760,"o":"m 391 769 q 601 740 521 769 q 720 640 681 710 q 760 451 760 571 l 760 0 l 597 0 l 583 76 l 574 76 q 469 10 532 33 q 335 -13 407 -13 q 188 14 249 -13 q 96 90 127 41 q 65 203 65 138 q 144 364 65 307 q 397 434 224 422 l 568 450 l 568 465 q 547 561 568 527 q 480 610 525 596 q 360 625 435 625 q 245 616 307 625 q 127 590 183 608 l 127 733 q 256 760 185 751 q 391 769 326 769 m 393 118 q 486 134 441 118 q 568 182 531 150 l 568 340 l 413 326 q 295 291 331 317 q 260 218 260 265 q 293 144 260 171 q 393 118 326 118 m 356 1109 l 179 1297 l 352 1297 l 499 1109 l 356 1109 m 427 869 q 230 930 299 869 q 149 1088 160 990 l 270 1088 q 317 999 279 1031 q 427 966 355 966 q 536 999 499 966 q 583 1088 574 1031 l 704 1088 q 624 929 693 989 q 427 869 555 869 z "},"ẳ":{"ha":858,"x_min":65,"x_max":760,"o":"m 391 769 q 601 740 521 769 q 720 640 681 710 q 760 451 760 571 l 760 0 l 597 0 l 583 76 l 574 76 q 469 10 532 33 q 335 -13 407 -13 q 188 14 249 -13 q 96 90 127 41 q 65 203 65 138 q 144 364 65 307 q 397 434 224 422 l 568 450 l 568 465 q 547 561 568 527 q 480 610 525 596 q 360 625 435 625 q 245 616 307 625 q 127 590 183 608 l 127 733 q 256 760 185 751 q 391 769 326 769 m 393 118 q 486 134 441 118 q 568 182 531 150 l 568 340 l 413 326 q 295 291 331 317 q 260 218 260 265 q 293 144 260 171 q 393 118 326 118 m 375 1109 q 397 1150 376 1135 q 453 1178 417 1164 q 491 1195 478 1188 q 503 1215 503 1203 q 418 1241 503 1241 q 347 1237 380 1241 q 272 1223 313 1233 l 272 1288 q 347 1302 305 1297 q 431 1307 389 1307 q 563 1285 519 1307 q 606 1224 606 1264 q 586 1181 606 1197 q 530 1149 567 1165 q 491 1129 503 1138 q 477 1109 478 1121 l 375 1109 m 427 869 q 230 930 299 869 q 149 1088 160 990 l 270 1088 q 317 999 279 1031 q 427 966 355 966 q 536 999 499 966 q 583 1088 574 1031 l 704 1088 q 624 929 693 989 q 427 869 555 869 z "},"ẵ":{"ha":858,"x_min":65,"x_max":760,"o":"m 391 769 q 601 740 521 769 q 720 640 681 710 q 760 451 760 571 l 760 0 l 597 0 l 583 76 l 574 76 q 469 10 532 33 q 335 -13 407 -13 q 188 14 249 -13 q 96 90 127 41 q 65 203 65 138 q 144 364 65 307 q 397 434 224 422 l 568 450 l 568 465 q 547 561 568 527 q 480 610 525 596 q 360 625 435 625 q 245 616 307 625 q 127 590 183 608 l 127 733 q 256 760 185 751 q 391 769 326 769 m 393 118 q 486 134 441 118 q 568 182 531 150 l 568 340 l 413 326 q 295 291 331 317 q 260 218 260 265 q 293 144 260 171 q 393 118 326 118 m 556 1134 q 490 1140 521 1134 q 414 1158 459 1146 q 349 1175 376 1169 q 293 1181 322 1181 q 214 1170 249 1181 q 144 1138 180 1160 l 144 1234 q 211 1267 174 1257 q 297 1278 248 1278 q 364 1272 333 1278 q 439 1253 396 1265 q 506 1236 481 1241 q 560 1231 532 1231 q 639 1241 604 1231 q 709 1274 673 1251 l 709 1177 q 642 1144 678 1155 q 556 1134 606 1134 m 427 869 q 230 930 299 869 q 149 1088 160 990 l 270 1088 q 317 999 279 1031 q 427 966 355 966 q 536 999 499 966 q 583 1088 574 1031 l 704 1088 q 624 929 693 989 q 427 869 555 869 z "},"â":{"ha":858,"x_min":65,"x_max":760,"o":"m 391 769 q 601 740 521 769 q 720 640 681 710 q 760 451 760 571 l 760 0 l 597 0 l 583 76 l 574 76 q 469 10 532 33 q 335 -13 407 -13 q 188 14 249 -13 q 96 90 127 41 q 65 203 65 138 q 144 364 65 307 q 397 434 224 422 l 568 450 l 568 465 q 547 561 568 527 q 480 610 525 596 q 360 625 435 625 q 245 616 307 625 q 127 590 183 608 l 127 733 q 256 760 185 751 q 391 769 326 769 m 393 118 q 486 134 441 118 q 568 182 531 150 l 568 340 l 413 326 q 295 291 331 317 q 260 218 260 265 q 293 144 260 171 q 393 118 326 118 m 696 861 l 545 861 l 426 1028 l 308 861 l 157 861 l 347 1122 l 506 1122 l 696 861 z "},"ấ":{"ha":858,"x_min":65,"x_max":913,"o":"m 391 769 q 601 740 521 769 q 720 640 681 710 q 760 451 760 571 l 760 0 l 597 0 l 583 76 l 574 76 q 469 10 532 33 q 335 -13 407 -13 q 188 14 249 -13 q 96 90 127 41 q 65 203 65 138 q 144 364 65 307 q 397 434 224 422 l 568 450 l 568 465 q 547 561 568 527 q 480 610 525 596 q 360 625 435 625 q 245 616 307 625 q 127 590 183 608 l 127 733 q 256 760 185 751 q 391 769 326 769 m 393 118 q 486 134 441 118 q 568 182 531 150 l 568 340 l 413 326 q 295 291 331 317 q 260 218 260 265 q 293 144 260 171 q 393 118 326 118 m 739 1297 l 913 1297 l 735 1109 l 592 1109 l 739 1297 m 347 1122 l 506 1122 l 696 861 l 545 861 l 426 1028 l 308 861 l 157 861 l 347 1122 z "},"ậ":{"ha":858,"x_min":65,"x_max":760,"o":"m 391 769 q 601 740 521 769 q 720 640 681 710 q 760 451 760 571 l 760 0 l 597 0 l 583 76 l 574 76 q 469 10 532 33 q 335 -13 407 -13 q 188 14 249 -13 q 96 90 127 41 q 65 203 65 138 q 144 364 65 307 q 397 434 224 422 l 568 450 l 568 465 q 547 561 568 527 q 480 610 525 596 q 360 625 435 625 q 245 616 307 625 q 127 590 183 608 l 127 733 q 256 760 185 751 q 391 769 326 769 m 393 118 q 486 134 441 118 q 568 182 531 150 l 568 340 l 413 326 q 295 291 331 317 q 260 218 260 265 q 293 144 260 171 q 393 118 326 118 m 434 -287 q 354 -261 381 -287 q 326 -192 326 -236 q 354 -123 326 -149 q 434 -98 381 -98 q 514 -123 487 -98 q 542 -192 542 -149 q 514 -261 542 -236 q 434 -287 487 -287 m 696 861 l 545 861 l 426 1028 l 308 861 l 157 861 l 347 1122 l 506 1122 l 696 861 z "},"ầ":{"ha":858,"x_min":65,"x_max":760,"o":"m 391 769 q 601 740 521 769 q 720 640 681 710 q 760 451 760 571 l 760 0 l 597 0 l 583 76 l 574 76 q 469 10 532 33 q 335 -13 407 -13 q 188 14 249 -13 q 96 90 127 41 q 65 203 65 138 q 144 364 65 307 q 397 434 224 422 l 568 450 l 568 465 q 547 561 568 527 q 480 610 525 596 q 360 625 435 625 q 245 616 307 625 q 127 590 183 608 l 127 733 q 256 760 185 751 q 391 769 326 769 m 393 118 q 486 134 441 118 q 568 182 531 150 l 568 340 l 413 326 q 295 291 331 317 q 260 218 260 265 q 293 144 260 171 q 393 118 326 118 m 758 1109 l 615 1109 l 438 1297 l 610 1297 l 758 1109 m 347 1122 l 506 1122 l 696 861 l 545 861 l 426 1028 l 308 861 l 157 861 l 347 1122 z "},"ẩ":{"ha":858,"x_min":65,"x_max":804,"o":"m 391 769 q 601 740 521 769 q 720 640 681 710 q 760 451 760 571 l 760 0 l 597 0 l 583 76 l 574 76 q 469 10 532 33 q 335 -13 407 -13 q 188 14 249 -13 q 96 90 127 41 q 65 203 65 138 q 144 364 65 307 q 397 434 224 422 l 568 450 l 568 465 q 547 561 568 527 q 480 610 525 596 q 360 625 435 625 q 245 616 307 625 q 127 590 183 608 l 127 733 q 256 760 185 751 q 391 769 326 769 m 393 118 q 486 134 441 118 q 568 182 531 150 l 568 340 l 413 326 q 295 291 331 317 q 260 218 260 265 q 293 144 260 171 q 393 118 326 118 m 644 1307 q 766 1286 727 1307 q 804 1225 804 1266 q 789 1188 804 1201 q 742 1160 774 1174 q 702 1137 715 1147 q 686 1109 688 1126 l 594 1109 q 616 1155 597 1139 q 669 1184 635 1170 q 699 1199 690 1192 q 708 1215 708 1206 q 691 1235 708 1228 q 632 1242 673 1242 q 497 1225 562 1242 l 497 1288 q 565 1302 525 1297 q 644 1307 606 1307 m 347 1122 l 506 1122 l 696 861 l 545 861 l 426 1028 l 308 861 l 157 861 l 347 1122 z "},"ẫ":{"ha":858,"x_min":65,"x_max":760,"o":"m 391 769 q 601 740 521 769 q 720 640 681 710 q 760 451 760 571 l 760 0 l 597 0 l 583 76 l 574 76 q 469 10 532 33 q 335 -13 407 -13 q 188 14 249 -13 q 96 90 127 41 q 65 203 65 138 q 144 364 65 307 q 397 434 224 422 l 568 450 l 568 465 q 547 561 568 527 q 480 610 525 596 q 360 625 435 625 q 245 616 307 625 q 127 590 183 608 l 127 733 q 256 760 185 751 q 391 769 326 769 m 393 118 q 486 134 441 118 q 568 182 531 150 l 568 340 l 413 326 q 295 291 331 317 q 260 218 260 265 q 293 144 260 171 q 393 118 326 118 m 549 1134 q 486 1140 515 1134 q 415 1158 458 1146 q 351 1175 376 1169 q 300 1181 327 1181 q 225 1170 258 1181 q 159 1138 192 1160 l 159 1234 q 223 1267 188 1256 q 304 1278 258 1278 q 367 1272 338 1278 q 438 1253 397 1265 q 501 1236 477 1242 q 553 1231 526 1231 q 628 1241 595 1231 q 694 1274 660 1251 l 694 1177 q 631 1144 666 1155 q 549 1134 596 1134 m 718 862 l 557 862 l 426 1015 l 296 862 l 135 862 l 342 1093 l 510 1093 l 718 862 z "},"ȁ":{"ha":858,"x_min":65,"x_max":760,"o":"m 391 769 q 601 740 521 769 q 720 640 681 710 q 760 451 760 571 l 760 0 l 597 0 l 583 76 l 574 76 q 469 10 532 33 q 335 -13 407 -13 q 188 14 249 -13 q 96 90 127 41 q 65 203 65 138 q 144 364 65 307 q 397 434 224 422 l 568 450 l 568 465 q 547 561 568 527 q 480 610 525 596 q 360 625 435 625 q 245 616 307 625 q 127 590 183 608 l 127 733 q 256 760 185 751 q 391 769 326 769 m 393 118 q 486 134 441 118 q 568 182 531 150 l 568 340 l 413 326 q 295 291 331 317 q 260 218 260 265 q 293 144 260 171 q 393 118 326 118 m 213 861 l 82 1122 l 236 1122 l 356 861 l 213 861 m 497 861 l 367 1122 l 521 1122 l 640 861 l 497 861 z "},"ä":{"ha":858,"x_min":65,"x_max":760,"o":"m 391 769 q 601 740 521 769 q 720 640 681 710 q 760 451 760 571 l 760 0 l 597 0 l 583 76 l 574 76 q 469 10 532 33 q 335 -13 407 -13 q 188 14 249 -13 q 96 90 127 41 q 65 203 65 138 q 144 364 65 307 q 397 434 224 422 l 568 450 l 568 465 q 547 561 568 527 q 480 610 525 596 q 360 625 435 625 q 245 616 307 625 q 127 590 183 608 l 127 733 q 256 760 185 751 q 391 769 326 769 m 393 118 q 486 134 441 118 q 568 182 531 150 l 568 340 l 413 326 q 295 291 331 317 q 260 218 260 265 q 293 144 260 171 q 393 118 326 118 m 242 888 q 162 914 189 888 q 135 986 135 940 q 162 1059 135 1033 q 242 1085 189 1085 q 323 1059 296 1085 q 350 986 350 1033 q 323 914 350 940 q 242 888 296 888 m 610 888 q 530 914 557 888 q 503 986 503 940 q 530 1059 503 1033 q 610 1085 557 1085 q 691 1059 664 1085 q 718 986 718 1033 q 691 914 718 940 q 610 888 664 888 z "},"ạ":{"ha":858,"x_min":65,"x_max":760,"o":"m 391 769 q 601 740 521 769 q 720 640 681 710 q 760 451 760 571 l 760 0 l 597 0 l 583 76 l 574 76 q 469 10 532 33 q 335 -13 407 -13 q 188 14 249 -13 q 96 90 127 41 q 65 203 65 138 q 144 364 65 307 q 397 434 224 422 l 568 450 l 568 465 q 547 561 568 527 q 480 610 525 596 q 360 625 435 625 q 245 616 307 625 q 127 590 183 608 l 127 733 q 256 760 185 751 q 391 769 326 769 m 393 118 q 486 134 441 118 q 568 182 531 150 l 568 340 l 413 326 q 295 291 331 317 q 260 218 260 265 q 293 144 260 171 q 393 118 326 118 m 434 -287 q 354 -261 381 -287 q 326 -192 326 -236 q 354 -123 326 -149 q 434 -98 381 -98 q 514 -123 487 -98 q 542 -192 542 -149 q 514 -261 542 -236 q 434 -287 487 -287 z "},"à":{"ha":858,"x_min":65,"x_max":760,"o":"m 391 769 q 601 740 521 769 q 720 640 681 710 q 760 451 760 571 l 760 0 l 597 0 l 583 76 l 574 76 q 469 10 532 33 q 335 -13 407 -13 q 188 14 249 -13 q 96 90 127 41 q 65 203 65 138 q 144 364 65 307 q 397 434 224 422 l 568 450 l 568 465 q 547 561 568 527 q 480 610 525 596 q 360 625 435 625 q 245 616 307 625 q 127 590 183 608 l 127 733 q 256 760 185 751 q 391 769 326 769 m 393 118 q 486 134 441 118 q 568 182 531 150 l 568 340 l 413 326 q 295 291 331 317 q 260 218 260 265 q 293 144 260 171 q 393 118 326 118 m 333 861 l 121 1122 l 338 1122 l 520 861 l 333 861 z "},"ả":{"ha":858,"x_min":65,"x_max":760,"o":"m 391 769 q 601 740 521 769 q 720 640 681 710 q 760 451 760 571 l 760 0 l 597 0 l 583 76 l 574 76 q 469 10 532 33 q 335 -13 407 -13 q 188 14 249 -13 q 96 90 127 41 q 65 203 65 138 q 144 364 65 307 q 397 434 224 422 l 568 450 l 568 465 q 547 561 568 527 q 480 610 525 596 q 360 625 435 625 q 245 616 307 625 q 127 590 183 608 l 127 733 q 256 760 185 751 q 391 769 326 769 m 393 118 q 486 134 441 118 q 568 182 531 150 l 568 340 l 413 326 q 295 291 331 317 q 260 218 260 265 q 293 144 260 171 q 393 118 326 118 m 376 861 q 389 909 378 889 q 415 941 400 928 q 451 967 429 953 q 484 992 474 982 q 494 1017 494 1002 q 475 1045 494 1037 q 413 1054 456 1054 q 289 1038 351 1054 l 289 1113 q 353 1126 315 1122 q 424 1131 391 1131 q 555 1105 513 1131 q 597 1027 597 1079 q 589 986 597 1003 q 567 959 580 969 q 534 934 555 948 q 493 901 508 916 q 477 861 479 885 l 376 861 z "},"ȃ":{"ha":858,"x_min":65,"x_max":760,"o":"m 391 769 q 601 740 521 769 q 720 640 681 710 q 760 451 760 571 l 760 0 l 597 0 l 583 76 l 574 76 q 469 10 532 33 q 335 -13 407 -13 q 188 14 249 -13 q 96 90 127 41 q 65 203 65 138 q 144 364 65 307 q 397 434 224 422 l 568 450 l 568 465 q 547 561 568 527 q 480 610 525 596 q 360 625 435 625 q 245 616 307 625 q 127 590 183 608 l 127 733 q 256 760 185 751 q 391 769 326 769 m 393 118 q 486 134 441 118 q 568 182 531 150 l 568 340 l 413 326 q 295 291 331 317 q 260 218 260 265 q 293 144 260 171 q 393 118 326 118 m 158 881 q 232 1056 163 992 q 426 1120 301 1120 q 569 1091 510 1120 q 659 1007 628 1061 q 695 881 691 953 l 575 881 q 532 983 569 947 q 426 1019 496 1019 q 278 881 290 1019 l 158 881 z "},"ā":{"ha":858,"x_min":65,"x_max":760,"o":"m 391 769 q 601 740 521 769 q 720 640 681 710 q 760 451 760 571 l 760 0 l 597 0 l 583 76 l 574 76 q 469 10 532 33 q 335 -13 407 -13 q 188 14 249 -13 q 96 90 127 41 q 65 203 65 138 q 144 364 65 307 q 397 434 224 422 l 568 450 l 568 465 q 547 561 568 527 q 480 610 525 596 q 360 625 435 625 q 245 616 307 625 q 127 590 183 608 l 127 733 q 256 760 185 751 q 391 769 326 769 m 393 118 q 486 134 441 118 q 568 182 531 150 l 568 340 l 413 326 q 295 291 331 317 q 260 218 260 265 q 293 144 260 171 q 393 118 326 118 m 169 931 l 169 1044 l 683 1044 l 683 931 l 169 931 z "},"ą":{"ha":858,"x_min":65,"x_max":805,"o":"m 706 -222 q 805 -198 753 -222 l 805 -276 q 680 -300 747 -300 q 545 -263 592 -300 q 499 -161 499 -226 q 524 -72 499 -112 q 605 0 549 -32 l 597 0 l 583 76 l 574 76 q 469 10 532 33 q 335 -13 407 -13 q 188 14 249 -13 q 96 90 127 41 q 65 203 65 138 q 144 364 65 307 q 397 434 224 422 l 568 450 l 568 465 q 547 561 568 527 q 480 610 525 596 q 360 625 435 625 q 245 616 307 625 q 127 590 183 608 l 127 733 q 256 760 185 751 q 391 769 326 769 q 601 740 521 769 q 720 640 681 710 q 760 451 760 571 l 760 0 q 646 -68 680 -33 q 613 -148 613 -103 q 637 -202 613 -182 q 706 -222 661 -222 m 393 118 q 486 134 441 118 q 568 182 531 150 l 568 340 l 413 326 q 295 291 331 317 q 260 218 260 265 q 293 144 260 171 q 393 118 326 118 z "},"å":{"ha":858,"x_min":65,"x_max":760,"o":"m 391 769 q 601 740 521 769 q 720 640 681 710 q 760 451 760 571 l 760 0 l 597 0 l 583 76 l 574 76 q 469 10 532 33 q 335 -13 407 -13 q 188 14 249 -13 q 96 90 127 41 q 65 203 65 138 q 144 364 65 307 q 397 434 224 422 l 568 450 l 568 465 q 547 561 568 527 q 480 610 525 596 q 360 625 435 625 q 245 616 307 625 q 127 590 183 608 l 127 733 q 256 760 185 751 q 391 769 326 769 m 393 118 q 486 134 441 118 q 568 182 531 150 l 568 340 l 413 326 q 295 291 331 317 q 260 218 260 265 q 293 144 260 171 q 393 118 326 118 m 426 858 q 352 876 385 858 q 301 927 319 894 q 282 999 282 959 q 301 1072 282 1040 q 352 1122 319 1103 q 426 1140 385 1140 q 500 1122 467 1140 q 552 1072 533 1103 q 571 999 571 1040 q 552 927 571 959 q 500 876 533 894 q 426 858 467 858 m 426 926 q 478 946 458 926 q 497 999 497 966 q 477 1052 497 1033 q 426 1072 458 1072 q 375 1052 395 1072 q 356 999 356 1033 q 375 946 356 966 q 426 926 394 926 z "},"ǻ":{"ha":858,"x_min":65,"x_max":760,"o":"m 391 769 q 601 740 521 769 q 720 640 681 710 q 760 451 760 571 l 760 0 l 597 0 l 583 76 l 574 76 q 469 10 532 33 q 335 -13 407 -13 q 188 14 249 -13 q 96 90 127 41 q 65 203 65 138 q 144 364 65 307 q 397 434 224 422 l 568 450 l 568 465 q 547 561 568 527 q 480 610 525 596 q 360 625 435 625 q 245 616 307 625 q 127 590 183 608 l 127 733 q 256 760 185 751 q 391 769 326 769 m 393 118 q 486 134 441 118 q 568 182 531 150 l 568 340 l 413 326 q 295 291 331 317 q 260 218 260 265 q 293 144 260 171 q 393 118 326 118 m 549 1076 q 571 999 571 1042 q 552 927 571 959 q 500 876 533 894 q 426 858 467 858 q 352 876 385 858 q 301 927 319 894 q 282 999 282 959 q 301 1072 282 1040 q 352 1122 319 1103 q 426 1140 385 1140 q 471 1134 450 1140 l 554 1236 l 691 1236 l 549 1076 m 426 926 q 478 946 458 926 q 497 999 497 966 q 477 1052 497 1033 q 426 1072 458 1072 q 375 1052 395 1072 q 356 999 356 1033 q 375 946 356 966 q 426 926 394 926 z "},"ã":{"ha":858,"x_min":65,"x_max":760,"o":"m 391 769 q 601 740 521 769 q 720 640 681 710 q 760 451 760 571 l 760 0 l 597 0 l 583 76 l 574 76 q 469 10 532 33 q 335 -13 407 -13 q 188 14 249 -13 q 96 90 127 41 q 65 203 65 138 q 144 364 65 307 q 397 434 224 422 l 568 450 l 568 465 q 547 561 568 527 q 480 610 525 596 q 360 625 435 625 q 245 616 307 625 q 127 590 183 608 l 127 733 q 256 760 185 751 q 391 769 326 769 m 393 118 q 486 134 441 118 q 568 182 531 150 l 568 340 l 413 326 q 295 291 331 317 q 260 218 260 265 q 293 144 260 171 q 393 118 326 118 m 541 906 q 482 914 510 906 q 415 938 454 922 q 354 960 376 953 q 307 967 331 967 q 235 954 267 967 q 169 911 202 941 l 169 1031 q 232 1069 197 1057 q 312 1082 267 1082 q 370 1074 342 1082 q 438 1049 399 1065 q 499 1027 476 1034 q 546 1020 522 1020 q 618 1034 585 1020 q 683 1077 651 1047 l 683 957 q 620 918 655 931 q 541 906 585 906 z "},"æ":{"ha":1351,"x_min":65,"x_max":1296,"o":"m 1296 324 l 760 324 q 793 211 765 253 q 881 148 822 168 q 1037 128 940 128 q 1251 156 1133 128 l 1251 15 q 1008 -14 1131 -14 q 794 16 883 -14 q 652 106 706 45 q 351 -13 524 -13 q 193 14 258 -13 q 97 90 129 41 q 65 204 65 139 q 148 374 65 313 q 408 435 232 435 l 568 435 l 568 465 q 547 561 568 527 q 480 610 525 596 q 360 625 435 625 q 245 616 307 625 q 127 590 183 608 l 127 733 q 253 760 186 751 q 383 769 320 769 q 569 744 495 769 q 683 663 642 719 q 797 742 729 715 q 949 769 864 769 q 1137 723 1059 769 q 1255 587 1215 676 q 1296 372 1296 498 l 1296 324 m 938 647 q 808 595 853 647 q 760 435 763 543 l 1113 435 q 1067 594 1110 542 q 938 647 1023 647 m 394 118 q 500 138 450 118 q 595 203 550 158 q 570 325 575 258 l 422 325 q 260 218 260 325 q 294 144 260 170 q 394 118 328 118 z "},"ǽ":{"ha":1351,"x_min":65,"x_max":1296,"o":"m 1296 324 l 760 324 q 793 211 765 253 q 881 148 822 168 q 1037 128 940 128 q 1251 156 1133 128 l 1251 15 q 1008 -14 1131 -14 q 794 16 883 -14 q 652 106 706 45 q 351 -13 524 -13 q 193 14 258 -13 q 97 90 129 41 q 65 204 65 139 q 148 374 65 313 q 408 435 232 435 l 568 435 l 568 465 q 547 561 568 527 q 480 610 525 596 q 360 625 435 625 q 245 616 307 625 q 127 590 183 608 l 127 733 q 253 760 186 751 q 383 769 320 769 q 569 744 495 769 q 683 663 642 719 q 797 742 729 715 q 949 769 864 769 q 1137 723 1059 769 q 1255 587 1215 676 q 1296 372 1296 498 l 1296 324 m 938 647 q 808 595 853 647 q 760 435 763 543 l 1113 435 q 1067 594 1110 542 q 938 647 1023 647 m 394 118 q 500 138 450 118 q 595 203 550 158 q 570 325 575 258 l 422 325 q 260 218 260 325 q 294 144 260 170 q 394 118 328 118 m 575 861 l 757 1122 l 974 1122 l 763 861 l 575 861 z "},"b":{"ha":951,"x_min":106,"x_max":885,"o":"m 424 -14 q 106 28 247 -14 l 106 1122 l 302 1122 l 302 681 l 311 681 q 416 747 356 724 q 551 769 476 769 q 722 729 646 769 q 841 605 797 689 q 885 397 885 522 q 769 90 885 194 q 424 -14 652 -14 m 442 135 q 629 195 567 135 q 690 382 690 256 q 636 557 690 503 q 485 612 582 612 q 386 595 433 612 q 302 544 338 578 l 302 152 q 442 135 367 135 z "},"c":{"ha":751,"x_min":65,"x_max":710,"o":"m 491 -14 q 175 85 284 -14 q 65 377 65 185 q 180 669 65 569 q 513 769 294 769 q 710 747 622 769 l 710 594 q 618 610 660 605 q 531 615 576 615 q 330 557 394 615 q 266 378 266 500 q 328 199 266 258 q 511 141 390 141 q 603 148 556 141 q 710 172 649 155 l 710 19 q 491 -14 610 -14 z "},"ć":{"ha":751,"x_min":65,"x_max":732,"o":"m 491 -14 q 175 85 284 -14 q 65 377 65 185 q 180 669 65 569 q 513 769 294 769 q 710 747 622 769 l 710 594 q 618 610 660 605 q 531 615 576 615 q 330 557 394 615 q 266 378 266 500 q 328 199 266 258 q 511 141 390 141 q 603 148 556 141 q 710 172 649 155 l 710 19 q 491 -14 610 -14 m 333 861 l 515 1122 l 732 1122 l 520 861 l 333 861 z "},"č":{"ha":751,"x_min":65,"x_max":710,"o":"m 491 -14 q 175 85 284 -14 q 65 377 65 185 q 180 669 65 569 q 513 769 294 769 q 710 747 622 769 l 710 594 q 618 610 660 605 q 531 615 576 615 q 330 557 394 615 q 266 378 266 500 q 328 199 266 258 q 511 141 390 141 q 603 148 556 141 q 710 172 649 155 l 710 19 q 491 -14 610 -14 m 548 1122 l 698 1122 l 506 861 l 347 861 l 155 1122 l 305 1122 l 426 954 l 548 1122 z "},"ç":{"ha":751,"x_min":65,"x_max":710,"o":"m 531 615 q 330 557 394 615 q 266 378 266 500 q 328 199 266 258 q 511 141 390 141 q 603 148 556 141 q 710 172 649 155 l 710 19 q 491 -14 610 -14 l 487 -14 l 487 -63 q 578 -101 547 -71 q 608 -181 608 -132 q 564 -269 608 -237 q 437 -300 519 -300 q 364 -294 399 -300 q 301 -276 328 -287 l 301 -200 q 364 -219 329 -212 q 428 -225 398 -225 q 487 -213 467 -225 q 506 -174 506 -201 q 487 -134 506 -146 q 428 -122 467 -122 l 393 -122 l 393 -8 q 149 112 233 15 q 65 377 65 209 q 180 669 65 569 q 513 769 294 769 q 710 747 622 769 l 710 594 q 618 610 660 605 q 531 615 576 615 z "},"ḉ":{"ha":751,"x_min":65,"x_max":732,"o":"m 732 1122 l 520 861 l 333 861 l 515 1122 l 732 1122 m 65 377 q 180 669 65 569 q 513 769 294 769 q 710 747 622 769 l 710 594 q 618 610 660 605 q 531 615 576 615 q 330 557 394 615 q 266 378 266 500 q 328 199 266 258 q 511 141 390 141 q 603 148 556 141 q 710 172 649 155 l 710 19 q 491 -14 610 -14 l 487 -14 l 487 -63 q 578 -101 547 -71 q 608 -181 608 -132 q 564 -269 608 -237 q 437 -300 519 -300 q 364 -294 399 -300 q 301 -276 328 -287 l 301 -200 q 364 -219 329 -212 q 428 -225 398 -225 q 487 -213 467 -225 q 506 -174 506 -201 q 487 -134 506 -146 q 428 -122 467 -122 l 393 -122 l 393 -8 q 149 112 233 15 q 65 377 65 209 z "},"ĉ":{"ha":751,"x_min":65,"x_max":710,"o":"m 491 -14 q 175 85 284 -14 q 65 377 65 185 q 180 669 65 569 q 513 769 294 769 q 710 747 622 769 l 710 594 q 618 610 660 605 q 531 615 576 615 q 330 557 394 615 q 266 378 266 500 q 328 199 266 258 q 511 141 390 141 q 603 148 556 141 q 710 172 649 155 l 710 19 q 491 -14 610 -14 m 696 861 l 545 861 l 426 1028 l 308 861 l 157 861 l 347 1122 l 506 1122 l 696 861 z "},"ċ":{"ha":751,"x_min":65,"x_max":710,"o":"m 491 -14 q 175 85 284 -14 q 65 377 65 185 q 180 669 65 569 q 513 769 294 769 q 710 747 622 769 l 710 594 q 618 610 660 605 q 531 615 576 615 q 330 557 394 615 q 266 378 266 500 q 328 199 266 258 q 511 141 390 141 q 603 148 556 141 q 710 172 649 155 l 710 19 q 491 -14 610 -14 m 426 887 q 334 912 365 887 q 303 986 303 938 q 334 1060 303 1035 q 426 1086 365 1086 q 518 1060 488 1086 q 549 986 549 1035 q 518 912 549 938 q 426 887 488 887 z "},"d":{"ha":951,"x_min":65,"x_max":845,"o":"m 417 -12 q 236 27 315 -12 q 111 151 157 67 q 65 363 65 235 q 117 585 65 494 q 266 724 168 677 q 503 771 364 771 q 649 760 566 771 l 649 1122 l 845 1122 l 845 0 l 681 0 l 670 82 l 660 82 q 554 13 616 38 q 417 -12 492 -12 m 467 145 q 567 163 519 145 q 649 220 615 181 l 649 607 q 515 622 585 622 q 323 561 386 622 q 260 376 260 501 q 467 145 260 145 z "},"ð":{"ha":934,"x_min":65,"x_max":869,"o":"m 690 906 q 822 668 774 794 q 869 418 869 541 q 821 178 869 275 q 683 34 773 82 q 467 -14 593 -14 q 254 31 344 -14 q 114 164 163 76 q 65 378 65 252 q 113 591 65 504 q 247 720 160 677 q 447 764 333 764 q 589 736 529 764 q 497 876 549 810 l 151 822 l 133 933 l 404 976 q 215 1122 319 1057 l 464 1122 q 603 1007 537 1073 l 828 1042 l 846 931 l 690 906 m 467 138 q 620 197 567 138 q 673 378 673 256 q 620 561 673 503 q 467 619 567 619 q 313 561 366 619 q 260 379 260 503 q 313 196 260 255 q 467 138 366 138 z "},"ď":{"ha":951,"x_min":65,"x_max":1058,"o":"m 417 -12 q 236 27 315 -12 q 111 151 157 67 q 65 363 65 235 q 117 585 65 494 q 266 724 168 677 q 503 771 364 771 q 649 760 566 771 l 649 1122 l 845 1122 l 845 0 l 681 0 l 670 82 l 660 82 q 554 13 616 38 q 417 -12 492 -12 m 467 145 q 567 163 519 145 q 649 220 615 181 l 649 607 q 515 622 585 622 q 323 561 386 622 q 260 376 260 501 q 467 145 260 145 m 908 819 q 927 1122 927 950 l 1058 1122 q 1046 963 1058 1042 q 1013 819 1034 884 l 908 819 z "},"đ":{"ha":951,"x_min":65,"x_max":945,"o":"m 945 883 l 845 883 l 845 0 l 681 0 l 670 82 l 660 82 q 554 13 616 38 q 417 -12 492 -12 q 236 27 315 -12 q 111 151 157 67 q 65 363 65 235 q 117 585 65 494 q 266 724 168 677 q 503 771 364 771 q 649 760 566 771 l 649 883 l 354 883 l 354 1000 l 649 1000 l 649 1122 l 845 1122 l 845 1000 l 945 1000 l 945 883 m 649 607 q 515 622 585 622 q 323 561 386 622 q 260 376 260 501 q 467 145 260 145 q 567 163 519 145 q 649 220 615 181 l 649 607 z "},"ḍ":{"ha":951,"x_min":65,"x_max":845,"o":"m 417 -12 q 236 27 315 -12 q 111 151 157 67 q 65 363 65 235 q 117 585 65 494 q 266 724 168 677 q 503 771 364 771 q 649 760 566 771 l 649 1122 l 845 1122 l 845 0 l 681 0 l 670 82 l 660 82 q 554 13 616 38 q 417 -12 492 -12 m 467 145 q 567 163 519 145 q 649 220 615 181 l 649 607 q 515 622 585 622 q 323 561 386 622 q 260 376 260 501 q 467 145 260 145 m 481 -287 q 400 -261 428 -287 q 373 -192 373 -236 q 400 -123 373 -149 q 481 -98 428 -98 q 561 -123 533 -98 q 588 -192 588 -149 q 561 -261 588 -236 q 481 -287 533 -287 z "},"ḏ":{"ha":951,"x_min":65,"x_max":845,"o":"m 417 -12 q 236 27 315 -12 q 111 151 157 67 q 65 363 65 235 q 117 585 65 494 q 266 724 168 677 q 503 771 364 771 q 649 760 566 771 l 649 1122 l 845 1122 l 845 0 l 681 0 l 670 82 l 660 82 q 554 13 616 38 q 417 -12 492 -12 m 467 145 q 567 163 519 145 q 649 220 615 181 l 649 607 q 515 622 585 622 q 323 561 386 622 q 260 376 260 501 q 467 145 260 145 m 235 -248 l 235 -135 l 726 -135 l 726 -248 l 235 -248 z "},"ǳ":{"ha":1745,"x_min":65,"x_max":1699,"o":"m 417 -12 q 236 27 315 -12 q 111 151 157 67 q 65 363 65 235 q 117 585 65 494 q 266 724 168 677 q 503 771 364 771 q 649 760 566 771 l 649 1122 l 845 1122 l 845 0 l 681 0 l 670 82 l 660 82 q 554 13 616 38 q 417 -12 492 -12 m 467 145 q 567 163 519 145 q 649 220 615 181 l 649 607 q 515 622 585 622 q 323 561 386 622 q 260 376 260 501 q 467 145 260 145 m 1269 156 l 1699 156 l 1699 0 l 1008 0 l 1008 126 l 1429 602 l 1016 602 l 1016 758 l 1691 758 l 1691 632 l 1269 156 z "},"ǆ":{"ha":1745,"x_min":65,"x_max":1699,"o":"m 417 -12 q 236 27 315 -12 q 111 151 157 67 q 65 363 65 235 q 117 585 65 494 q 266 724 168 677 q 503 771 364 771 q 649 760 566 771 l 649 1122 l 845 1122 l 845 0 l 681 0 l 670 82 l 660 82 q 554 13 616 38 q 417 -12 492 -12 m 467 145 q 567 163 519 145 q 649 220 615 181 l 649 607 q 515 622 585 622 q 323 561 386 622 q 260 376 260 501 q 467 145 260 145 m 1269 156 l 1699 156 l 1699 0 l 1008 0 l 1008 126 l 1429 602 l 1016 602 l 1016 758 l 1691 758 l 1691 632 l 1269 156 m 1475 1122 l 1625 1122 l 1433 861 l 1274 861 l 1082 1122 l 1232 1122 l 1353 954 l 1475 1122 z "},"e":{"ha":855,"x_min":65,"x_max":800,"o":"m 800 324 l 260 324 q 293 211 264 253 q 381 148 322 168 q 540 128 441 128 q 755 156 636 128 l 755 15 q 511 -14 634 -14 q 175 82 285 -14 q 65 377 65 177 q 109 589 65 501 q 239 723 153 677 q 443 769 324 769 q 708 666 617 769 q 800 372 800 563 l 800 324 m 440 647 q 307 595 353 647 q 259 435 262 543 l 618 435 q 571 595 615 543 q 440 647 526 647 z "},"é":{"ha":855,"x_min":65,"x_max":800,"o":"m 800 324 l 260 324 q 293 211 264 253 q 381 148 322 168 q 540 128 441 128 q 755 156 636 128 l 755 15 q 511 -14 634 -14 q 175 82 285 -14 q 65 377 65 177 q 109 589 65 501 q 239 723 153 677 q 443 769 324 769 q 708 666 617 769 q 800 372 800 563 l 800 324 m 440 647 q 307 595 353 647 q 259 435 262 543 l 618 435 q 571 595 615 543 q 440 647 526 647 m 348 861 l 530 1122 l 747 1122 l 535 861 l 348 861 z "},"ĕ":{"ha":855,"x_min":65,"x_max":800,"o":"m 800 324 l 260 324 q 293 211 264 253 q 381 148 322 168 q 540 128 441 128 q 755 156 636 128 l 755 15 q 511 -14 634 -14 q 175 82 285 -14 q 65 377 65 177 q 109 589 65 501 q 239 723 153 677 q 443 769 324 769 q 708 666 617 769 q 800 372 800 563 l 800 324 m 440 647 q 307 595 353 647 q 259 435 262 543 l 618 435 q 571 595 615 543 q 440 647 526 647 m 442 867 q 248 931 317 867 q 173 1106 178 995 l 293 1106 q 442 967 306 967 q 590 1106 578 967 l 710 1106 q 636 931 705 994 q 442 867 567 867 z "},"ě":{"ha":855,"x_min":65,"x_max":800,"o":"m 800 324 l 260 324 q 293 211 264 253 q 381 148 322 168 q 540 128 441 128 q 755 156 636 128 l 755 15 q 511 -14 634 -14 q 175 82 285 -14 q 65 377 65 177 q 109 589 65 501 q 239 723 153 677 q 443 769 324 769 q 708 666 617 769 q 800 372 800 563 l 800 324 m 440 647 q 307 595 353 647 q 259 435 262 543 l 618 435 q 571 595 615 543 q 440 647 526 647 m 563 1122 l 713 1122 l 521 861 l 363 861 l 170 1122 l 320 1122 l 442 954 l 563 1122 z "},"ḝ":{"ha":855,"x_min":65,"x_max":800,"o":"m 442 867 q 248 931 317 867 q 173 1106 178 995 l 293 1106 q 442 967 306 967 q 590 1106 578 967 l 710 1106 q 636 931 705 994 q 442 867 567 867 m 800 324 l 260 324 q 293 211 264 253 q 381 148 322 168 q 540 128 441 128 q 755 156 636 128 l 755 15 q 511 -14 634 -14 l 494 -14 l 494 -63 q 585 -101 554 -71 q 615 -181 615 -132 q 571 -269 615 -237 q 444 -300 526 -300 q 370 -294 406 -300 q 308 -276 335 -287 l 308 -200 q 370 -219 336 -212 q 435 -225 405 -225 q 494 -213 474 -225 q 513 -174 513 -201 q 494 -134 513 -146 q 435 -122 474 -122 l 400 -122 l 400 -8 q 148 109 231 15 q 65 377 65 203 q 109 589 65 501 q 239 723 153 677 q 443 769 324 769 q 708 666 617 769 q 800 372 800 563 l 800 324 m 440 647 q 307 595 353 647 q 259 435 262 543 l 618 435 q 571 595 615 543 q 440 647 526 647 z "},"ê":{"ha":855,"x_min":65,"x_max":800,"o":"m 800 324 l 260 324 q 293 211 264 253 q 381 148 322 168 q 540 128 441 128 q 755 156 636 128 l 755 15 q 511 -14 634 -14 q 175 82 285 -14 q 65 377 65 177 q 109 589 65 501 q 239 723 153 677 q 443 769 324 769 q 708 666 617 769 q 800 372 800 563 l 800 324 m 440 647 q 307 595 353 647 q 259 435 262 543 l 618 435 q 571 595 615 543 q 440 647 526 647 m 711 861 l 560 861 l 442 1028 l 323 861 l 172 861 l 363 1122 l 521 1122 l 711 861 z "},"ế":{"ha":855,"x_min":65,"x_max":928,"o":"m 800 324 l 260 324 q 293 211 264 253 q 381 148 322 168 q 540 128 441 128 q 755 156 636 128 l 755 15 q 511 -14 634 -14 q 175 82 285 -14 q 65 377 65 177 q 109 589 65 501 q 239 723 153 677 q 443 769 324 769 q 708 666 617 769 q 800 372 800 563 l 800 324 m 440 647 q 307 595 353 647 q 259 435 262 543 l 618 435 q 571 595 615 543 q 440 647 526 647 m 754 1297 l 928 1297 l 750 1109 l 607 1109 l 754 1297 m 363 1122 l 521 1122 l 711 861 l 560 861 l 442 1028 l 323 861 l 172 861 l 363 1122 z "},"ệ":{"ha":855,"x_min":65,"x_max":800,"o":"m 800 324 l 260 324 q 293 211 264 253 q 381 148 322 168 q 540 128 441 128 q 755 156 636 128 l 755 15 q 511 -14 634 -14 q 175 82 285 -14 q 65 377 65 177 q 109 589 65 501 q 239 723 153 677 q 443 769 324 769 q 708 666 617 769 q 800 372 800 563 l 800 324 m 440 647 q 307 595 353 647 q 259 435 262 543 l 618 435 q 571 595 615 543 q 440 647 526 647 m 442 -287 q 361 -261 389 -287 q 334 -192 334 -236 q 361 -123 334 -149 q 442 -98 389 -98 q 522 -123 494 -98 q 549 -192 549 -149 q 522 -261 549 -236 q 442 -287 494 -287 m 711 861 l 560 861 l 442 1028 l 323 861 l 172 861 l 363 1122 l 521 1122 l 711 861 z "},"ề":{"ha":855,"x_min":65,"x_max":800,"o":"m 800 324 l 260 324 q 293 211 264 253 q 381 148 322 168 q 540 128 441 128 q 755 156 636 128 l 755 15 q 511 -14 634 -14 q 175 82 285 -14 q 65 377 65 177 q 109 589 65 501 q 239 723 153 677 q 443 769 324 769 q 708 666 617 769 q 800 372 800 563 l 800 324 m 440 647 q 307 595 353 647 q 259 435 262 543 l 618 435 q 571 595 615 543 q 440 647 526 647 m 774 1109 l 631 1109 l 453 1297 l 626 1297 l 774 1109 m 363 1122 l 521 1122 l 711 861 l 560 861 l 442 1028 l 323 861 l 172 861 l 363 1122 z "},"ể":{"ha":855,"x_min":65,"x_max":819,"o":"m 800 324 l 260 324 q 293 211 264 253 q 381 148 322 168 q 540 128 441 128 q 755 156 636 128 l 755 15 q 511 -14 634 -14 q 175 82 285 -14 q 65 377 65 177 q 109 589 65 501 q 239 723 153 677 q 443 769 324 769 q 708 666 617 769 q 800 372 800 563 l 800 324 m 440 647 q 307 595 353 647 q 259 435 262 543 l 618 435 q 571 595 615 543 q 440 647 526 647 m 660 1307 q 781 1286 742 1307 q 819 1225 819 1266 q 804 1188 819 1201 q 758 1160 789 1174 q 717 1137 731 1147 q 701 1109 703 1126 l 610 1109 q 631 1155 612 1139 q 684 1184 651 1170 q 714 1199 705 1192 q 724 1215 724 1206 q 706 1235 724 1228 q 647 1242 688 1242 q 512 1225 577 1242 l 512 1288 q 581 1302 540 1297 q 660 1307 621 1307 m 363 1122 l 521 1122 l 711 861 l 560 861 l 442 1028 l 323 861 l 172 861 l 363 1122 z "},"ễ":{"ha":855,"x_min":65,"x_max":800,"o":"m 800 324 l 260 324 q 293 211 264 253 q 381 148 322 168 q 540 128 441 128 q 755 156 636 128 l 755 15 q 511 -14 634 -14 q 175 82 285 -14 q 65 377 65 177 q 109 589 65 501 q 239 723 153 677 q 443 769 324 769 q 708 666 617 769 q 800 372 800 563 l 800 324 m 440 647 q 307 595 353 647 q 259 435 262 543 l 618 435 q 571 595 615 543 q 440 647 526 647 m 564 1134 q 502 1140 531 1134 q 431 1158 473 1146 q 367 1175 391 1169 q 315 1181 342 1181 q 240 1170 273 1181 q 174 1138 208 1160 l 174 1234 q 238 1267 203 1256 q 319 1278 273 1278 q 383 1272 353 1278 q 453 1253 413 1265 q 517 1236 492 1242 q 568 1231 541 1231 q 643 1241 610 1231 q 709 1274 676 1251 l 709 1177 q 646 1144 681 1155 q 564 1134 611 1134 m 733 862 l 572 862 l 442 1015 l 311 862 l 150 862 l 358 1093 l 526 1093 l 733 862 z "},"ȅ":{"ha":855,"x_min":65,"x_max":800,"o":"m 800 324 l 260 324 q 293 211 264 253 q 381 148 322 168 q 540 128 441 128 q 755 156 636 128 l 755 15 q 511 -14 634 -14 q 175 82 285 -14 q 65 377 65 177 q 109 589 65 501 q 239 723 153 677 q 443 769 324 769 q 708 666 617 769 q 800 372 800 563 l 800 324 m 440 647 q 307 595 353 647 q 259 435 262 543 l 618 435 q 571 595 615 543 q 440 647 526 647 m 228 861 l 97 1122 l 251 1122 l 371 861 l 228 861 m 513 861 l 382 1122 l 536 1122 l 656 861 l 513 861 z "},"ë":{"ha":855,"x_min":65,"x_max":800,"o":"m 800 324 l 260 324 q 293 211 264 253 q 381 148 322 168 q 540 128 441 128 q 755 156 636 128 l 755 15 q 511 -14 634 -14 q 175 82 285 -14 q 65 377 65 177 q 109 589 65 501 q 239 723 153 677 q 443 769 324 769 q 708 666 617 769 q 800 372 800 563 l 800 324 m 440 647 q 307 595 353 647 q 259 435 262 543 l 618 435 q 571 595 615 543 q 440 647 526 647 m 258 888 q 177 914 204 888 q 150 986 150 940 q 177 1059 150 1033 q 258 1085 204 1085 q 338 1059 311 1085 q 365 986 365 1033 q 338 914 365 940 q 258 888 311 888 m 626 888 q 545 914 572 888 q 518 986 518 940 q 545 1059 518 1033 q 626 1085 572 1085 q 706 1059 679 1085 q 733 986 733 1033 q 706 914 733 940 q 626 888 679 888 z "},"ė":{"ha":855,"x_min":65,"x_max":800,"o":"m 800 324 l 260 324 q 293 211 264 253 q 381 148 322 168 q 540 128 441 128 q 755 156 636 128 l 755 15 q 511 -14 634 -14 q 175 82 285 -14 q 65 377 65 177 q 109 589 65 501 q 239 723 153 677 q 443 769 324 769 q 708 666 617 769 q 800 372 800 563 l 800 324 m 440 647 q 307 595 353 647 q 259 435 262 543 l 618 435 q 571 595 615 543 q 440 647 526 647 m 442 887 q 350 912 381 887 q 319 986 319 938 q 350 1060 319 1035 q 442 1086 381 1086 q 534 1060 503 1086 q 565 986 565 1035 q 534 912 565 938 q 442 887 503 887 z "},"ẹ":{"ha":855,"x_min":65,"x_max":800,"o":"m 800 324 l 260 324 q 293 211 264 253 q 381 148 322 168 q 540 128 441 128 q 755 156 636 128 l 755 15 q 511 -14 634 -14 q 175 82 285 -14 q 65 377 65 177 q 109 589 65 501 q 239 723 153 677 q 443 769 324 769 q 708 666 617 769 q 800 372 800 563 l 800 324 m 440 647 q 307 595 353 647 q 259 435 262 543 l 618 435 q 571 595 615 543 q 440 647 526 647 m 442 -287 q 361 -261 389 -287 q 334 -192 334 -236 q 361 -123 334 -149 q 442 -98 389 -98 q 522 -123 494 -98 q 549 -192 549 -149 q 522 -261 549 -236 q 442 -287 494 -287 z "},"è":{"ha":855,"x_min":65,"x_max":800,"o":"m 800 324 l 260 324 q 293 211 264 253 q 381 148 322 168 q 540 128 441 128 q 755 156 636 128 l 755 15 q 511 -14 634 -14 q 175 82 285 -14 q 65 377 65 177 q 109 589 65 501 q 239 723 153 677 q 443 769 324 769 q 708 666 617 769 q 800 372 800 563 l 800 324 m 440 647 q 307 595 353 647 q 259 435 262 543 l 618 435 q 571 595 615 543 q 440 647 526 647 m 348 861 l 136 1122 l 353 1122 l 535 861 l 348 861 z "},"ẻ":{"ha":855,"x_min":65,"x_max":800,"o":"m 800 324 l 260 324 q 293 211 264 253 q 381 148 322 168 q 540 128 441 128 q 755 156 636 128 l 755 15 q 511 -14 634 -14 q 175 82 285 -14 q 65 377 65 177 q 109 589 65 501 q 239 723 153 677 q 443 769 324 769 q 708 666 617 769 q 800 372 800 563 l 800 324 m 440 647 q 307 595 353 647 q 259 435 262 543 l 618 435 q 571 595 615 543 q 440 647 526 647 m 392 861 q 404 909 393 889 q 430 941 415 928 q 467 967 444 953 q 500 992 490 982 q 510 1017 510 1002 q 491 1045 510 1037 q 428 1054 472 1054 q 304 1038 366 1054 l 304 1113 q 368 1126 331 1122 q 439 1131 406 1131 q 570 1105 528 1131 q 613 1027 613 1079 q 604 986 613 1003 q 583 959 595 969 q 549 934 570 948 q 509 901 523 916 q 492 861 494 885 l 392 861 z "},"ȇ":{"ha":855,"x_min":65,"x_max":800,"o":"m 800 324 l 260 324 q 293 211 264 253 q 381 148 322 168 q 540 128 441 128 q 755 156 636 128 l 755 15 q 511 -14 634 -14 q 175 82 285 -14 q 65 377 65 177 q 109 589 65 501 q 239 723 153 677 q 443 769 324 769 q 708 666 617 769 q 800 372 800 563 l 800 324 m 440 647 q 307 595 353 647 q 259 435 262 543 l 618 435 q 571 595 615 543 q 440 647 526 647 m 173 881 q 247 1056 178 992 q 441 1120 316 1120 q 584 1091 525 1120 q 675 1007 643 1061 q 710 881 706 953 l 590 881 q 548 983 584 947 q 441 1019 511 1019 q 293 881 306 1019 l 173 881 z "},"ē":{"ha":855,"x_min":65,"x_max":800,"o":"m 800 324 l 260 324 q 293 211 264 253 q 381 148 322 168 q 540 128 441 128 q 755 156 636 128 l 755 15 q 511 -14 634 -14 q 175 82 285 -14 q 65 377 65 177 q 109 589 65 501 q 239 723 153 677 q 443 769 324 769 q 708 666 617 769 q 800 372 800 563 l 800 324 m 440 647 q 307 595 353 647 q 259 435 262 543 l 618 435 q 571 595 615 543 q 440 647 526 647 m 185 931 l 185 1044 l 699 1044 l 699 931 l 185 931 z "},"ḗ":{"ha":855,"x_min":65,"x_max":800,"o":"m 800 324 l 260 324 q 293 211 264 253 q 381 148 322 168 q 540 128 441 128 q 755 156 636 128 l 755 15 q 511 -14 634 -14 q 175 82 285 -14 q 65 377 65 177 q 109 589 65 501 q 239 723 153 677 q 443 769 324 769 q 708 666 617 769 q 800 372 800 563 l 800 324 m 440 647 q 307 595 353 647 q 259 435 262 543 l 618 435 q 571 595 615 543 q 440 647 526 647 m 185 931 l 185 1044 l 699 1044 l 699 931 l 185 931 m 350 1158 l 497 1364 l 708 1364 l 531 1158 l 350 1158 z "},"ḕ":{"ha":855,"x_min":65,"x_max":800,"o":"m 800 324 l 260 324 q 293 211 264 253 q 381 148 322 168 q 540 128 441 128 q 755 156 636 128 l 755 15 q 511 -14 634 -14 q 175 82 285 -14 q 65 377 65 177 q 109 589 65 501 q 239 723 153 677 q 443 769 324 769 q 708 666 617 769 q 800 372 800 563 l 800 324 m 440 647 q 307 595 353 647 q 259 435 262 543 l 618 435 q 571 595 615 543 q 440 647 526 647 m 185 931 l 185 1044 l 699 1044 l 699 931 l 185 931 m 351 1158 l 174 1364 l 385 1364 l 532 1158 l 351 1158 z "},"ę":{"ha":855,"x_min":65,"x_max":800,"o":"m 800 324 l 260 324 q 293 211 264 253 q 381 148 322 168 q 540 128 441 128 q 755 156 636 128 l 755 15 q 607 -58 650 -17 q 563 -147 563 -99 q 588 -201 563 -181 q 656 -222 612 -222 q 755 -198 705 -222 l 755 -276 q 630 -300 697 -300 q 496 -263 543 -300 q 449 -161 449 -226 q 470 -80 449 -117 q 536 -14 492 -42 l 511 -14 q 175 82 285 -14 q 65 377 65 177 q 109 589 65 501 q 239 723 153 677 q 443 769 324 769 q 708 666 617 769 q 800 372 800 563 l 800 324 m 440 642 q 307 591 352 642 q 259 431 262 539 l 618 431 q 571 591 615 539 q 440 642 526 642 z "},"ẽ":{"ha":855,"x_min":65,"x_max":800,"o":"m 800 324 l 260 324 q 293 211 264 253 q 381 148 322 168 q 540 128 441 128 q 755 156 636 128 l 755 15 q 511 -14 634 -14 q 175 82 285 -14 q 65 377 65 177 q 109 589 65 501 q 239 723 153 677 q 443 769 324 769 q 708 666 617 769 q 800 372 800 563 l 800 324 m 440 647 q 307 595 353 647 q 259 435 262 543 l 618 435 q 571 595 615 543 q 440 647 526 647 m 556 906 q 498 914 526 906 q 431 938 469 922 q 369 960 392 953 q 322 967 347 967 q 250 954 283 967 q 185 911 217 941 l 185 1031 q 247 1069 213 1057 q 327 1082 282 1082 q 386 1074 358 1082 q 453 1049 414 1065 q 514 1027 492 1034 q 561 1020 537 1020 q 633 1034 601 1020 q 699 1077 666 1047 l 699 957 q 635 918 670 931 q 556 906 601 906 z "},"ə":{"ha":855,"x_min":55,"x_max":790,"o":"m 344 772 q 680 676 569 772 q 790 381 790 581 q 745 169 790 257 q 616 34 701 81 q 412 -12 531 -12 q 147 92 238 -12 q 55 386 55 195 l 55 434 l 595 434 q 562 547 591 504 q 474 609 533 590 q 315 629 414 629 q 100 602 219 629 l 100 743 q 344 772 221 772 m 415 111 q 548 163 502 111 q 596 323 593 215 l 237 323 q 284 163 240 215 q 415 111 328 111 z "},"f":{"ha":614,"x_min":26,"x_max":645,"o":"m 552 982 q 411 942 456 982 q 366 815 366 902 l 366 758 l 610 758 l 610 602 l 366 602 l 366 0 l 170 0 l 170 602 l 26 602 l 26 758 l 170 758 l 170 807 q 211 985 170 911 q 332 1098 253 1059 q 523 1136 410 1136 q 645 1127 580 1136 l 645 975 q 552 982 599 982 z "},"g":{"ha":951,"x_min":65,"x_max":845,"o":"m 406 -319 q 119 -282 253 -319 l 119 -130 q 394 -171 266 -171 q 541 -150 485 -171 q 623 -84 597 -129 q 649 34 649 -40 l 649 85 l 640 85 q 535 19 595 42 q 401 -3 474 -3 q 230 37 306 -3 q 110 160 154 78 q 65 363 65 243 q 183 664 65 559 q 527 769 300 769 q 692 758 608 769 q 845 727 776 747 l 845 70 q 798 -152 845 -66 q 654 -279 751 -238 q 406 -319 557 -319 m 466 154 q 565 171 517 154 q 649 222 613 188 l 649 605 q 510 621 584 621 q 260 378 260 621 q 315 207 260 260 q 466 154 369 154 z "},"ǵ":{"ha":951,"x_min":65,"x_max":845,"o":"m 406 -319 q 119 -282 253 -319 l 119 -130 q 394 -171 266 -171 q 541 -150 485 -171 q 623 -84 597 -129 q 649 34 649 -40 l 649 85 l 640 85 q 535 19 595 42 q 401 -3 474 -3 q 230 37 306 -3 q 110 160 154 78 q 65 363 65 243 q 183 664 65 559 q 527 769 300 769 q 692 758 608 769 q 845 727 776 747 l 845 70 q 798 -152 845 -66 q 654 -279 751 -238 q 406 -319 557 -319 m 466 154 q 565 171 517 154 q 649 222 613 188 l 649 605 q 510 621 584 621 q 260 378 260 621 q 315 207 260 260 q 466 154 369 154 m 400 861 l 582 1122 l 799 1122 l 588 861 l 400 861 z "},"ğ":{"ha":951,"x_min":65,"x_max":845,"o":"m 406 -319 q 119 -282 253 -319 l 119 -130 q 394 -171 266 -171 q 541 -150 485 -171 q 623 -84 597 -129 q 649 34 649 -40 l 649 85 l 640 85 q 535 19 595 42 q 401 -3 474 -3 q 230 37 306 -3 q 110 160 154 78 q 65 363 65 243 q 183 664 65 559 q 527 769 300 769 q 692 758 608 769 q 845 727 776 747 l 845 70 q 798 -152 845 -66 q 654 -279 751 -238 q 406 -319 557 -319 m 466 154 q 565 171 517 154 q 649 222 613 188 l 649 605 q 510 621 584 621 q 260 378 260 621 q 315 207 260 260 q 466 154 369 154 m 494 867 q 300 931 369 867 q 225 1106 231 995 l 345 1106 q 494 967 358 967 q 642 1106 630 967 l 763 1106 q 688 931 757 994 q 494 867 619 867 z "},"ǧ":{"ha":951,"x_min":65,"x_max":845,"o":"m 406 -319 q 119 -282 253 -319 l 119 -130 q 394 -171 266 -171 q 541 -150 485 -171 q 623 -84 597 -129 q 649 34 649 -40 l 649 85 l 640 85 q 535 19 595 42 q 401 -3 474 -3 q 230 37 306 -3 q 110 160 154 78 q 65 363 65 243 q 183 664 65 559 q 527 769 300 769 q 692 758 608 769 q 845 727 776 747 l 845 70 q 798 -152 845 -66 q 654 -279 751 -238 q 406 -319 557 -319 m 466 154 q 565 171 517 154 q 649 222 613 188 l 649 605 q 510 621 584 621 q 260 378 260 621 q 315 207 260 260 q 466 154 369 154 m 615 1122 l 765 1122 l 573 861 l 415 861 l 222 1122 l 372 1122 l 494 954 l 615 1122 z "},"ĝ":{"ha":951,"x_min":65,"x_max":845,"o":"m 406 -319 q 119 -282 253 -319 l 119 -130 q 394 -171 266 -171 q 541 -150 485 -171 q 623 -84 597 -129 q 649 34 649 -40 l 649 85 l 640 85 q 535 19 595 42 q 401 -3 474 -3 q 230 37 306 -3 q 110 160 154 78 q 65 363 65 243 q 183 664 65 559 q 527 769 300 769 q 692 758 608 769 q 845 727 776 747 l 845 70 q 798 -152 845 -66 q 654 -279 751 -238 q 406 -319 557 -319 m 466 154 q 565 171 517 154 q 649 222 613 188 l 649 605 q 510 621 584 621 q 260 378 260 621 q 315 207 260 260 q 466 154 369 154 m 763 861 l 613 861 l 494 1028 l 375 861 l 224 861 l 415 1122 l 573 1122 l 763 861 z "},"ģ":{"ha":951,"x_min":65,"x_max":845,"o":"m 406 -319 q 119 -282 253 -319 l 119 -130 q 394 -171 266 -171 q 541 -150 485 -171 q 623 -84 597 -129 q 649 34 649 -40 l 649 85 l 640 85 q 535 19 595 42 q 401 -3 474 -3 q 230 37 306 -3 q 110 160 154 78 q 65 363 65 243 q 183 664 65 559 q 527 769 300 769 q 692 758 608 769 q 845 727 776 747 l 845 70 q 798 -152 845 -66 q 654 -279 751 -238 q 406 -319 557 -319 m 466 154 q 565 171 517 154 q 649 222 613 188 l 649 605 q 510 621 584 621 q 260 378 260 621 q 315 207 260 260 q 466 154 369 154 m 515 1030 q 607 960 607 1023 q 579 907 607 926 q 495 889 551 889 q 381 983 381 889 q 394 1058 381 1018 q 431 1129 408 1098 l 550 1129 q 515 1030 522 1072 z "},"ġ":{"ha":951,"x_min":65,"x_max":845,"o":"m 406 -319 q 119 -282 253 -319 l 119 -130 q 394 -171 266 -171 q 541 -150 485 -171 q 623 -84 597 -129 q 649 34 649 -40 l 649 85 l 640 85 q 535 19 595 42 q 401 -3 474 -3 q 230 37 306 -3 q 110 160 154 78 q 65 363 65 243 q 183 664 65 559 q 527 769 300 769 q 692 758 608 769 q 845 727 776 747 l 845 70 q 798 -152 845 -66 q 654 -279 751 -238 q 406 -319 557 -319 m 466 154 q 565 171 517 154 q 649 222 613 188 l 649 605 q 510 621 584 621 q 260 378 260 621 q 315 207 260 260 q 466 154 369 154 m 494 887 q 402 912 433 887 q 371 986 371 938 q 402 1060 371 1035 q 494 1086 433 1086 q 586 1060 555 1086 q 617 986 617 1035 q 586 912 617 938 q 494 887 555 887 z "},"ḡ":{"ha":951,"x_min":65,"x_max":845,"o":"m 406 -319 q 119 -282 253 -319 l 119 -130 q 394 -171 266 -171 q 541 -150 485 -171 q 623 -84 597 -129 q 649 34 649 -40 l 649 85 l 640 85 q 535 19 595 42 q 401 -3 474 -3 q 230 37 306 -3 q 110 160 154 78 q 65 363 65 243 q 183 664 65 559 q 527 769 300 769 q 692 758 608 769 q 845 727 776 747 l 845 70 q 798 -152 845 -66 q 654 -279 751 -238 q 406 -319 557 -319 m 466 154 q 565 171 517 154 q 649 222 613 188 l 649 605 q 510 621 584 621 q 260 378 260 621 q 315 207 260 260 q 466 154 369 154 m 237 931 l 237 1044 l 751 1044 l 751 931 l 237 931 z "},"h":{"ha":946,"x_min":106,"x_max":849,"o":"m 106 1122 l 302 1122 l 302 681 l 311 681 q 425 747 360 724 q 561 769 490 769 q 771 692 693 769 q 849 454 849 615 l 849 0 l 653 0 l 653 444 q 614 567 653 530 q 500 603 575 603 q 392 583 444 603 q 302 524 340 563 l 302 0 l 106 0 l 106 1122 z "},"ħ":{"ha":946,"x_min":6,"x_max":849,"o":"m 561 769 q 771 692 693 769 q 849 454 849 615 l 849 0 l 653 0 l 653 444 q 614 567 653 530 q 500 603 575 603 q 392 583 444 603 q 302 524 340 563 l 302 0 l 106 0 l 106 881 l 6 881 l 6 998 l 106 998 l 106 1122 l 302 1122 l 302 998 l 597 998 l 597 881 l 302 881 l 302 681 l 311 681 q 425 747 360 724 q 561 769 490 769 z "},"ḫ":{"ha":946,"x_min":106,"x_max":849,"o":"m 106 1122 l 302 1122 l 302 681 l 311 681 q 425 747 360 724 q 561 769 490 769 q 771 692 693 769 q 849 454 849 615 l 849 0 l 653 0 l 653 444 q 614 567 653 530 q 500 603 575 603 q 392 583 444 603 q 302 524 340 563 l 302 0 l 106 0 l 106 1122 m 478 -308 q 334 -283 394 -308 q 242 -211 274 -257 q 209 -103 211 -165 l 329 -103 q 369 -181 333 -153 q 478 -208 406 -208 q 626 -103 619 -208 l 747 -103 q 713 -211 744 -165 q 623 -283 682 -258 q 478 -308 563 -308 z "},"ĥ":{"ha":946,"x_min":106,"x_max":849,"o":"m 106 1122 l 302 1122 l 302 681 l 311 681 q 425 747 360 724 q 561 769 490 769 q 771 692 693 769 q 849 454 849 615 l 849 0 l 653 0 l 653 444 q 614 567 653 530 q 500 603 575 603 q 392 583 444 603 q 302 524 340 563 l 302 0 l 106 0 l 106 1122 m 777 1178 l 611 1178 l 478 1308 l 344 1178 l 178 1178 l 394 1383 l 562 1383 l 777 1178 z "},"ḥ":{"ha":946,"x_min":106,"x_max":849,"o":"m 106 1122 l 302 1122 l 302 681 l 311 681 q 425 747 360 724 q 561 769 490 769 q 771 692 693 769 q 849 454 849 615 l 849 0 l 653 0 l 653 444 q 614 567 653 530 q 500 603 575 603 q 392 583 444 603 q 302 524 340 563 l 302 0 l 106 0 l 106 1122 m 478 -287 q 398 -261 425 -287 q 370 -192 370 -236 q 398 -123 370 -149 q 478 -98 425 -98 q 558 -123 531 -98 q 585 -192 585 -149 q 558 -261 585 -236 q 478 -287 531 -287 z "},"i":{"ha":408,"x_min":81,"x_max":327,"o":"m 106 0 l 106 758 l 302 758 l 302 0 l 106 0 m 204 887 q 112 912 143 887 q 81 986 81 938 q 112 1060 81 1035 q 204 1086 143 1086 q 296 1060 265 1086 q 327 986 327 1035 q 296 912 327 938 q 204 887 265 887 z "},"ı":{"ha":408,"x_min":106,"x_max":302,"o":"m 106 0 l 106 758 l 302 758 l 302 0 l 106 0 z "},"í":{"ha":408,"x_min":106,"x_max":510,"o":"m 106 0 l 106 758 l 302 758 l 302 0 l 106 0 m 110 861 l 292 1122 l 510 1122 l 298 861 l 110 861 z "},"ĭ":{"ha":408,"x_min":-65,"x_max":473,"o":"m 106 0 l 106 758 l 302 758 l 302 0 l 106 0 m 205 867 q 10 931 80 867 q -65 1106 -59 995 l 56 1106 q 205 967 68 967 q 353 1106 340 967 l 473 1106 q 399 931 467 994 q 205 867 330 867 z "},"î":{"ha":408,"x_min":-65,"x_max":474,"o":"m 106 0 l 106 758 l 302 758 l 302 0 l 106 0 m 474 861 l 323 861 l 204 1028 l 85 861 l -65 861 l 125 1122 l 283 1122 l 474 861 z "},"ȉ":{"ha":408,"x_min":-140,"x_max":418,"o":"m 106 0 l 106 758 l 302 758 l 302 0 l 106 0 m -10 861 l -140 1122 l 14 1122 l 133 861 l -10 861 m 275 861 l 144 1122 l 299 1122 l 418 861 l 275 861 z "},"ï":{"ha":408,"x_min":-87,"x_max":496,"o":"m 106 0 l 106 758 l 302 758 l 302 0 l 106 0 m 20 888 q -60 914 -33 888 q -87 986 -87 940 q -60 1059 -87 1033 q 20 1085 -33 1085 q 101 1059 74 1085 q 128 986 128 1033 q 101 914 128 940 q 20 888 74 888 m 388 888 q 308 914 335 888 q 281 986 281 940 q 308 1059 281 1033 q 388 1085 335 1085 q 469 1059 442 1085 q 496 986 496 1033 q 469 914 496 940 q 388 888 442 888 z "},"ḯ":{"ha":408,"x_min":-87,"x_max":496,"o":"m 106 0 l 106 758 l 302 758 l 302 0 l 106 0 m 20 888 q -60 914 -33 888 q -87 986 -87 940 q -60 1059 -87 1033 q 20 1085 -33 1085 q 101 1059 74 1085 q 128 986 128 1033 q 101 914 128 940 q 20 888 74 888 m 388 888 q 308 914 335 888 q 281 986 281 940 q 308 1059 281 1033 q 388 1085 335 1085 q 469 1059 442 1085 q 496 986 496 1033 q 469 914 496 940 q 388 888 442 888 m 113 1158 l 260 1364 l 470 1364 l 293 1158 l 113 1158 z "},"ị":{"ha":408,"x_min":81,"x_max":327,"o":"m 106 0 l 106 758 l 302 758 l 302 0 l 106 0 m 204 887 q 112 912 143 887 q 81 986 81 938 q 112 1060 81 1035 q 204 1086 143 1086 q 296 1060 265 1086 q 327 986 327 1035 q 296 912 327 938 q 204 887 265 887 m 204 -287 q 124 -261 151 -287 q 97 -192 97 -236 q 124 -123 97 -149 q 204 -98 151 -98 q 284 -123 257 -98 q 312 -192 312 -149 q 284 -261 312 -236 q 204 -287 257 -287 z "},"ì":{"ha":408,"x_min":-101,"x_max":302,"o":"m 106 0 l 106 758 l 302 758 l 302 0 l 106 0 m 110 861 l -101 1122 l 116 1122 l 298 861 l 110 861 z "},"ỉ":{"ha":408,"x_min":67,"x_max":375,"o":"m 106 0 l 106 758 l 302 758 l 302 0 l 106 0 m 154 861 q 167 909 156 889 q 192 941 178 928 q 229 967 207 953 q 262 992 252 982 q 272 1017 272 1002 q 253 1045 272 1037 q 190 1054 234 1054 q 67 1038 128 1054 l 67 1113 q 131 1126 93 1122 q 201 1131 169 1131 q 333 1105 290 1131 q 375 1027 375 1079 q 366 986 375 1003 q 345 959 358 969 q 312 934 333 948 q 271 901 285 916 q 255 861 257 885 l 154 861 z "},"ȋ":{"ha":408,"x_min":-65,"x_max":473,"o":"m 106 0 l 106 758 l 302 758 l 302 0 l 106 0 m -65 881 q 10 1056 -59 992 q 203 1120 78 1120 q 347 1091 288 1120 q 437 1007 406 1061 q 473 881 469 953 l 353 881 q 310 983 347 947 q 203 1019 274 1019 q 56 881 68 1019 l -65 881 z "},"ī":{"ha":408,"x_min":-53,"x_max":461,"o":"m 106 0 l 106 758 l 302 758 l 302 0 l 106 0 m -53 931 l -53 1044 l 461 1044 l 461 931 l -53 931 z "},"į":{"ha":408,"x_min":41,"x_max":347,"o":"m 204 887 q 112 912 143 887 q 81 986 81 938 q 112 1060 81 1035 q 204 1086 143 1086 q 296 1060 265 1086 q 327 986 327 1035 q 296 912 327 938 q 204 887 265 887 m 248 -222 q 347 -198 296 -222 l 347 -276 q 222 -300 289 -300 q 88 -263 135 -300 q 41 -161 41 -226 q 66 -72 41 -112 q 147 0 92 -32 l 106 0 l 106 758 l 302 758 l 302 0 q 189 -68 222 -33 q 155 -148 155 -103 q 179 -202 155 -182 q 248 -222 203 -222 z "},"ĩ":{"ha":408,"x_min":-53,"x_max":461,"o":"m 106 0 l 106 758 l 302 758 l 302 0 l 106 0 m 319 906 q 260 914 288 906 q 193 938 232 922 q 132 960 154 953 q 85 967 109 967 q 13 954 45 967 q -53 911 -20 941 l -53 1031 q 10 1069 -25 1057 q 90 1082 44 1082 q 148 1074 120 1082 q 215 1049 176 1065 q 277 1027 254 1034 q 324 1020 299 1020 q 396 1034 363 1020 q 461 1077 428 1047 l 461 957 q 398 918 433 931 q 319 906 363 906 z "},"j":{"ha":408,"x_min":-17,"x_max":323,"o":"m -17 -242 q 78 -78 49 -163 q 106 121 106 7 l 106 758 l 302 758 l 302 128 q 257 -112 302 -4 q 107 -326 211 -220 l -17 -242 m 200 891 q 108 916 139 891 q 77 990 77 942 q 108 1065 77 1039 q 200 1090 139 1090 q 292 1065 261 1090 q 323 990 323 1039 q 292 916 323 942 q 200 891 261 891 z "},"ȷ":{"ha":408,"x_min":-17,"x_max":302,"o":"m -17 -242 q 78 -78 49 -163 q 106 121 106 7 l 106 758 l 302 758 l 302 128 q 257 -112 302 -4 q 107 -326 211 -220 l -17 -242 z "},"ĵ":{"ha":408,"x_min":-69,"x_max":469,"o":"m -17 -242 q 78 -78 49 -163 q 106 121 106 7 l 106 758 l 302 758 l 302 128 q 257 -112 302 -4 q 107 -326 211 -220 l -17 -242 m 469 865 l 319 865 l 200 1033 l 81 865 l -69 865 l 121 1126 l 279 1126 l 469 865 z "},"k":{"ha":892,"x_min":106,"x_max":908,"o":"m 692 0 l 440 308 l 302 308 l 302 0 l 106 0 l 106 1122 l 302 1122 l 302 469 l 439 469 l 671 758 l 883 758 l 598 393 l 908 0 l 692 0 z "},"ķ":{"ha":892,"x_min":106,"x_max":908,"o":"m 692 0 l 440 308 l 302 308 l 302 0 l 106 0 l 106 1122 l 302 1122 l 302 469 l 439 469 l 671 758 l 883 758 l 598 393 l 908 0 l 692 0 m 463 -98 q 578 -192 578 -98 q 564 -267 578 -227 q 527 -338 551 -307 l 408 -338 q 443 -239 437 -281 q 351 -169 351 -232 q 379 -116 351 -135 q 463 -98 407 -98 z "},"ĸ":{"ha":892,"x_min":106,"x_max":908,"o":"m 692 0 l 440 308 l 302 308 l 302 0 l 106 0 l 106 758 l 302 758 l 302 469 l 439 469 l 671 758 l 883 758 l 598 393 l 908 0 l 692 0 z "},"l":{"ha":408,"x_min":106,"x_max":302,"o":"m 106 0 l 106 1122 l 302 1122 l 302 0 l 106 0 z "},"ĺ":{"ha":408,"x_min":106,"x_max":470,"o":"m 106 0 l 106 1122 l 302 1122 l 302 0 l 106 0 m 113 1178 l 260 1383 l 470 1383 l 293 1178 l 113 1178 z "},"ľ":{"ha":408,"x_min":106,"x_max":515,"o":"m 106 0 l 106 1122 l 302 1122 l 302 0 l 106 0 m 365 819 q 384 1122 384 950 l 515 1122 q 503 963 515 1042 q 469 819 491 884 l 365 819 z "},"ļ":{"ha":408,"x_min":90,"x_max":317,"o":"m 106 0 l 106 1122 l 302 1122 l 302 0 l 106 0 m 202 -98 q 317 -192 317 -98 q 303 -267 317 -227 q 266 -338 290 -307 l 147 -338 q 182 -239 176 -281 q 90 -169 90 -232 q 118 -116 90 -135 q 202 -98 146 -98 z "},"ŀ":{"ha":576,"x_min":106,"x_max":609,"o":"m 106 0 l 106 1122 l 302 1122 l 302 0 l 106 0 m 486 451 q 394 477 425 451 q 364 551 364 502 q 394 625 364 599 q 486 651 425 651 q 578 625 547 651 q 609 551 609 599 q 578 477 609 502 q 486 451 547 451 z "},"ḷ":{"ha":408,"x_min":96,"x_max":311,"o":"m 106 0 l 106 1122 l 302 1122 l 302 0 l 106 0 m 203 -287 q 123 -261 151 -287 q 96 -192 96 -236 q 123 -123 96 -149 q 203 -98 151 -98 q 284 -123 256 -98 q 311 -192 311 -149 q 284 -261 311 -236 q 203 -287 256 -287 z "},"ǉ":{"ha":817,"x_min":106,"x_max":731,"o":"m 106 0 l 106 1122 l 302 1122 l 302 0 l 106 0 m 392 -242 q 486 -78 458 -163 q 515 121 515 7 l 515 758 l 710 758 l 710 128 q 665 -112 710 -4 q 515 -326 619 -220 l 392 -242 m 608 891 q 516 916 547 891 q 485 990 485 942 q 516 1065 485 1039 q 608 1090 547 1090 q 700 1065 669 1090 q 731 990 731 1039 q 700 916 731 942 q 608 891 669 891 z "},"ḻ":{"ha":408,"x_min":-42,"x_max":449,"o":"m 106 0 l 106 1122 l 302 1122 l 302 0 l 106 0 m -42 -248 l -42 -135 l 449 -135 l 449 -248 l -42 -248 z "},"ł":{"ha":438,"x_min":-10,"x_max":449,"o":"m 449 558 l 317 483 l 317 0 l 122 0 l 122 371 l 46 328 l -10 434 l 122 509 l 122 1122 l 317 1122 l 317 621 l 392 664 l 449 558 z "},"m":{"ha":1377,"x_min":106,"x_max":1279,"o":"m 1002 769 q 1206 693 1132 769 q 1279 454 1279 616 l 1279 0 l 1085 0 l 1085 444 q 1050 567 1085 529 q 951 604 1015 604 q 861 587 903 604 q 788 534 819 569 q 793 456 793 500 l 793 0 l 601 0 l 601 444 q 568 567 601 530 q 472 604 535 604 q 378 583 423 604 q 302 523 334 563 l 302 0 l 106 0 l 106 758 l 267 758 l 280 678 l 290 678 q 396 746 335 722 q 528 769 457 769 q 653 744 599 769 q 742 666 708 718 q 867 745 800 720 q 1002 769 933 769 z "},"ṃ":{"ha":1377,"x_min":106,"x_max":1279,"o":"m 1002 769 q 1206 693 1132 769 q 1279 454 1279 616 l 1279 0 l 1085 0 l 1085 444 q 1050 567 1085 529 q 951 604 1015 604 q 861 587 903 604 q 788 534 819 569 q 793 456 793 500 l 793 0 l 601 0 l 601 444 q 568 567 601 530 q 472 604 535 604 q 378 583 423 604 q 302 523 334 563 l 302 0 l 106 0 l 106 758 l 267 758 l 280 678 l 290 678 q 396 746 335 722 q 528 769 457 769 q 653 744 599 769 q 742 666 708 718 q 867 745 800 720 q 1002 769 933 769 m 697 -287 q 617 -261 644 -287 q 590 -192 590 -236 q 617 -123 590 -149 q 697 -98 644 -98 q 777 -123 750 -98 q 805 -192 805 -149 q 777 -261 805 -236 q 697 -287 750 -287 z "},"n":{"ha":946,"x_min":106,"x_max":849,"o":"m 106 758 l 267 758 l 280 678 l 290 678 q 409 746 341 722 q 552 769 476 769 q 769 692 690 769 q 849 451 849 615 l 849 0 l 653 0 l 653 442 q 614 567 653 529 q 500 604 576 604 q 393 584 446 604 q 302 524 340 564 l 302 0 l 106 0 l 106 758 z "},"ń":{"ha":946,"x_min":106,"x_max":849,"o":"m 106 758 l 267 758 l 280 678 l 290 678 q 409 746 341 722 q 552 769 476 769 q 769 692 690 769 q 849 451 849 615 l 849 0 l 653 0 l 653 442 q 614 567 653 529 q 500 604 576 604 q 393 584 446 604 q 302 524 340 564 l 302 0 l 106 0 l 106 758 m 384 861 l 566 1122 l 783 1122 l 572 861 l 384 861 z "},"ŉ":{"ha":946,"x_min":10,"x_max":849,"o":"m 106 758 l 267 758 l 280 678 l 290 678 q 409 746 341 722 q 552 769 476 769 q 769 692 690 769 q 849 451 849 615 l 849 0 l 653 0 l 653 442 q 614 567 653 529 q 500 604 576 604 q 393 584 446 604 q 302 524 340 564 l 302 0 l 106 0 l 106 758 m 122 1129 q 235 1035 235 1129 q 222 960 235 1000 q 185 889 208 920 l 66 889 q 101 988 94 946 q 10 1058 10 995 q 38 1111 10 1092 q 122 1129 65 1129 z "},"ň":{"ha":946,"x_min":106,"x_max":849,"o":"m 106 758 l 267 758 l 280 678 l 290 678 q 409 746 341 722 q 552 769 476 769 q 769 692 690 769 q 849 451 849 615 l 849 0 l 653 0 l 653 442 q 614 567 653 529 q 500 604 576 604 q 393 584 446 604 q 302 524 340 564 l 302 0 l 106 0 l 106 758 m 599 1122 l 749 1122 l 557 861 l 399 861 l 206 1122 l 356 1122 l 478 954 l 599 1122 z "},"ņ":{"ha":946,"x_min":106,"x_max":849,"o":"m 106 758 l 267 758 l 280 678 l 290 678 q 409 746 341 722 q 552 769 476 769 q 769 692 690 769 q 849 451 849 615 l 849 0 l 653 0 l 653 442 q 614 567 653 529 q 500 604 576 604 q 393 584 446 604 q 302 524 340 564 l 302 0 l 106 0 l 106 758 m 476 -98 q 591 -192 591 -98 q 577 -267 591 -227 q 540 -338 564 -307 l 422 -338 q 456 -239 450 -281 q 365 -169 365 -232 q 392 -116 365 -135 q 476 -98 420 -98 z "},"ṅ":{"ha":946,"x_min":106,"x_max":849,"o":"m 106 758 l 267 758 l 280 678 l 290 678 q 409 746 341 722 q 552 769 476 769 q 769 692 690 769 q 849 451 849 615 l 849 0 l 653 0 l 653 442 q 614 567 653 529 q 500 604 576 604 q 393 584 446 604 q 302 524 340 564 l 302 0 l 106 0 l 106 758 m 478 887 q 386 912 417 887 q 355 986 355 938 q 386 1060 355 1035 q 478 1086 417 1086 q 570 1060 539 1086 q 601 986 601 1035 q 570 912 601 938 q 478 887 539 887 z "},"ṇ":{"ha":946,"x_min":106,"x_max":849,"o":"m 106 758 l 267 758 l 280 678 l 290 678 q 409 746 341 722 q 552 769 476 769 q 769 692 690 769 q 849 451 849 615 l 849 0 l 653 0 l 653 442 q 614 567 653 529 q 500 604 576 604 q 393 584 446 604 q 302 524 340 564 l 302 0 l 106 0 l 106 758 m 478 -287 q 398 -261 425 -287 q 370 -192 370 -236 q 398 -123 370 -149 q 478 -98 425 -98 q 558 -123 531 -98 q 585 -192 585 -149 q 558 -261 585 -236 q 478 -287 531 -287 z "},"ŋ":{"ha":946,"x_min":106,"x_max":849,"o":"m 530 -242 q 624 -78 596 -163 q 653 121 653 7 l 653 444 q 614 567 653 530 q 500 604 575 604 q 392 584 444 604 q 302 524 340 563 l 302 0 l 106 0 l 106 758 l 267 758 l 280 678 l 290 678 q 408 746 340 723 q 553 769 476 769 q 769 692 690 769 q 849 454 849 615 l 849 115 q 801 -118 845 -14 q 653 -326 756 -222 l 530 -242 z "},"ǌ":{"ha":1354,"x_min":106,"x_max":1269,"o":"m 106 758 l 267 758 l 280 678 l 290 678 q 409 746 341 722 q 552 769 476 769 q 769 692 690 769 q 849 451 849 615 l 849 0 l 653 0 l 653 442 q 614 567 653 529 q 500 604 576 604 q 393 584 446 604 q 302 524 340 564 l 302 0 l 106 0 l 106 758 m 929 -242 q 1024 -78 995 -163 q 1052 121 1052 7 l 1052 758 l 1248 758 l 1248 128 q 1202 -112 1248 -4 q 1053 -326 1157 -220 l 929 -242 m 1146 891 q 1054 916 1085 891 q 1023 990 1023 942 q 1054 1065 1023 1039 q 1146 1090 1085 1090 q 1238 1065 1207 1090 q 1269 990 1269 1039 q 1238 916 1269 942 q 1146 891 1207 891 z "},"ṉ":{"ha":946,"x_min":106,"x_max":849,"o":"m 106 758 l 267 758 l 280 678 l 290 678 q 409 746 341 722 q 552 769 476 769 q 769 692 690 769 q 849 451 849 615 l 849 0 l 653 0 l 653 442 q 614 567 653 529 q 500 604 576 604 q 393 584 446 604 q 302 524 340 564 l 302 0 l 106 0 l 106 758 m 233 -248 l 233 -135 l 723 -135 l 723 -248 l 233 -248 z "},"ñ":{"ha":946,"x_min":106,"x_max":849,"o":"m 106 758 l 267 758 l 280 678 l 290 678 q 409 746 341 722 q 552 769 476 769 q 769 692 690 769 q 849 451 849 615 l 849 0 l 653 0 l 653 442 q 614 567 653 529 q 500 604 576 604 q 393 584 446 604 q 302 524 340 564 l 302 0 l 106 0 l 106 758 m 592 906 q 534 914 562 906 q 467 938 506 922 q 405 960 428 953 q 358 967 383 967 q 286 954 319 967 q 221 911 253 941 l 221 1031 q 283 1069 249 1057 q 363 1082 318 1082 q 422 1074 394 1082 q 489 1049 450 1065 q 550 1027 528 1034 q 597 1020 573 1020 q 669 1034 637 1020 q 735 1077 702 1047 l 735 957 q 672 918 706 931 q 592 906 637 906 z "},"o":{"ha":934,"x_min":65,"x_max":868,"o":"m 467 -14 q 254 31 344 -14 q 115 163 164 75 q 65 378 65 251 q 114 593 65 506 q 252 725 162 681 q 467 769 342 769 q 682 725 592 769 q 820 594 772 681 q 868 378 868 507 q 818 165 868 253 q 678 31 769 76 q 467 -14 588 -14 m 467 138 q 673 378 673 138 q 620 560 673 503 q 467 617 567 617 q 314 560 367 617 q 260 379 260 503 q 467 138 260 138 z "},"ó":{"ha":934,"x_min":65,"x_max":868,"o":"m 467 -14 q 254 31 344 -14 q 115 163 164 75 q 65 378 65 251 q 114 593 65 506 q 252 725 162 681 q 467 769 342 769 q 682 725 592 769 q 820 594 772 681 q 868 378 868 507 q 818 165 868 253 q 678 31 769 76 q 467 -14 588 -14 m 467 138 q 673 378 673 138 q 620 560 673 503 q 467 617 567 617 q 314 560 367 617 q 260 379 260 503 q 467 138 260 138 m 373 861 l 555 1122 l 772 1122 l 560 861 l 373 861 z "},"ŏ":{"ha":934,"x_min":65,"x_max":868,"o":"m 467 -14 q 254 31 344 -14 q 115 163 164 75 q 65 378 65 251 q 114 593 65 506 q 252 725 162 681 q 467 769 342 769 q 682 725 592 769 q 820 594 772 681 q 868 378 868 507 q 818 165 868 253 q 678 31 769 76 q 467 -14 588 -14 m 467 138 q 673 378 673 138 q 620 560 673 503 q 467 617 567 617 q 314 560 367 617 q 260 379 260 503 q 467 138 260 138 m 467 867 q 273 931 342 867 q 198 1106 203 995 l 318 1106 q 467 967 331 967 q 615 1106 603 967 l 735 1106 q 661 931 730 994 q 467 867 592 867 z "},"ô":{"ha":934,"x_min":65,"x_max":868,"o":"m 467 -14 q 254 31 344 -14 q 115 163 164 75 q 65 378 65 251 q 114 593 65 506 q 252 725 162 681 q 467 769 342 769 q 682 725 592 769 q 820 594 772 681 q 868 378 868 507 q 818 165 868 253 q 678 31 769 76 q 467 -14 588 -14 m 467 138 q 673 378 673 138 q 620 560 673 503 q 467 617 567 617 q 314 560 367 617 q 260 379 260 503 q 467 138 260 138 m 736 861 l 585 861 l 467 1028 l 348 861 l 197 861 l 388 1122 l 546 1122 l 736 861 z "},"ố":{"ha":934,"x_min":65,"x_max":953,"o":"m 467 -14 q 254 31 344 -14 q 115 163 164 75 q 65 378 65 251 q 114 593 65 506 q 252 725 162 681 q 467 769 342 769 q 682 725 592 769 q 820 594 772 681 q 868 378 868 507 q 818 165 868 253 q 678 31 769 76 q 467 -14 588 -14 m 467 138 q 673 378 673 138 q 620 560 673 503 q 467 617 567 617 q 314 560 367 617 q 260 379 260 503 q 467 138 260 138 m 779 1297 l 953 1297 l 775 1109 l 632 1109 l 779 1297 m 388 1122 l 546 1122 l 736 861 l 585 861 l 467 1028 l 348 861 l 197 861 l 388 1122 z "},"ộ":{"ha":934,"x_min":65,"x_max":868,"o":"m 467 -14 q 254 31 344 -14 q 115 163 164 75 q 65 378 65 251 q 114 593 65 506 q 252 725 162 681 q 467 769 342 769 q 682 725 592 769 q 820 594 772 681 q 868 378 868 507 q 818 165 868 253 q 678 31 769 76 q 467 -14 588 -14 m 467 138 q 673 378 673 138 q 620 560 673 503 q 467 617 567 617 q 314 560 367 617 q 260 379 260 503 q 467 138 260 138 m 467 -287 q 386 -261 414 -287 q 359 -192 359 -236 q 386 -123 359 -149 q 467 -98 414 -98 q 547 -123 519 -98 q 574 -192 574 -149 q 547 -261 574 -236 q 467 -287 519 -287 m 736 861 l 585 861 l 467 1028 l 348 861 l 197 861 l 388 1122 l 546 1122 l 736 861 z "},"ồ":{"ha":934,"x_min":65,"x_max":868,"o":"m 467 -14 q 254 31 344 -14 q 115 163 164 75 q 65 378 65 251 q 114 593 65 506 q 252 725 162 681 q 467 769 342 769 q 682 725 592 769 q 820 594 772 681 q 868 378 868 507 q 818 165 868 253 q 678 31 769 76 q 467 -14 588 -14 m 467 138 q 673 378 673 138 q 620 560 673 503 q 467 617 567 617 q 314 560 367 617 q 260 379 260 503 q 467 138 260 138 m 799 1109 l 656 1109 l 478 1297 l 651 1297 l 799 1109 m 388 1122 l 546 1122 l 736 861 l 585 861 l 467 1028 l 348 861 l 197 861 l 388 1122 z "},"ổ":{"ha":934,"x_min":65,"x_max":868,"o":"m 467 -14 q 254 31 344 -14 q 115 163 164 75 q 65 378 65 251 q 114 593 65 506 q 252 725 162 681 q 467 769 342 769 q 682 725 592 769 q 820 594 772 681 q 868 378 868 507 q 818 165 868 253 q 678 31 769 76 q 467 -14 588 -14 m 467 138 q 673 378 673 138 q 620 560 673 503 q 467 617 567 617 q 314 560 367 617 q 260 379 260 503 q 467 138 260 138 m 685 1307 q 806 1286 767 1307 q 844 1225 844 1266 q 829 1188 844 1201 q 783 1160 814 1174 q 742 1137 756 1147 q 726 1109 728 1126 l 635 1109 q 656 1155 637 1139 q 709 1184 676 1170 q 739 1199 730 1192 q 749 1215 749 1206 q 731 1235 749 1228 q 672 1242 713 1242 q 537 1225 602 1242 l 537 1288 q 606 1302 565 1297 q 685 1307 646 1307 m 388 1122 l 546 1122 l 736 861 l 585 861 l 467 1028 l 348 861 l 197 861 l 388 1122 z "},"ỗ":{"ha":934,"x_min":65,"x_max":868,"o":"m 467 -14 q 254 31 344 -14 q 115 163 164 75 q 65 378 65 251 q 114 593 65 506 q 252 725 162 681 q 467 769 342 769 q 682 725 592 769 q 820 594 772 681 q 868 378 868 507 q 818 165 868 253 q 678 31 769 76 q 467 -14 588 -14 m 467 138 q 673 378 673 138 q 620 560 673 503 q 467 617 567 617 q 314 560 367 617 q 260 379 260 503 q 467 138 260 138 m 589 1134 q 527 1140 556 1134 q 456 1158 498 1146 q 392 1175 416 1169 q 340 1181 367 1181 q 265 1170 298 1181 q 199 1138 233 1160 l 199 1234 q 263 1267 228 1256 q 344 1278 298 1278 q 408 1272 378 1278 q 478 1253 438 1265 q 542 1236 517 1242 q 593 1231 566 1231 q 668 1241 635 1231 q 734 1274 701 1251 l 734 1177 q 671 1144 706 1155 q 589 1134 636 1134 m 758 862 l 597 862 l 467 1015 l 336 862 l 175 862 l 383 1093 l 551 1093 l 758 862 z "},"ȍ":{"ha":934,"x_min":65,"x_max":868,"o":"m 467 -14 q 254 31 344 -14 q 115 163 164 75 q 65 378 65 251 q 114 593 65 506 q 252 725 162 681 q 467 769 342 769 q 682 725 592 769 q 820 594 772 681 q 868 378 868 507 q 818 165 868 253 q 678 31 769 76 q 467 -14 588 -14 m 467 138 q 673 378 673 138 q 620 560 673 503 q 467 617 567 617 q 314 560 367 617 q 260 379 260 503 q 467 138 260 138 m 253 861 l 122 1122 l 276 1122 l 396 861 l 253 861 m 538 861 l 407 1122 l 561 1122 l 681 861 l 538 861 z "},"ö":{"ha":934,"x_min":65,"x_max":868,"o":"m 467 -14 q 254 31 344 -14 q 115 163 164 75 q 65 378 65 251 q 114 593 65 506 q 252 725 162 681 q 467 769 342 769 q 682 725 592 769 q 820 594 772 681 q 868 378 868 507 q 818 165 868 253 q 678 31 769 76 q 467 -14 588 -14 m 467 138 q 673 378 673 138 q 620 560 673 503 q 467 617 567 617 q 314 560 367 617 q 260 379 260 503 q 467 138 260 138 m 283 888 q 202 914 229 888 q 175 986 175 940 q 202 1059 175 1033 q 283 1085 229 1085 q 363 1059 336 1085 q 390 986 390 1033 q 363 914 390 940 q 283 888 336 888 m 651 888 q 570 914 597 888 q 543 986 543 940 q 570 1059 543 1033 q 651 1085 597 1085 q 731 1059 704 1085 q 758 986 758 1033 q 731 914 758 940 q 651 888 704 888 z "},"ȫ":{"ha":934,"x_min":65,"x_max":868,"o":"m 467 -14 q 254 31 344 -14 q 115 163 164 75 q 65 378 65 251 q 114 593 65 506 q 252 725 162 681 q 467 769 342 769 q 682 725 592 769 q 820 594 772 681 q 868 378 868 507 q 818 165 868 253 q 678 31 769 76 q 467 -14 588 -14 m 467 138 q 673 378 673 138 q 620 560 673 503 q 467 617 567 617 q 314 560 367 617 q 260 379 260 503 q 467 138 260 138 m 283 888 q 202 914 229 888 q 175 986 175 940 q 202 1059 175 1033 q 283 1085 229 1085 q 363 1059 336 1085 q 390 986 390 1033 q 363 914 390 940 q 283 888 336 888 m 651 888 q 570 914 597 888 q 543 986 543 940 q 570 1059 543 1033 q 651 1085 597 1085 q 731 1059 704 1085 q 758 986 758 1033 q 731 914 758 940 q 651 888 704 888 m 210 1200 l 210 1313 l 724 1313 l 724 1200 l 210 1200 z "},"ȱ":{"ha":934,"x_min":65,"x_max":868,"o":"m 467 -14 q 254 31 344 -14 q 115 163 164 75 q 65 378 65 251 q 114 593 65 506 q 252 725 162 681 q 467 769 342 769 q 682 725 592 769 q 820 594 772 681 q 868 378 868 507 q 818 165 868 253 q 678 31 769 76 q 467 -14 588 -14 m 467 138 q 673 378 673 138 q 620 560 673 503 q 467 617 567 617 q 314 560 367 617 q 260 379 260 503 q 467 138 260 138 m 467 887 q 375 912 406 887 q 344 986 344 938 q 375 1060 344 1035 q 467 1086 406 1086 q 559 1060 528 1086 q 590 986 590 1035 q 559 912 590 938 q 467 887 528 887 m 210 1172 l 210 1285 l 724 1285 l 724 1172 l 210 1172 z "},"ọ":{"ha":934,"x_min":65,"x_max":868,"o":"m 467 -14 q 254 31 344 -14 q 115 163 164 75 q 65 378 65 251 q 114 593 65 506 q 252 725 162 681 q 467 769 342 769 q 682 725 592 769 q 820 594 772 681 q 868 378 868 507 q 818 165 868 253 q 678 31 769 76 q 467 -14 588 -14 m 467 138 q 673 378 673 138 q 620 560 673 503 q 467 617 567 617 q 314 560 367 617 q 260 379 260 503 q 467 138 260 138 m 467 -287 q 386 -261 414 -287 q 359 -192 359 -236 q 386 -123 359 -149 q 467 -98 414 -98 q 547 -123 519 -98 q 574 -192 574 -149 q 547 -261 574 -236 q 467 -287 519 -287 z "},"ò":{"ha":934,"x_min":65,"x_max":868,"o":"m 467 -14 q 254 31 344 -14 q 115 163 164 75 q 65 378 65 251 q 114 593 65 506 q 252 725 162 681 q 467 769 342 769 q 682 725 592 769 q 820 594 772 681 q 868 378 868 507 q 818 165 868 253 q 678 31 769 76 q 467 -14 588 -14 m 467 138 q 673 378 673 138 q 620 560 673 503 q 467 617 567 617 q 314 560 367 617 q 260 379 260 503 q 467 138 260 138 m 373 861 l 161 1122 l 378 1122 l 560 861 l 373 861 z "},"ỏ":{"ha":934,"x_min":65,"x_max":868,"o":"m 467 -14 q 254 31 344 -14 q 115 163 164 75 q 65 378 65 251 q 114 593 65 506 q 252 725 162 681 q 467 769 342 769 q 682 725 592 769 q 820 594 772 681 q 868 378 868 507 q 818 165 868 253 q 678 31 769 76 q 467 -14 588 -14 m 467 138 q 673 378 673 138 q 620 560 673 503 q 467 617 567 617 q 314 560 367 617 q 260 379 260 503 q 467 138 260 138 m 417 861 q 429 909 418 889 q 455 941 440 928 q 492 967 469 953 q 525 992 515 982 q 535 1017 535 1002 q 516 1045 535 1037 q 453 1054 497 1054 q 329 1038 391 1054 l 329 1113 q 393 1126 356 1122 q 464 1131 431 1131 q 595 1105 553 1131 q 638 1027 638 1079 q 629 986 638 1003 q 608 959 620 969 q 574 934 595 948 q 534 901 548 916 q 517 861 519 885 l 417 861 z "},"ơ":{"ha":934,"x_min":65,"x_max":899,"o":"m 756 675 q 868 378 868 575 q 818 165 868 253 q 678 31 769 76 q 467 -14 588 -14 q 254 31 344 -14 q 115 163 164 75 q 65 378 65 251 q 114 593 65 506 q 254 725 163 681 q 474 769 346 769 q 573 765 508 769 q 629 761 608 761 q 738 787 701 761 q 774 872 774 813 q 761 969 774 915 l 885 969 q 896 917 893 941 q 899 867 899 894 q 862 741 899 790 q 756 675 825 692 m 467 138 q 673 378 673 138 q 620 560 673 503 q 467 617 567 617 q 314 560 367 617 q 260 379 260 503 q 467 138 260 138 z "},"ớ":{"ha":934,"x_min":65,"x_max":899,"o":"m 756 675 q 868 378 868 575 q 818 165 868 253 q 678 31 769 76 q 467 -14 588 -14 q 254 31 344 -14 q 115 163 164 75 q 65 378 65 251 q 114 593 65 506 q 254 725 163 681 q 474 769 346 769 q 573 765 508 769 q 629 761 608 761 q 738 787 701 761 q 774 872 774 813 q 761 969 774 915 l 885 969 q 896 917 893 941 q 899 867 899 894 q 862 741 899 790 q 756 675 825 692 m 467 138 q 673 378 673 138 q 620 560 673 503 q 467 617 567 617 q 314 560 367 617 q 260 379 260 503 q 467 138 260 138 m 371 861 l 553 1122 l 770 1122 l 558 861 l 371 861 z "},"ợ":{"ha":934,"x_min":65,"x_max":899,"o":"m 756 675 q 868 378 868 575 q 818 165 868 253 q 678 31 769 76 q 467 -14 588 -14 q 254 31 344 -14 q 115 163 164 75 q 65 378 65 251 q 114 593 65 506 q 254 725 163 681 q 474 769 346 769 q 573 765 508 769 q 629 761 608 761 q 738 787 701 761 q 774 872 774 813 q 761 969 774 915 l 885 969 q 896 917 893 941 q 899 867 899 894 q 862 741 899 790 q 756 675 825 692 m 467 138 q 673 378 673 138 q 620 560 673 503 q 467 617 567 617 q 314 560 367 617 q 260 379 260 503 q 467 138 260 138 m 465 -287 q 384 -261 412 -287 q 357 -192 357 -236 q 384 -123 357 -149 q 465 -98 412 -98 q 545 -123 517 -98 q 572 -192 572 -149 q 545 -261 572 -236 q 465 -287 517 -287 z "},"ờ":{"ha":934,"x_min":65,"x_max":899,"o":"m 756 675 q 868 378 868 575 q 818 165 868 253 q 678 31 769 76 q 467 -14 588 -14 q 254 31 344 -14 q 115 163 164 75 q 65 378 65 251 q 114 593 65 506 q 254 725 163 681 q 474 769 346 769 q 573 765 508 769 q 629 761 608 761 q 738 787 701 761 q 774 872 774 813 q 761 969 774 915 l 885 969 q 896 917 893 941 q 899 867 899 894 q 862 741 899 790 q 756 675 825 692 m 467 138 q 673 378 673 138 q 620 560 673 503 q 467 617 567 617 q 314 560 367 617 q 260 379 260 503 q 467 138 260 138 m 371 861 l 159 1122 l 376 1122 l 558 861 l 371 861 z "},"ở":{"ha":934,"x_min":65,"x_max":899,"o":"m 756 675 q 868 378 868 575 q 818 165 868 253 q 678 31 769 76 q 467 -14 588 -14 q 254 31 344 -14 q 115 163 164 75 q 65 378 65 251 q 114 593 65 506 q 254 725 163 681 q 474 769 346 769 q 573 765 508 769 q 629 761 608 761 q 738 787 701 761 q 774 872 774 813 q 761 969 774 915 l 885 969 q 896 917 893 941 q 899 867 899 894 q 862 741 899 790 q 756 675 825 692 m 467 138 q 673 378 673 138 q 620 560 673 503 q 467 617 567 617 q 314 560 367 617 q 260 379 260 503 q 467 138 260 138 m 415 861 q 427 909 416 889 q 453 941 438 928 q 490 967 467 953 q 523 992 513 982 q 533 1017 533 1002 q 514 1045 533 1037 q 451 1054 494 1054 q 327 1038 389 1054 l 327 1113 q 391 1126 353 1122 q 462 1131 429 1131 q 593 1105 551 1131 q 635 1027 635 1079 q 627 986 635 1003 q 606 959 618 969 q 572 934 593 948 q 532 901 546 916 q 515 861 517 885 l 415 861 z "},"ỡ":{"ha":934,"x_min":65,"x_max":899,"o":"m 576 906 q 519 914 547 906 q 453 938 492 922 q 396 960 419 953 q 349 967 373 967 q 280 954 311 967 q 215 911 248 941 l 215 1031 q 277 1069 243 1057 q 353 1082 310 1082 q 411 1074 383 1082 q 476 1049 438 1065 q 535 1027 513 1034 q 581 1020 557 1020 q 651 1034 619 1020 q 715 1077 683 1047 l 715 957 q 653 918 687 931 q 576 906 619 906 m 756 675 q 868 378 868 575 q 818 165 868 253 q 678 31 769 76 q 467 -14 588 -14 q 254 31 344 -14 q 115 163 164 75 q 65 378 65 251 q 114 593 65 506 q 254 725 163 681 q 474 769 346 769 q 573 765 508 769 q 629 761 608 761 q 738 787 701 761 q 774 872 774 813 q 761 969 774 915 l 885 969 q 896 917 893 941 q 899 867 899 894 q 862 741 899 790 q 756 675 825 692 m 467 138 q 673 378 673 138 q 620 560 673 503 q 467 617 567 617 q 314 560 367 617 q 260 379 260 503 q 467 138 260 138 z "},"ő":{"ha":934,"x_min":65,"x_max":868,"o":"m 467 -14 q 254 31 344 -14 q 115 163 164 75 q 65 378 65 251 q 114 593 65 506 q 252 725 162 681 q 467 769 342 769 q 682 725 592 769 q 820 594 772 681 q 868 378 868 507 q 818 165 868 253 q 678 31 769 76 q 467 -14 588 -14 m 467 138 q 673 378 673 138 q 620 560 673 503 q 467 617 567 617 q 314 560 367 617 q 260 379 260 503 q 467 138 260 138 m 254 861 l 374 1122 l 526 1122 l 396 861 l 254 861 m 538 861 l 657 1122 l 810 1122 l 679 861 l 538 861 z "},"ȏ":{"ha":934,"x_min":65,"x_max":868,"o":"m 467 -14 q 254 31 344 -14 q 115 163 164 75 q 65 378 65 251 q 114 593 65 506 q 252 725 162 681 q 467 769 342 769 q 682 725 592 769 q 820 594 772 681 q 868 378 868 507 q 818 165 868 253 q 678 31 769 76 q 467 -14 588 -14 m 467 138 q 673 378 673 138 q 620 560 673 503 q 467 617 567 617 q 314 560 367 617 q 260 379 260 503 q 467 138 260 138 m 198 881 q 272 1056 203 992 q 466 1120 341 1120 q 609 1091 550 1120 q 700 1007 668 1061 q 735 881 731 953 l 615 881 q 573 983 609 947 q 466 1019 536 1019 q 318 881 331 1019 l 198 881 z "},"ō":{"ha":934,"x_min":65,"x_max":868,"o":"m 467 -14 q 254 31 344 -14 q 115 163 164 75 q 65 378 65 251 q 114 593 65 506 q 252 725 162 681 q 467 769 342 769 q 682 725 592 769 q 820 594 772 681 q 868 378 868 507 q 818 165 868 253 q 678 31 769 76 q 467 -14 588 -14 m 467 138 q 673 378 673 138 q 620 560 673 503 q 467 617 567 617 q 314 560 367 617 q 260 379 260 503 q 467 138 260 138 m 210 931 l 210 1044 l 724 1044 l 724 931 l 210 931 z "},"ṓ":{"ha":934,"x_min":65,"x_max":868,"o":"m 467 -14 q 254 31 344 -14 q 115 163 164 75 q 65 378 65 251 q 114 593 65 506 q 252 725 162 681 q 467 769 342 769 q 682 725 592 769 q 820 594 772 681 q 868 378 868 507 q 818 165 868 253 q 678 31 769 76 q 467 -14 588 -14 m 467 138 q 673 378 673 138 q 620 560 673 503 q 467 617 567 617 q 314 560 367 617 q 260 379 260 503 q 467 138 260 138 m 210 931 l 210 1044 l 724 1044 l 724 931 l 210 931 m 375 1158 l 522 1364 l 733 1364 l 556 1158 l 375 1158 z "},"ṑ":{"ha":934,"x_min":65,"x_max":868,"o":"m 467 -14 q 254 31 344 -14 q 115 163 164 75 q 65 378 65 251 q 114 593 65 506 q 252 725 162 681 q 467 769 342 769 q 682 725 592 769 q 820 594 772 681 q 868 378 868 507 q 818 165 868 253 q 678 31 769 76 q 467 -14 588 -14 m 467 138 q 673 378 673 138 q 620 560 673 503 q 467 617 567 617 q 314 560 367 617 q 260 379 260 503 q 467 138 260 138 m 210 931 l 210 1044 l 724 1044 l 724 931 l 210 931 m 376 1158 l 199 1364 l 410 1364 l 557 1158 l 376 1158 z "},"ǫ":{"ha":934,"x_min":65,"x_max":868,"o":"m 617 7 q 476 -62 515 -24 q 437 -146 437 -101 q 461 -201 437 -181 q 529 -222 485 -222 q 622 -201 576 -222 l 628 -276 q 503 -300 572 -300 q 370 -263 417 -300 q 323 -161 323 -226 q 413 -12 323 -68 q 228 45 306 -2 q 108 177 150 92 q 65 378 65 261 q 114 593 65 506 q 252 725 162 681 q 467 769 342 769 q 682 725 592 769 q 820 594 772 681 q 868 378 868 507 q 802 137 868 231 q 617 7 735 42 m 260 379 q 467 138 260 138 q 673 378 673 138 q 620 560 673 503 q 467 617 567 617 q 314 560 367 617 q 260 379 260 503 z "},"ø":{"ha":934,"x_min":65,"x_max":868,"o":"m 760 672 q 868 378 868 571 q 818 165 868 253 q 678 31 769 76 q 467 -14 588 -14 q 254 31 345 -14 l 199 -39 l 124 23 l 174 86 q 93 210 122 136 q 65 378 65 283 q 114 593 65 506 q 252 725 162 681 q 467 769 342 769 q 680 726 590 769 l 735 797 l 810 735 l 760 672 m 467 619 q 312 562 365 619 q 259 379 259 504 q 291 225 259 283 l 582 594 q 467 619 535 619 m 467 136 q 622 194 568 136 q 675 378 675 252 q 642 532 675 475 l 352 163 q 467 136 398 136 z "},"ǿ":{"ha":934,"x_min":65,"x_max":868,"o":"m 760 672 q 868 378 868 571 q 818 165 868 253 q 678 31 769 76 q 467 -14 588 -14 q 254 31 345 -14 l 199 -39 l 124 23 l 174 86 q 93 210 122 136 q 65 378 65 283 q 114 593 65 506 q 252 725 162 681 q 467 769 342 769 q 680 726 590 769 l 735 797 l 810 735 l 760 672 m 467 619 q 312 562 365 619 q 259 379 259 504 q 291 225 259 283 l 582 594 q 467 619 535 619 m 467 136 q 622 194 568 136 q 675 378 675 252 q 642 532 675 475 l 352 163 q 467 136 398 136 m 368 861 l 550 1122 l 767 1122 l 556 861 l 368 861 z "},"õ":{"ha":934,"x_min":65,"x_max":868,"o":"m 467 -14 q 254 31 344 -14 q 115 163 164 75 q 65 378 65 251 q 114 593 65 506 q 252 725 162 681 q 467 769 342 769 q 682 725 592 769 q 820 594 772 681 q 868 378 868 507 q 818 165 868 253 q 678 31 769 76 q 467 -14 588 -14 m 467 138 q 673 378 673 138 q 620 560 673 503 q 467 617 567 617 q 314 560 367 617 q 260 379 260 503 q 467 138 260 138 m 581 906 q 523 914 551 906 q 456 938 494 922 q 394 960 417 953 q 347 967 372 967 q 275 954 308 967 q 210 911 242 941 l 210 1031 q 272 1069 238 1057 q 352 1082 307 1082 q 411 1074 383 1082 q 478 1049 439 1065 q 539 1027 517 1034 q 586 1020 562 1020 q 658 1034 626 1020 q 724 1077 691 1047 l 724 957 q 660 918 695 931 q 581 906 626 906 z "},"ṍ":{"ha":934,"x_min":65,"x_max":868,"o":"m 467 -14 q 254 31 344 -14 q 115 163 164 75 q 65 378 65 251 q 114 593 65 506 q 252 725 162 681 q 467 769 342 769 q 682 725 592 769 q 820 594 772 681 q 868 378 868 507 q 818 165 868 253 q 678 31 769 76 q 467 -14 588 -14 m 467 138 q 673 378 673 138 q 620 560 673 503 q 467 617 567 617 q 314 560 367 617 q 260 379 260 503 q 467 138 260 138 m 581 906 q 523 914 551 906 q 456 938 494 922 q 394 960 417 953 q 347 967 372 967 q 275 954 308 967 q 210 911 242 941 l 210 1031 q 272 1069 238 1057 q 352 1082 307 1082 q 411 1074 383 1082 q 478 1049 439 1065 q 539 1027 517 1034 q 586 1020 562 1020 q 658 1034 626 1020 q 724 1077 691 1047 l 724 957 q 660 918 695 931 q 581 906 626 906 m 375 1158 l 522 1364 l 733 1364 l 556 1158 l 375 1158 z "},"ṏ":{"ha":934,"x_min":65,"x_max":868,"o":"m 467 -14 q 254 31 344 -14 q 115 163 164 75 q 65 378 65 251 q 114 593 65 506 q 252 725 162 681 q 467 769 342 769 q 682 725 592 769 q 820 594 772 681 q 868 378 868 507 q 818 165 868 253 q 678 31 769 76 q 467 -14 588 -14 m 467 138 q 673 378 673 138 q 620 560 673 503 q 467 617 567 617 q 314 560 367 617 q 260 379 260 503 q 467 138 260 138 m 581 906 q 523 914 551 906 q 456 938 494 922 q 394 960 417 953 q 347 967 372 967 q 275 954 308 967 q 210 911 242 941 l 210 1031 q 272 1069 238 1057 q 352 1082 307 1082 q 411 1074 383 1082 q 478 1049 439 1065 q 539 1027 517 1034 q 586 1020 562 1020 q 658 1034 626 1020 q 724 1077 691 1047 l 724 957 q 660 918 695 931 q 581 906 626 906 m 283 1158 q 202 1183 229 1158 q 175 1256 175 1209 q 202 1328 175 1302 q 283 1354 229 1354 q 363 1328 336 1354 q 390 1256 390 1302 q 363 1183 390 1209 q 283 1158 336 1158 m 651 1158 q 570 1183 597 1158 q 543 1256 543 1209 q 570 1328 543 1302 q 651 1354 597 1354 q 731 1328 704 1354 q 758 1256 758 1302 q 731 1183 758 1209 q 651 1158 704 1158 z "},"ȭ":{"ha":934,"x_min":65,"x_max":868,"o":"m 467 -14 q 254 31 344 -14 q 115 163 164 75 q 65 378 65 251 q 114 593 65 506 q 252 725 162 681 q 467 769 342 769 q 682 725 592 769 q 820 594 772 681 q 868 378 868 507 q 818 165 868 253 q 678 31 769 76 q 467 -14 588 -14 m 467 138 q 673 378 673 138 q 620 560 673 503 q 467 617 567 617 q 314 560 367 617 q 260 379 260 503 q 467 138 260 138 m 581 906 q 523 914 551 906 q 456 938 494 922 q 394 960 417 953 q 347 967 372 967 q 275 954 308 967 q 210 911 242 941 l 210 1031 q 272 1069 238 1057 q 352 1082 307 1082 q 411 1074 383 1082 q 478 1049 439 1065 q 539 1027 517 1034 q 586 1020 562 1020 q 658 1034 626 1020 q 724 1077 691 1047 l 724 957 q 660 918 695 931 q 581 906 626 906 m 210 1200 l 210 1313 l 724 1313 l 724 1200 l 210 1200 z "},"œ":{"ha":1456,"x_min":65,"x_max":1401,"o":"m 1401 324 l 865 324 q 898 211 869 253 q 986 148 927 168 q 1142 128 1045 128 q 1356 156 1238 128 l 1356 15 q 1113 -14 1236 -14 q 897 19 985 -14 q 759 117 810 51 q 636 19 712 53 q 458 -14 560 -14 q 252 31 340 -14 q 114 164 163 76 q 65 378 65 251 q 113 593 65 505 q 249 725 161 681 q 458 769 338 769 q 767 633 673 769 q 886 734 813 699 q 1053 769 960 769 q 1242 723 1164 769 q 1360 587 1319 676 q 1401 372 1401 498 l 1401 324 m 1043 647 q 913 595 958 647 q 865 435 867 543 l 1218 435 q 1171 594 1215 542 q 1043 647 1127 647 m 465 138 q 671 378 671 138 q 618 560 671 503 q 465 617 565 617 q 313 560 366 617 q 260 379 260 503 q 465 138 260 138 z "},"p":{"ha":951,"x_min":106,"x_max":885,"o":"m 106 758 l 270 758 l 282 675 l 291 675 q 398 744 335 719 q 534 769 460 769 q 714 730 635 769 q 839 607 793 691 q 885 394 885 523 q 834 172 885 263 q 685 33 783 80 q 448 -14 587 -14 q 302 -3 392 -14 l 302 -306 l 106 -306 l 106 758 m 437 135 q 628 196 565 135 q 690 381 690 256 q 483 612 690 612 q 384 594 431 612 q 302 537 337 576 l 302 150 q 437 135 365 135 z "},"þ":{"ha":951,"x_min":106,"x_max":885,"o":"m 106 1122 l 302 1122 l 302 680 l 311 680 q 416 747 356 724 q 549 769 476 769 q 721 729 645 769 q 841 605 797 689 q 885 394 885 520 q 834 172 885 263 q 685 33 783 80 q 448 -14 587 -14 q 302 -3 392 -14 l 302 -306 l 106 -306 l 106 1122 m 437 135 q 628 196 565 135 q 690 381 690 256 q 636 557 690 502 q 485 612 581 612 q 385 594 433 612 q 302 538 337 576 l 302 150 q 437 135 365 135 z "},"q":{"ha":951,"x_min":65,"x_max":845,"o":"m 649 74 l 640 74 q 535 9 595 31 q 401 -14 474 -14 q 230 26 306 -14 q 110 150 154 67 q 65 359 65 234 q 182 665 65 561 q 527 769 299 769 q 692 758 608 769 q 845 727 776 747 l 845 -306 l 649 -306 l 649 74 m 466 144 q 566 160 518 144 q 649 211 613 177 l 649 605 q 509 621 584 621 q 260 374 260 621 q 466 144 260 144 z "},"r":{"ha":608,"x_min":106,"x_max":599,"o":"m 106 758 l 267 758 l 282 664 l 292 664 q 392 740 331 713 q 525 767 454 767 q 599 760 565 767 l 599 587 q 515 593 565 593 q 397 572 456 593 q 302 510 338 551 l 302 0 l 106 0 l 106 758 z "},"ŕ":{"ha":608,"x_min":106,"x_max":658,"o":"m 106 758 l 267 758 l 282 664 l 292 664 q 392 740 331 713 q 525 767 454 767 q 599 760 565 767 l 599 587 q 515 593 565 593 q 397 572 456 593 q 302 510 338 551 l 302 0 l 106 0 l 106 758 m 259 861 l 441 1122 l 658 1122 l 447 861 l 259 861 z "},"ř":{"ha":608,"x_min":81,"x_max":624,"o":"m 106 758 l 267 758 l 282 664 l 292 664 q 392 740 331 713 q 525 767 454 767 q 599 760 565 767 l 599 587 q 515 593 565 593 q 397 572 456 593 q 302 510 338 551 l 302 0 l 106 0 l 106 758 m 474 1122 l 624 1122 l 432 861 l 274 861 l 81 1122 l 231 1122 l 353 954 l 474 1122 z "},"ŗ":{"ha":608,"x_min":91,"x_max":599,"o":"m 106 758 l 267 758 l 282 664 l 292 664 q 392 740 331 713 q 525 767 454 767 q 599 760 565 767 l 599 587 q 515 593 565 593 q 397 572 456 593 q 302 510 338 551 l 302 0 l 106 0 l 106 758 m 203 -98 q 317 -192 317 -98 q 304 -267 317 -227 q 267 -338 290 -307 l 148 -338 q 183 -239 176 -281 q 91 -169 91 -232 q 119 -116 91 -135 q 203 -98 147 -98 z "},"ȑ":{"ha":608,"x_min":8,"x_max":599,"o":"m 106 758 l 267 758 l 282 664 l 292 664 q 392 740 331 713 q 525 767 454 767 q 599 760 565 767 l 599 587 q 515 593 565 593 q 397 572 456 593 q 302 510 338 551 l 302 0 l 106 0 l 106 758 m 139 861 l 8 1122 l 163 1122 l 282 861 l 139 861 m 424 861 l 293 1122 l 447 1122 l 567 861 l 424 861 z "},"ṛ":{"ha":608,"x_min":97,"x_max":599,"o":"m 106 758 l 267 758 l 282 664 l 292 664 q 392 740 331 713 q 525 767 454 767 q 599 760 565 767 l 599 587 q 515 593 565 593 q 397 572 456 593 q 302 510 338 551 l 302 0 l 106 0 l 106 758 m 204 -287 q 124 -261 151 -287 q 97 -192 97 -236 q 124 -123 97 -149 q 204 -98 151 -98 q 284 -123 257 -98 q 312 -192 312 -149 q 284 -261 312 -236 q 204 -287 257 -287 z "},"ȓ":{"ha":608,"x_min":84,"x_max":622,"o":"m 106 758 l 267 758 l 282 664 l 292 664 q 392 740 331 713 q 525 767 454 767 q 599 760 565 767 l 599 587 q 515 593 565 593 q 397 572 456 593 q 302 510 338 551 l 302 0 l 106 0 l 106 758 m 84 881 q 158 1056 90 992 q 352 1120 227 1120 q 495 1091 436 1120 q 586 1007 554 1061 q 622 881 617 953 l 501 881 q 459 983 495 947 q 352 1019 422 1019 q 204 881 217 1019 l 84 881 z "},"ṟ":{"ha":608,"x_min":-41,"x_max":599,"o":"m 106 758 l 267 758 l 282 664 l 292 664 q 392 740 331 713 q 525 767 454 767 q 599 760 565 767 l 599 587 q 515 593 565 593 q 397 572 456 593 q 302 510 338 551 l 302 0 l 106 0 l 106 758 m -41 -248 l -41 -135 l 449 -135 l 449 -248 l -41 -248 z "},"s":{"ha":769,"x_min":65,"x_max":718,"o":"m 354 -14 q 81 20 200 -14 l 81 157 q 353 121 210 121 q 490 144 449 121 q 531 214 531 168 q 510 268 531 249 q 435 295 490 287 l 293 316 q 119 388 172 334 q 65 531 65 441 q 159 706 65 642 q 447 769 253 769 q 567 762 507 769 q 675 741 627 754 l 675 604 q 448 634 569 634 q 295 609 338 634 q 252 540 252 584 q 273 488 252 508 q 346 458 294 467 l 488 438 q 662 371 606 420 q 718 224 718 322 q 677 97 718 150 q 554 15 635 43 q 354 -14 472 -14 z "},"ś":{"ha":769,"x_min":65,"x_max":718,"o":"m 354 -14 q 81 20 200 -14 l 81 157 q 353 121 210 121 q 490 144 449 121 q 531 214 531 168 q 510 268 531 249 q 435 295 490 287 l 293 316 q 119 388 172 334 q 65 531 65 441 q 159 706 65 642 q 447 769 253 769 q 567 762 507 769 q 675 741 627 754 l 675 604 q 448 634 569 634 q 295 609 338 634 q 252 540 252 584 q 273 488 252 508 q 346 458 294 467 l 488 438 q 662 371 606 420 q 718 224 718 322 q 677 97 718 150 q 554 15 635 43 q 354 -14 472 -14 m 297 861 l 479 1122 l 697 1122 l 485 861 l 297 861 z "},"ṥ":{"ha":769,"x_min":65,"x_max":718,"o":"m 354 -14 q 81 20 200 -14 l 81 157 q 353 121 210 121 q 490 144 449 121 q 531 214 531 168 q 510 268 531 249 q 435 295 490 287 l 293 316 q 119 388 172 334 q 65 531 65 441 q 159 706 65 642 q 447 769 253 769 q 567 762 507 769 q 675 741 627 754 l 675 604 q 448 634 569 634 q 295 609 338 634 q 252 540 252 584 q 273 488 252 508 q 346 458 294 467 l 488 438 q 662 371 606 420 q 718 224 718 322 q 677 97 718 150 q 554 15 635 43 q 354 -14 472 -14 m 288 1094 q 213 1114 238 1094 q 188 1168 188 1134 q 213 1223 188 1203 q 288 1243 238 1243 q 363 1223 338 1243 q 388 1168 388 1203 q 363 1114 388 1134 q 288 1094 338 1094 m 297 861 l 479 1122 l 697 1122 l 485 861 l 297 861 z "},"š":{"ha":769,"x_min":65,"x_max":718,"o":"m 354 -14 q 81 20 200 -14 l 81 157 q 353 121 210 121 q 490 144 449 121 q 531 214 531 168 q 510 268 531 249 q 435 295 490 287 l 293 316 q 119 388 172 334 q 65 531 65 441 q 159 706 65 642 q 447 769 253 769 q 567 762 507 769 q 675 741 627 754 l 675 604 q 448 634 569 634 q 295 609 338 634 q 252 540 252 584 q 273 488 252 508 q 346 458 294 467 l 488 438 q 662 371 606 420 q 718 224 718 322 q 677 97 718 150 q 554 15 635 43 q 354 -14 472 -14 m 513 1122 l 663 1122 l 470 861 l 312 861 l 119 1122 l 269 1122 l 391 954 l 513 1122 z "},"ṧ":{"ha":769,"x_min":65,"x_max":718,"o":"m 354 -14 q 81 20 200 -14 l 81 157 q 353 121 210 121 q 490 144 449 121 q 531 214 531 168 q 510 268 531 249 q 435 295 490 287 l 293 316 q 119 388 172 334 q 65 531 65 441 q 159 706 65 642 q 447 769 253 769 q 567 762 507 769 q 675 741 627 754 l 675 604 q 448 634 569 634 q 295 609 338 634 q 252 540 252 584 q 273 488 252 508 q 346 458 294 467 l 488 438 q 662 371 606 420 q 718 224 718 322 q 677 97 718 150 q 554 15 635 43 q 354 -14 472 -14 m 391 1137 q 316 1157 341 1137 q 291 1210 291 1176 q 316 1265 291 1244 q 391 1285 341 1285 q 466 1265 441 1285 q 491 1210 491 1244 q 466 1157 491 1176 q 391 1137 441 1137 m 513 1122 l 663 1122 l 470 861 l 312 861 l 119 1122 l 269 1122 l 391 954 l 513 1122 z "},"ş":{"ha":769,"x_min":65,"x_max":718,"o":"m 718 224 q 648 66 718 127 q 443 -9 578 6 l 443 -63 q 534 -101 503 -71 q 565 -181 565 -132 q 520 -269 565 -237 q 393 -300 476 -300 q 320 -294 356 -300 q 257 -276 284 -287 l 257 -200 q 320 -219 285 -212 q 385 -225 354 -225 q 443 -213 424 -225 q 463 -174 463 -201 q 443 -134 463 -146 q 385 -122 424 -122 l 349 -122 l 349 -14 q 81 20 197 -12 l 81 157 q 353 121 210 121 q 490 144 449 121 q 531 214 531 168 q 510 268 531 249 q 435 295 490 287 l 293 316 q 119 388 172 334 q 65 531 65 441 q 159 706 65 642 q 447 769 253 769 q 567 762 507 769 q 675 741 627 754 l 675 604 q 448 634 569 634 q 295 609 338 634 q 252 540 252 584 q 273 488 252 508 q 346 458 294 467 l 488 438 q 662 371 606 420 q 718 224 718 322 z "},"ŝ":{"ha":769,"x_min":65,"x_max":718,"o":"m 354 -14 q 81 20 200 -14 l 81 157 q 353 121 210 121 q 490 144 449 121 q 531 214 531 168 q 510 268 531 249 q 435 295 490 287 l 293 316 q 119 388 172 334 q 65 531 65 441 q 159 706 65 642 q 447 769 253 769 q 567 762 507 769 q 675 741 627 754 l 675 604 q 448 634 569 634 q 295 609 338 634 q 252 540 252 584 q 273 488 252 508 q 346 458 294 467 l 488 438 q 662 371 606 420 q 718 224 718 322 q 677 97 718 150 q 554 15 635 43 q 354 -14 472 -14 m 660 861 l 510 861 l 391 1028 l 272 861 l 122 861 l 312 1122 l 470 1122 l 660 861 z "}}}
